<svg width="450" height="144" viewBox="0 0 450 144" fill="none" xmlns="http://www.w3.org/2000/svg">
<path d="M45.7759 129L48.7999 113.664L49.2799 114.288H42.9919L43.3999 112.2H57.2479L56.8399 114.288H50.4559L51.1759 113.664L48.1519 129H45.7759ZM56.1162 129L58.6842 116.28H64.4922C65.8842 116.28 66.9402 116.528 67.6602 117.024C68.3802 117.52 68.7402 118.24 68.7402 119.184C68.7402 120.256 68.2762 121.128 67.3482 121.8C66.4362 122.456 65.2362 122.784 63.7482 122.784L64.0602 122.208C65.4042 122.208 66.3962 122.44 67.0362 122.904C67.6762 123.352 67.9962 124.064 67.9962 125.04C67.9962 126.272 67.5002 127.24 66.5082 127.944C65.5162 128.648 64.1322 129 62.3562 129H56.1162ZM58.7562 127.224H62.4282C63.4682 127.224 64.2842 127.024 64.8762 126.624C65.4682 126.224 65.7642 125.664 65.7642 124.944C65.7642 124.4 65.5802 124.008 65.2122 123.768C64.8442 123.528 64.2442 123.408 63.4122 123.408H59.5002L58.7562 127.224ZM59.8362 121.752H63.2922C64.2042 121.752 64.9482 121.56 65.5242 121.176C66.1002 120.776 66.3882 120.248 66.3882 119.592C66.3882 119.08 66.1882 118.696 65.7882 118.44C65.4042 118.184 64.8282 118.056 64.0602 118.056H60.5562L59.8362 121.752ZM76.9303 129.144C75.7143 129.144 74.6583 128.92 73.7623 128.472C72.8823 128.008 72.1943 127.368 71.6983 126.552C71.2023 125.72 70.9543 124.752 70.9543 123.648C70.9543 122.208 71.2743 120.928 71.9143 119.808C72.5543 118.672 73.4343 117.784 74.5543 117.144C75.6903 116.488 76.9783 116.16 78.4183 116.16C79.6183 116.16 80.6663 116.384 81.5623 116.832C82.4583 117.28 83.1463 117.912 83.6263 118.728C84.1223 119.544 84.3703 120.512 84.3703 121.632C84.3703 123.072 84.0503 124.36 83.4103 125.496C82.7703 126.616 81.8903 127.504 80.7703 128.16C79.6663 128.816 78.3863 129.144 76.9303 129.144ZM77.0743 127.128C78.0343 127.128 78.8903 126.896 79.6423 126.432C80.3943 125.968 80.9783 125.336 81.3943 124.536C81.8263 123.72 82.0423 122.792 82.0423 121.752C82.0423 120.632 81.7143 119.76 81.0583 119.136C80.4023 118.496 79.4663 118.176 78.2503 118.176C77.3063 118.176 76.4583 118.408 75.7063 118.872C74.9543 119.32 74.3623 119.952 73.9303 120.768C73.4983 121.568 73.2823 122.496 73.2823 123.552C73.2823 124.656 73.6103 125.528 74.2663 126.168C74.9223 126.808 75.8583 127.128 77.0743 127.128ZM86.4208 129L88.9888 116.28H91.3168L89.3968 125.784L98.9968 116.28H101.181L98.6608 129H96.3088L98.2528 119.496L88.6528 129H86.4208ZM95.4448 114.552C94.2288 114.552 93.3328 114.272 92.7568 113.712C92.1808 113.136 91.9888 112.328 92.1808 111.288H93.7408C93.6288 111.912 93.7408 112.408 94.0768 112.776C94.4128 113.128 94.9088 113.304 95.5648 113.304C96.2208 113.304 96.7728 113.128 97.2208 112.776C97.6848 112.424 97.9888 111.928 98.1328 111.288H99.7168C99.5088 112.36 99.0368 113.176 98.3008 113.736C97.5648 114.28 96.6128 114.552 95.4448 114.552ZM109.577 129L112.121 116.28H123.905L121.361 129H119.057L121.265 117.72L121.697 118.296H113.417L114.113 117.72L111.881 129H109.577ZM131.891 129.144C130.675 129.144 129.619 128.92 128.723 128.472C127.843 128.008 127.155 127.368 126.659 126.552C126.163 125.72 125.915 124.752 125.915 123.648C125.915 122.208 126.235 120.928 126.875 119.808C127.515 118.672 128.395 117.784 129.515 117.144C130.651 116.488 131.939 116.16 133.379 116.16C134.579 116.16 135.627 116.384 136.523 116.832C137.419 117.28 138.107 117.912 138.587 118.728C139.083 119.544 139.331 120.512 139.331 121.632C139.331 123.072 139.011 124.36 138.371 125.496C137.731 126.616 136.851 127.504 135.731 128.16C134.627 128.816 133.347 129.144 131.891 129.144ZM132.035 127.128C132.995 127.128 133.851 126.896 134.603 126.432C135.355 125.968 135.939 125.336 136.355 124.536C136.787 123.72 137.003 122.792 137.003 121.752C137.003 120.632 136.675 119.76 136.019 119.136C135.363 118.496 134.427 118.176 133.211 118.176C132.267 118.176 131.419 118.408 130.667 118.872C129.915 119.32 129.323 119.952 128.891 120.768C128.459 121.568 128.243 122.496 128.243 123.552C128.243 124.656 128.571 125.528 129.227 126.168C129.883 126.808 130.819 127.128 132.035 127.128ZM141.382 129L143.926 116.28H146.278L149.854 125.688H148.894L156.406 116.28H158.566L156.046 129H153.958L155.974 118.872L156.334 119.088L149.518 127.56H148.51L145.078 118.92L145.51 118.824L143.494 129H141.382ZM166.579 129.144C165.363 129.144 164.307 128.92 163.411 128.472C162.531 128.008 161.843 127.368 161.347 126.552C160.851 125.72 160.603 124.752 160.603 123.648C160.603 122.208 160.923 120.928 161.563 119.808C162.203 118.672 163.083 117.784 164.203 117.144C165.339 116.488 166.627 116.16 168.067 116.16C169.267 116.16 170.315 116.384 171.211 116.832C172.107 117.28 172.795 117.912 173.275 118.728C173.771 119.544 174.019 120.512 174.019 121.632C174.019 123.072 173.699 124.36 173.059 125.496C172.419 126.616 171.539 127.504 170.419 128.16C169.315 128.816 168.035 129.144 166.579 129.144ZM166.723 127.128C167.683 127.128 168.539 126.896 169.291 126.432C170.043 125.968 170.627 125.336 171.043 124.536C171.475 123.72 171.691 122.792 171.691 121.752C171.691 120.632 171.363 119.76 170.707 119.136C170.051 118.496 169.115 118.176 167.899 118.176C166.955 118.176 166.107 118.408 165.355 118.872C164.603 119.32 164.011 119.952 163.579 120.768C163.147 121.568 162.931 122.496 162.931 123.552C162.931 124.656 163.259 125.528 163.915 126.168C164.571 126.808 165.507 127.128 166.723 127.128ZM184.949 126.984L184.325 127.584L186.533 116.28H188.837L186.629 127.584L186.173 126.984H192.869L192.197 127.584L194.405 116.28H196.709L194.189 129H176.069L178.613 116.28H180.917L178.685 127.584L178.277 126.984H184.949ZM193.373 131.712L194.021 128.4L194.453 129H191.765L192.197 126.984H196.493L195.533 131.712H193.373ZM199.132 129L201.676 116.28H203.98L202.9 121.68H210.148L211.228 116.28H213.532L210.988 129H208.684L209.764 123.672H202.516L201.436 129H199.132ZM215.444 129L218.012 116.28H220.34L218.42 125.784L228.02 116.28H230.204L227.684 129H225.332L227.276 119.496L217.676 129H215.444ZM241.395 129L237.795 122.76L239.715 121.896L244.059 129H241.395ZM232.155 129L234.723 116.28H237.027L234.459 129H232.155ZM234.867 123.624L235.227 121.656H239.427L239.067 123.624H234.867ZM239.787 122.904L237.603 122.616L243.771 116.28H246.339L239.787 122.904ZM261.801 127.92L263.721 118.296H258.201L257.601 120.84C257.393 121.624 257.185 122.392 256.977 123.144C256.769 123.88 256.529 124.56 256.257 125.184C255.985 125.792 255.673 126.296 255.321 126.696C254.969 127.08 254.545 127.312 254.049 127.392L251.673 126.984C252.169 127 252.609 126.832 252.993 126.48C253.377 126.128 253.721 125.648 254.025 125.04C254.329 124.416 254.601 123.712 254.841 122.928C255.097 122.144 255.329 121.336 255.537 120.504L256.545 116.28H266.433L264.105 127.92H261.801ZM250.281 131.952L251.265 126.984H266.241L265.257 131.952H263.097L263.673 129H253.041L252.441 131.952H250.281ZM266.699 128.976L267.251 127.032C267.363 127.048 267.467 127.064 267.563 127.08C267.659 127.096 267.747 127.104 267.827 127.104C268.403 127.104 268.899 126.848 269.315 126.336C269.731 125.824 270.099 125.104 270.419 124.176C270.739 123.248 271.059 122.176 271.379 120.96L272.531 116.28H282.275L279.731 129H277.427L279.707 117.576L280.163 118.296H273.635L274.259 117.576L273.395 121.128C273.075 122.44 272.739 123.6 272.387 124.608C272.051 125.6 271.683 126.44 271.283 127.128C270.883 127.8 270.427 128.312 269.915 128.664C269.419 129.016 268.835 129.192 268.163 129.192C267.923 129.192 267.691 129.168 267.467 129.12C267.227 129.088 266.971 129.04 266.699 128.976ZM292.394 129L293.258 124.488L293.57 125.064H289.562C288.042 125.064 286.874 124.72 286.058 124.032C285.242 123.328 284.834 122.392 284.834 121.224C284.834 119.688 285.41 118.48 286.562 117.6C287.73 116.72 289.322 116.28 291.338 116.28H296.978L294.458 129H292.394ZM283.178 129L287.618 124.128H289.994L285.77 129H283.178ZM293.402 123.864L294.674 117.528L294.914 118.272H291.146C289.898 118.272 288.93 118.528 288.242 119.04C287.554 119.536 287.21 120.256 287.21 121.2C287.21 122.56 288.122 123.24 289.946 123.24H293.858L293.402 123.864ZM305.374 129L307.942 116.28H313.75C315.142 116.28 316.198 116.528 316.918 117.024C317.638 117.52 317.998 118.24 317.998 119.184C317.998 120.256 317.534 121.128 316.606 121.8C315.694 122.456 314.494 122.784 313.006 122.784L313.318 122.208C314.662 122.208 315.654 122.44 316.294 122.904C316.934 123.352 317.254 124.064 317.254 125.04C317.254 126.272 316.758 127.24 315.766 127.944C314.774 128.648 313.39 129 311.614 129H305.374ZM308.014 127.224H311.686C312.726 127.224 313.542 127.024 314.134 126.624C314.726 126.224 315.022 125.664 315.022 124.944C315.022 124.4 314.838 124.008 314.47 123.768C314.102 123.528 313.502 123.408 312.67 123.408H308.758L308.014 127.224ZM309.094 121.752H312.55C313.462 121.752 314.206 121.56 314.782 121.176C315.358 120.776 315.646 120.248 315.646 119.592C315.646 119.08 315.446 118.696 315.046 118.44C314.662 118.184 314.086 118.056 313.318 118.056H309.814L309.094 121.752ZM332.716 129L335.236 116.28H337.54L335.02 129H332.716ZM327.364 120.576C328.804 120.576 329.884 120.872 330.604 121.464C331.34 122.04 331.708 122.912 331.708 124.08C331.708 125.072 331.46 125.944 330.964 126.696C330.468 127.432 329.764 128 328.852 128.4C327.956 128.8 326.892 129 325.66 129H320.116L322.66 116.328H324.94L324.1 120.576H327.364ZM325.66 127.272C326.412 127.272 327.068 127.152 327.628 126.912C328.188 126.656 328.62 126.304 328.924 125.856C329.244 125.408 329.404 124.88 329.404 124.272C329.404 122.944 328.492 122.28 326.668 122.28H323.764L322.78 127.272H325.66ZM339.476 129L342.02 116.28H351.38L350.972 118.296H343.34L344.012 117.768L341.78 129H339.476ZM356.704 129.144C355.488 129.144 354.432 128.92 353.536 128.472C352.656 128.008 351.968 127.368 351.472 126.552C350.976 125.72 350.728 124.752 350.728 123.648C350.728 122.208 351.048 120.928 351.688 119.808C352.328 118.672 353.208 117.784 354.328 117.144C355.464 116.488 356.752 116.16 358.192 116.16C359.392 116.16 360.44 116.384 361.336 116.832C362.232 117.28 362.92 117.912 363.4 118.728C363.896 119.544 364.144 120.512 364.144 121.632C364.144 123.072 363.824 124.36 363.184 125.496C362.544 126.616 361.664 127.504 360.544 128.16C359.44 128.816 358.16 129.144 356.704 129.144ZM356.848 127.128C357.808 127.128 358.664 126.896 359.416 126.432C360.168 125.968 360.752 125.336 361.168 124.536C361.6 123.72 361.816 122.792 361.816 121.752C361.816 120.632 361.488 119.76 360.832 119.136C360.176 118.496 359.24 118.176 358.024 118.176C357.08 118.176 356.232 118.408 355.48 118.872C354.728 119.32 354.136 119.952 353.704 120.768C353.272 121.568 353.056 122.496 353.056 123.552C353.056 124.656 353.384 125.528 354.04 126.168C354.696 126.808 355.632 127.128 356.848 127.128ZM375.005 127.92L376.925 118.296H371.405L370.805 120.84C370.597 121.624 370.389 122.392 370.181 123.144C369.973 123.88 369.733 124.56 369.461 125.184C369.189 125.792 368.877 126.296 368.525 126.696C368.173 127.08 367.749 127.312 367.253 127.392L364.877 126.984C365.373 127 365.813 126.832 366.197 126.48C366.581 126.128 366.925 125.648 367.229 125.04C367.533 124.416 367.805 123.712 368.045 122.928C368.301 122.144 368.533 121.336 368.741 120.504L369.749 116.28H379.637L377.309 127.92H375.005ZM363.485 131.952L364.469 126.984H379.445L378.461 131.952H376.301L376.877 129H366.245L365.645 131.952H363.485ZM394.615 129L397.135 116.28H399.439L396.919 129H394.615ZM389.263 120.576C390.703 120.576 391.783 120.872 392.503 121.464C393.239 122.04 393.607 122.912 393.607 124.08C393.607 125.072 393.359 125.944 392.863 126.696C392.367 127.432 391.663 128 390.751 128.4C389.855 128.8 388.791 129 387.559 129H382.015L384.559 116.328H386.839L385.999 120.576H389.263ZM387.559 127.272C388.311 127.272 388.967 127.152 389.527 126.912C390.087 126.656 390.519 126.304 390.823 125.856C391.143 125.408 391.303 124.88 391.303 124.272C391.303 122.944 390.391 122.28 388.567 122.28H385.663L384.679 127.272H387.559ZM402.502 123.696L404.35 112.2H407.086L404.326 123.696H402.502ZM402.574 129.144C402.142 129.144 401.782 129 401.494 128.712C401.222 128.424 401.086 128.088 401.086 127.704C401.086 127.224 401.238 126.832 401.542 126.528C401.862 126.224 402.246 126.072 402.694 126.072C403.126 126.072 403.478 126.208 403.75 126.48C404.038 126.752 404.182 127.088 404.182 127.488C404.182 127.792 404.11 128.072 403.966 128.328C403.822 128.584 403.63 128.784 403.39 128.928C403.15 129.072 402.878 129.144 402.574 129.144Z" fill="#373737"/>
<path d="M83.9919 93L97.4319 25.8H122.392C130.264 25.8 136.344 27.528 140.632 30.984C144.92 34.44 147.064 39.272 147.064 45.48C147.064 51.176 145.784 56.072 143.224 60.168C140.728 64.2 137.112 67.304 132.376 69.48C127.64 71.592 122.04 72.648 115.576 72.648H93.4959L98.5839 68.04L93.5919 93H83.9919ZM98.3919 69.096L95.0319 64.296H115.768C122.616 64.296 127.928 62.792 131.704 59.784C135.544 56.712 137.464 52.232 137.464 46.344C137.464 42.312 136.088 39.272 133.336 37.224C130.584 35.176 126.648 34.152 121.528 34.152H101.272L106.36 29.256L98.3919 69.096ZM150.15 93L160.23 42.12H169.062L166.182 56.904L165.222 53.256C167.59 48.968 170.598 45.96 174.246 44.232C177.894 42.504 182.406 41.64 187.782 41.64L186.054 50.568C185.67 50.504 185.286 50.472 184.902 50.472C184.518 50.472 184.102 50.472 183.654 50.472C178.598 50.472 174.406 51.848 171.078 54.6C167.814 57.352 165.606 61.672 164.454 67.56L159.366 93H150.15ZM188.869 93L198.949 42.12H208.165L198.085 93H188.869ZM206.245 32.328C204.517 32.328 203.109 31.784 202.021 30.696C200.997 29.608 200.485 28.296 200.485 26.76C200.485 24.968 201.093 23.464 202.309 22.248C203.525 20.968 205.125 20.328 207.109 20.328C208.773 20.328 210.149 20.872 211.237 21.96C212.389 22.984 212.965 24.232 212.965 25.704C212.965 27.688 212.357 29.288 211.141 30.504C209.925 31.72 208.293 32.328 206.245 32.328Z" fill="#191BDF" fill-opacity="0.7"/>
<path d="M249.761 93.768C242.977 93.768 237.185 92.584 232.385 90.216C227.649 87.848 224.001 84.552 221.441 80.328C218.945 76.04 217.697 71.08 217.697 65.448C217.697 59.88 218.657 54.664 220.577 49.8C222.497 44.872 225.249 40.552 228.833 36.84C232.481 33.128 236.801 30.248 241.793 28.2C246.849 26.088 252.545 25.032 258.881 25.032C264.449 25.032 269.377 25.928 273.665 27.72C277.953 29.512 281.249 32.104 283.553 35.496L276.641 41.448C274.657 38.888 272.129 36.936 269.057 35.592C265.985 34.248 262.369 33.576 258.209 33.576C253.409 33.576 249.089 34.408 245.249 36.072C241.473 37.672 238.241 39.944 235.553 42.888C232.865 45.768 230.817 49.096 229.409 52.872C228.001 56.648 227.297 60.648 227.297 64.872C227.297 68.904 228.161 72.456 229.889 75.528C231.681 78.536 234.273 80.904 237.665 82.632C241.121 84.36 245.377 85.224 250.433 85.224C254.529 85.224 258.273 84.552 261.665 83.208C265.121 81.864 268.161 79.88 270.785 77.256L276.353 83.592C273.281 86.984 269.441 89.544 264.833 91.272C260.225 92.936 255.201 93.768 249.761 93.768ZM306.708 93.576C301.844 93.576 297.62 92.68 294.036 90.888C290.516 89.032 287.764 86.472 285.78 83.208C283.796 79.88 282.804 76.008 282.804 71.592C282.804 65.832 284.084 60.712 286.644 56.232C289.204 51.688 292.724 48.136 297.204 45.576C301.748 42.952 306.9 41.64 312.66 41.64C317.46 41.64 321.652 42.536 325.236 44.328C328.82 46.12 331.572 48.648 333.492 51.912C335.476 55.176 336.468 59.048 336.468 63.528C336.468 69.288 335.188 74.44 332.628 78.984C330.068 83.464 326.548 87.016 322.068 89.64C317.652 92.264 312.532 93.576 306.708 93.576ZM307.284 85.512C311.124 85.512 314.548 84.584 317.556 82.728C320.564 80.872 322.9 78.344 324.564 75.144C326.292 71.88 327.156 68.168 327.156 64.008C327.156 59.528 325.844 56.04 323.22 53.544C320.596 50.984 316.852 49.704 311.988 49.704C308.212 49.704 304.82 50.632 301.812 52.488C298.804 54.28 296.436 56.808 294.708 60.072C292.98 63.272 292.116 66.984 292.116 71.208C292.116 75.624 293.428 79.112 296.052 81.672C298.676 84.232 302.42 85.512 307.284 85.512ZM416.222 41.64C420.766 41.64 424.51 42.536 427.454 44.328C430.398 46.12 432.446 48.744 433.598 52.2C434.814 55.592 434.91 59.688 433.886 64.488L428.222 93H419.006L424.67 64.488C425.63 59.88 425.214 56.296 423.422 53.736C421.694 51.176 418.526 49.896 413.918 49.896C409.246 49.896 405.374 51.208 402.302 53.832C399.23 56.456 397.15 60.456 396.062 65.832L390.59 93H381.374L387.134 64.488C388.03 59.88 387.582 56.296 385.79 53.736C384.062 51.176 380.894 49.896 376.286 49.896C371.614 49.896 367.742 51.24 364.67 53.928C361.598 56.552 359.518 60.616 358.43 66.12L353.054 93H343.838L353.918 42.12H362.75L359.87 56.712L358.142 52.776C360.51 48.936 363.486 46.12 367.07 44.328C370.718 42.536 374.75 41.64 379.166 41.64C382.622 41.64 385.63 42.216 388.19 43.368C390.75 44.52 392.766 46.248 394.238 48.552C395.774 50.792 396.67 53.512 396.926 56.712L391.934 55.752C394.558 51.016 397.918 47.496 402.014 45.192C406.174 42.824 410.91 41.64 416.222 41.64Z" fill="#373737"/>
<path d="M3.6077 50.7576C1.9851 50.5055 1.47866 50.4703 1.2783 50.7078C1.05287 50.9925 1.1308 51.1404 1.26336 51.4066C1.98892 52.2291 2.57741 52.4633 3.79417 52.9367C3.60118 52.1154 3.56904 51.6398 3.6077 50.7576Z" fill="#373737" stroke="#373737"/>
<path d="M4.64041 47.7856C3.11276 46.9341 2.61991 46.7117 2.33198 46.8749C2.00156 47.076 2.02475 47.2525 2.05875 47.5674C2.47948 48.6572 2.98079 49.1086 4.02122 50.0313C4.132 49.1396 4.27569 48.6526 4.64041 47.7856Z" fill="#373737" stroke="#373737"/>
<path d="M5.50436 46.7856C4.1788 45.1415 3.81341 44.6004 3.94877 44.2244C4.12057 43.79 4.33537 43.7816 4.71714 43.7577C6.10009 44.0357 6.73976 44.5401 8.0504 45.5898C7.01184 45.9039 6.46165 46.1744 5.50436 46.7856Z" fill="#373737" stroke="#373737"/>
<path d="M8.33997 44.5061C8.22932 42.6428 8.24391 42.066 8.53422 41.8648C8.88066 41.6403 9.0396 41.7444 9.32662 41.923C10.1793 42.8326 10.381 43.5237 10.7858 44.9515C9.87722 44.6448 9.34248 44.5572 8.33997 44.5061Z" fill="#373737" stroke="#373737"/>
<path d="M14.0501 46.3179C15.2231 44.5239 15.6313 44.0019 16.0367 44.015C16.5098 44.0451 16.5852 44.2498 16.7276 44.611C16.8916 46.0333 16.6046 46.8086 16.0009 48.4024C15.3729 47.4978 14.9396 47.0512 14.0501 46.3179Z" fill="#373737" stroke="#373737"/>
<path d="M25.4798 19.2155C23.4891 24.2143 24.315 27.6511 27.6964 34.4031L34.9629 28.9517C29.5764 26.7952 27.4339 24.7166 25.4798 19.2155Z" fill="#595BE4" stroke="#595BE4"/>
<path d="M71.5747 19.1719C73.541 24.1804 72.6984 27.613 69.2841 34.3485L62.0443 28.8618C67.4412 26.7315 69.5939 24.6634 71.5747 19.1719Z" fill="#595BE4" stroke="#595BE4"/>
<ellipse cx="26.8719" cy="29.2018" rx="26.8719" ry="29.2018" transform="matrix(-0.999997 -0.00243792 -0.00243792 0.999997 75.3626 23.2197)" fill="#595BE4"/>
<path d="M33.3339 28.1655C33.4542 32.7248 31.9664 33.8181 27.4947 34.0537M32.1703 27.619C32.1498 31.6478 30.6367 32.439 26.9539 32.8874M31.0069 26.9948C30.7423 30.3009 29.6369 31.2167 26.3358 31.5656M30.0764 26.3712C29.4519 29.28 28.3899 30.0331 25.8725 30.4772M29.3015 25.6704C28.4788 28.2024 27.6035 28.9628 25.4094 29.3111M28.6042 24.9697C27.6286 27.1735 26.8709 27.9406 25.101 28.3784M28.0622 24.2694C26.997 26.2497 26.2886 26.9536 24.7928 27.368M27.5203 23.5691C26.7519 25.0805 26.0887 25.6559 24.5624 26.2801M27.1337 22.8691C26.3429 24.2446 25.6909 24.6109 24.4101 25.0371M26.7471 22.1692C26.0062 23.2917 25.451 23.5455 24.413 23.8722M26.4377 21.6248C25.8407 22.323 25.3799 22.4764 24.4937 22.6297M26.129 20.8474C25.5983 21.3265 25.2926 21.4379 24.7299 21.31M25.8204 19.9924C25.5638 20.416 25.3824 20.5211 24.9651 20.3786" stroke="#373737"/>
<path d="M63.623 28.2392C63.4805 32.7979 64.9629 33.8984 69.4334 34.1559M64.7893 27.6984C64.7901 31.7273 66.2993 32.5258 69.9799 32.9923M65.9557 27.0799C66.2042 30.3873 67.3051 31.3085 70.6044 31.6735M66.8892 26.4609C67.4996 29.3727 68.5579 30.131 71.073 30.5873M67.6676 25.7638C68.4779 28.2998 69.3495 29.0645 71.5419 29.4235M68.3682 25.0665C69.3331 27.2751 70.087 28.0459 71.8548 28.4923M68.9136 24.3689C69.9692 26.3544 70.6741 27.0618 72.1679 27.4834M69.459 23.6712C70.2199 25.1864 70.8803 25.765 72.4036 26.3967M69.849 22.9732C70.6331 24.3525 71.2833 24.7219 72.5619 25.1544M70.239 22.2752C70.9744 23.4012 71.5284 23.6578 72.5648 23.9895M70.551 21.7323C71.1446 22.4334 71.6046 22.589 72.4901 22.7467M70.8635 20.9564C71.3919 21.438 71.697 21.5509 72.2604 21.4258M71.1763 20.1029C71.4308 20.5277 71.6117 20.6338 72.0296 20.4933" stroke="#373737"/>
<path d="M75.2874 54.1304L21.5438 53.9993L21.5039 70.3655C21.4742 82.5157 31.2999 92.3895 43.4502 92.4191L53.1939 92.4428C65.3441 92.4725 75.2178 82.6468 75.2475 70.4965L75.2874 54.1304Z" fill="#595BE4"/>
<path d="M38.3274 50.6386C37.6786 50.469 37.3581 50.4427 36.8522 50.4797C36.3249 50.5723 36.2206 50.6966 36.1519 51.0216C36.0849 51.5011 36.1052 51.7959 36.2263 52.3421" stroke="#373737"/>
<path d="M59.1048 50.6889C59.7545 50.5224 60.0751 50.4977 60.5808 50.5371C61.1077 50.6323 61.2114 50.7572 61.2785 51.0825C61.3431 51.5623 61.3214 51.857 61.1976 52.4026" stroke="#373737"/>
<path d="M53.5994 62.0126C51.9093 63.1159 50.9316 63.6211 49.0127 63.8654C46.8497 63.828 45.8036 63.4645 44.2013 62.3003C42.5502 60.985 41.7183 60.1063 40.405 58.4855C39.2856 56.948 38.7412 56.0267 37.93 54.2856C37.5743 53.4679 37.3901 52.7304 37.3138 52.1871C37.2374 51.6439 37.4116 51.2318 38.0145 51.4899C38.0145 51.4899 38.6236 51.819 39.1003 52.1138L39.1358 52.1358C39.5917 52.4179 39.8836 52.5985 40.4187 52.8937C41.741 53.5168 42.5275 53.7644 43.9884 54.0674C47.7123 54.5647 49.7495 54.5454 53.3079 54.1677C55.0742 53.8555 56.0093 53.6316 57.3494 52.935C57.9621 52.6647 58.2674 52.4618 58.7493 52.1617L59.6051 51.5425C60.1523 51.2765 60.2271 51.6178 60.2247 52.243C60.0578 53.1597 59.9117 53.6049 59.5983 54.3384C58.918 55.9309 58.2814 56.8616 57.1028 58.5262C55.9281 59.9931 55.1663 60.7667 53.5994 62.0126Z" fill="#373737"/>
<path d="M39.1003 52.1138C38.6236 51.819 38.0145 51.4899 38.0145 51.4899C37.4116 51.2318 37.2374 51.6439 37.3138 52.1871C37.3901 52.7304 37.5743 53.4679 37.93 54.2856C38.7412 56.0267 39.2856 56.948 40.405 58.4855C41.7183 60.1063 42.5502 60.985 44.2013 62.3003C45.8036 63.4645 46.8497 63.828 49.0127 63.8654C50.9316 63.6211 51.9093 63.1159 53.5994 62.0126C55.1663 60.7667 55.9281 59.9931 57.1028 58.5262C58.2814 56.8616 58.918 55.9309 59.5983 54.3384C59.9117 53.6049 60.0578 53.1597 60.2247 52.243C60.2271 51.6178 60.1523 51.2765 59.6051 51.5425L58.7493 52.1617C58.2674 52.4618 57.9621 52.6647 57.3494 52.935C56.0093 53.6316 55.0742 53.8555 53.3079 54.1677C49.7495 54.5454 47.7123 54.5647 43.9884 54.0674C42.5275 53.7644 41.741 53.5168 40.4187 52.8937C39.8836 52.5985 39.5917 52.4179 39.1358 52.1358M39.1003 52.1138L39.1358 52.1358M39.1003 52.1138C39.1122 52.1212 39.1241 52.1286 39.1358 52.1358" stroke="#373737"/>
<path d="M49.656 54.7818C50.1829 56.0973 50.4707 56.8821 51.0469 57.8916C51.5031 58.3344 52.3556 55.9071 53.2293 54.4793C51.8811 54.6862 51.103 54.7605 49.656 54.7818Z" fill="#EFEFEF" stroke="#EFEFEF"/>
<path d="M47.6745 54.7475C47.1065 56.0457 46.7942 56.8212 46.1865 57.812C45.7166 58.2402 44.9409 55.7873 44.1126 54.3328C45.4536 54.582 46.2289 54.6807 47.6745 54.7475Z" fill="#EFEFEF" stroke="#EFEFEF"/>
<path d="M53.2114 62.0017C51.6878 62.9683 50.7982 63.4427 48.8582 63.622C46.8846 63.5577 45.927 63.2243 44.4348 62.2133C45.7409 60.8405 46.7056 60.4409 48.866 60.4378C51.1078 60.3946 52.0267 60.7792 53.2114 62.0017Z" fill="#595BE4" stroke="#595BE4"/>
<ellipse cx="4.19388" cy="4.81519" rx="4.19388" ry="4.81519" transform="matrix(-0.983825 -0.179132 -0.179132 0.983825 61.8136 37.7168)" fill="#EFEFEF"/>
<ellipse cx="1.32029" cy="1.86395" rx="1.32029" ry="1.86395" transform="matrix(-0.998653 -0.0518867 -0.0518867 0.998653 57.3103 41.7695)" fill="#373737"/>
<ellipse cx="40.0496" cy="41.6617" rx="4.19388" ry="4.81519" transform="rotate(-10.0399 40.0496 41.6617)" fill="#EFEFEF"/>
<ellipse cx="40.9702" cy="43.5259" rx="1.32029" ry="1.86395" transform="rotate(-2.69486 40.9702 43.5259)" fill="#373737"/>
<path d="M25.4798 19.2155C23.4891 24.2143 24.315 27.6511 27.6964 34.4031L34.9629 28.9517C29.5764 26.7952 27.4339 24.7166 25.4798 19.2155Z" fill="#595BE4" stroke="#595BE4"/>
<path d="M71.5747 19.1719C73.541 24.1804 72.6984 27.613 69.2841 34.3485L62.0443 28.8618C67.4412 26.7315 69.5939 24.6634 71.5747 19.1719Z" fill="#595BE4" stroke="#595BE4"/>
<ellipse cx="26.8719" cy="29.2018" rx="26.8719" ry="29.2018" transform="matrix(-0.999997 -0.00243792 -0.00243792 0.999997 75.3626 23.2197)" fill="#595BE4"/>
<path d="M33.3339 28.1655C33.4542 32.7248 31.9664 33.8181 27.4947 34.0537M32.1703 27.619C32.1498 31.6478 30.6367 32.439 26.9539 32.8874M31.0069 26.9948C30.7423 30.3009 29.6369 31.2167 26.3358 31.5656M30.0764 26.3712C29.4519 29.28 28.3899 30.0331 25.8725 30.4772M29.3015 25.6704C28.4788 28.2024 27.6035 28.9628 25.4094 29.3111M28.6042 24.9697C27.6286 27.1735 26.8709 27.9406 25.101 28.3784M28.0622 24.2694C26.997 26.2497 26.2886 26.9536 24.7928 27.368M27.5203 23.5691C26.7519 25.0805 26.0887 25.6559 24.5624 26.2801M27.1337 22.8691C26.3429 24.2446 25.6909 24.6109 24.4101 25.0371M26.7471 22.1692C26.0062 23.2917 25.451 23.5455 24.413 23.8722M26.4377 21.6248C25.8407 22.323 25.3799 22.4764 24.4937 22.6297M26.129 20.8474C25.5983 21.3265 25.2926 21.4379 24.7299 21.31M25.8204 19.9924C25.5638 20.416 25.3824 20.5211 24.9651 20.3786" stroke="#373737"/>
<path d="M63.623 28.2392C63.4805 32.7979 64.9629 33.8984 69.4334 34.1559M64.7893 27.6984C64.7901 31.7273 66.2993 32.5258 69.9799 32.9923M65.9557 27.0799C66.2042 30.3873 67.3051 31.3085 70.6044 31.6735M66.8892 26.4609C67.4996 29.3727 68.5579 30.131 71.073 30.5873M67.6676 25.7638C68.4779 28.2998 69.3495 29.0645 71.5419 29.4235M68.3682 25.0665C69.3331 27.2751 70.087 28.0459 71.8548 28.4923M68.9136 24.3689C69.9692 26.3544 70.6741 27.0618 72.1679 27.4834M69.459 23.6712C70.2199 25.1864 70.8803 25.765 72.4036 26.3967M69.849 22.9732C70.6331 24.3525 71.2833 24.7219 72.5619 25.1544M70.239 22.2752C70.9744 23.4012 71.5284 23.6578 72.5648 23.9895M70.551 21.7323C71.1446 22.4334 71.6046 22.589 72.4901 22.7467M70.8635 20.9564C71.3919 21.438 71.697 21.5509 72.2604 21.4258M71.1763 20.1029C71.4308 20.5277 71.6117 20.6338 72.0296 20.4933" stroke="#373737"/>
<path d="M75.2874 54.1304L21.5438 53.9993L21.5039 70.3655C21.4742 82.5157 31.2999 92.3895 43.4502 92.4191L53.1939 92.4428C65.3441 92.4725 75.2178 82.6468 75.2475 70.4965L75.2874 54.1304Z" fill="#595BE4"/>
<path d="M38.3274 50.6386C37.6786 50.469 37.3581 50.4427 36.8522 50.4797C36.3249 50.5723 36.2206 50.6966 36.1519 51.0216C36.0849 51.5011 36.1052 51.7959 36.2263 52.3421" stroke="#373737"/>
<path d="M59.1048 50.6889C59.7545 50.5224 60.0751 50.4977 60.5808 50.5371C61.1077 50.6323 61.2114 50.7572 61.2785 51.0825C61.3431 51.5623 61.3214 51.857 61.1976 52.4026" stroke="#373737"/>
<path d="M53.5994 62.0126C51.9093 63.1159 50.9316 63.6211 49.0127 63.8654C46.8497 63.828 45.8036 63.4645 44.2013 62.3003C42.5502 60.985 41.7183 60.1063 40.405 58.4855C39.2856 56.948 38.7412 56.0267 37.93 54.2856C37.5743 53.4679 37.3901 52.7304 37.3138 52.1871C37.2374 51.6439 37.4116 51.2318 38.0145 51.4899C38.0145 51.4899 38.6236 51.819 39.1003 52.1138L39.1358 52.1358C39.5917 52.4179 39.8836 52.5985 40.4187 52.8937C41.741 53.5168 42.5275 53.7644 43.9884 54.0674C47.7123 54.5647 49.7495 54.5454 53.3079 54.1677C55.0742 53.8555 56.0093 53.6316 57.3494 52.935C57.9621 52.6647 58.2674 52.4618 58.7493 52.1617L59.6051 51.5425C60.1523 51.2765 60.2271 51.6178 60.2247 52.243C60.0578 53.1597 59.9117 53.6049 59.5983 54.3384C58.918 55.9309 58.2814 56.8616 57.1028 58.5262C55.9281 59.9931 55.1663 60.7667 53.5994 62.0126Z" fill="#373737"/>
<path d="M39.1003 52.1138C38.6236 51.819 38.0145 51.4899 38.0145 51.4899C37.4116 51.2318 37.2374 51.6439 37.3138 52.1871C37.3901 52.7304 37.5743 53.4679 37.93 54.2856C38.7412 56.0267 39.2856 56.948 40.405 58.4855C41.7183 60.1063 42.5502 60.985 44.2013 62.3003C45.8036 63.4645 46.8497 63.828 49.0127 63.8654C50.9316 63.6211 51.9093 63.1159 53.5994 62.0126C55.1663 60.7667 55.9281 59.9931 57.1028 58.5262C58.2814 56.8616 58.918 55.9309 59.5983 54.3384C59.9117 53.6049 60.0578 53.1597 60.2247 52.243C60.2271 51.6178 60.1523 51.2765 59.6051 51.5425L58.7493 52.1617C58.2674 52.4618 57.9621 52.6647 57.3494 52.935C56.0093 53.6316 55.0742 53.8555 53.3079 54.1677C49.7495 54.5454 47.7123 54.5647 43.9884 54.0674C42.5275 53.7644 41.741 53.5168 40.4187 52.8937C39.8836 52.5985 39.5917 52.4179 39.1358 52.1358M39.1003 52.1138L39.1358 52.1358M39.1003 52.1138C39.1122 52.1212 39.1241 52.1286 39.1358 52.1358" stroke="#373737"/>
<path d="M49.656 54.7818C50.1829 56.0973 50.4707 56.8821 51.0469 57.8916C51.5031 58.3344 52.3556 55.9071 53.2293 54.4793C51.8811 54.6862 51.103 54.7605 49.656 54.7818Z" fill="#EFEFEF" stroke="#EFEFEF"/>
<path d="M47.6745 54.7475C47.1065 56.0457 46.7942 56.8212 46.1865 57.812C45.7166 58.2402 44.9409 55.7873 44.1126 54.3328C45.4536 54.582 46.2289 54.6807 47.6745 54.7475Z" fill="#EFEFEF" stroke="#EFEFEF"/>
<path d="M53.2114 62.0017C51.6878 62.9683 50.7982 63.4427 48.8582 63.622C46.8846 63.5577 45.927 63.2243 44.4348 62.2133C45.7409 60.8405 46.7056 60.4409 48.866 60.4378C51.1078 60.3946 52.0267 60.7792 53.2114 62.0017Z" fill="#595BE4" stroke="#595BE4"/>
<ellipse cx="56.8248" cy="41.7027" rx="4.19388" ry="4.81519" transform="rotate(-10.0399 56.8248 41.7027)" fill="#EFEFEF"/>
<ellipse cx="1.32029" cy="1.86395" rx="1.32029" ry="1.86395" transform="matrix(-0.998653 -0.0518867 -0.0518867 0.998653 57.3103 41.7695)" fill="#373737"/>
<ellipse cx="40.0496" cy="41.6617" rx="4.19388" ry="4.81519" transform="rotate(-10.0399 40.0496 41.6617)" fill="#EFEFEF"/>
<ellipse cx="40.9702" cy="43.5259" rx="1.32029" ry="1.86395" transform="rotate(-2.69486 40.9702 43.5259)" fill="#373737"/>
<path d="M40.7307 31.6839C41.0558 31.5958 41.2451 31.5691 41.5879 31.5406C41.9226 31.4952 42.1083 31.4901 42.4681 31.5847C42.7097 31.724 42.8342 31.8187 43.0196 32.0495C43.1479 32.2646 43.195 32.3881 43.222 32.6142C43.2369 32.9075 43.1668 33.0472 42.942 33.2761C42.597 33.4752 42.4234 33.5252 42.136 33.5272C41.8799 33.5342 41.7473 33.5267 41.5227 33.4884C41.2571 33.4095 41.1405 33.3673 40.9659 33.2905C40.6312 33.1321 40.3938 33.0355 40.2501 33.0361L40.2494 33.0361C39.935 33.053 39.7894 33.0609 39.5546 33.1024C39.1601 33.1628 38.9929 33.2097 38.723 33.2996L38.0505 33.5533L38.8157 32.6606C39.1214 32.383 39.3237 32.2374 39.763 32.0119C40.1291 31.8675 40.3391 31.7927 40.7307 31.6839Z" fill="#373737"/>
<path d="M40.2501 33.0361C40.3938 33.0355 40.6312 33.1321 40.9659 33.2905C41.1405 33.3673 41.2571 33.4095 41.5227 33.4884C41.7473 33.5267 41.8799 33.5342 42.136 33.5272C42.4234 33.5252 42.597 33.4752 42.942 33.2761C43.1668 33.0472 43.2369 32.9075 43.222 32.6142C43.195 32.3881 43.1479 32.2646 43.0196 32.0495C42.8342 31.8187 42.7097 31.724 42.4681 31.5847C42.1083 31.4901 41.9226 31.4952 41.5879 31.5406C41.2451 31.5691 41.0558 31.5958 40.7307 31.6839C40.3391 31.7927 40.1291 31.8675 39.763 32.0119C39.3237 32.2374 39.1214 32.383 38.8157 32.6606L38.0505 33.5533L38.723 33.2996C38.9929 33.2097 39.1601 33.1628 39.5546 33.1024C39.7894 33.0609 39.935 33.053 40.2494 33.0361M40.2501 33.0361L40.2494 33.0361M40.2501 33.0361C40.2499 33.0361 40.2496 33.0361 40.2494 33.0361" stroke="#373737"/>
<path d="M56.0733 31.7209C55.7486 31.6312 55.5595 31.6036 55.2168 31.5735C54.8823 31.5264 54.6967 31.5204 54.3364 31.6133C54.0941 31.7514 53.9692 31.8454 53.7826 32.0754C53.6533 32.2898 53.6056 32.4131 53.5775 32.639C53.5612 32.9323 53.6305 33.0723 53.8543 33.3024C54.1983 33.5031 54.3717 33.554 54.659 33.5573C54.9151 33.5656 55.0477 33.5587 55.2725 33.5215C55.5385 33.4439 55.6553 33.4023 55.8302 33.3263C56.1657 33.1696 56.4036 33.0742 56.5473 33.0754L56.548 33.0754C56.8623 33.0939 57.0079 33.1024 57.2425 33.1451C57.6367 33.2075 57.8037 33.2551 58.0731 33.3463L58.7443 33.6033L57.9835 32.7069C57.6792 32.4279 57.4775 32.2813 57.0394 32.0536C56.674 31.9074 56.4644 31.8316 56.0733 31.7209Z" fill="#373737"/>
<path d="M56.5473 33.0754C56.4036 33.0742 56.1657 33.1696 55.8302 33.3263C55.6553 33.4023 55.5385 33.4439 55.2725 33.5215C55.0477 33.5587 54.9151 33.5656 54.659 33.5573C54.3717 33.554 54.1983 33.5031 53.8543 33.3024C53.6305 33.0723 53.5612 32.9323 53.5775 32.639C53.6056 32.4131 53.6533 32.2898 53.7826 32.0754C53.9692 31.8454 54.0941 31.7514 54.3364 31.6133C54.6967 31.5204 54.8823 31.5264 55.2168 31.5735C55.5595 31.6036 55.7486 31.6312 56.0733 31.7209C56.4644 31.8316 56.674 31.9074 57.0394 32.0536C57.4775 32.2813 57.6792 32.4279 57.9835 32.7069L58.7443 33.6033L58.0731 33.3463C57.8037 33.2551 57.6367 33.2075 57.2425 33.1451C57.0079 33.1024 56.8623 33.0939 56.548 33.0754M56.5473 33.0754L56.548 33.0754M56.5473 33.0754C56.5476 33.0754 56.5478 33.0754 56.548 33.0754" stroke="#373737"/>
<path d="M30.833 66.4551C28.6201 65.5259 27.4832 64.8932 25.6172 63.6229C23.3768 62.0065 22.3194 60.9755 20.7639 58.9476C19.0783 56.5442 18.3967 55.1054 17.4274 52.45C16.7952 50.4892 16.4767 49.5465 15.9644 48.1076C15.2492 46.5338 14.7055 45.8344 13.5478 45.07C12.5272 44.4918 11.8302 44.3295 10.5239 44.1219C10.2677 44.1458 10.0335 44.174 9.81537 44.2081C8.75674 44.3733 8.07404 44.6753 7.06473 45.2873C5.81997 46.2816 5.31386 46.8972 4.64227 48.0704C3.91508 49.3246 3.72013 50.0314 3.59655 51.291C3.66751 52.9303 3.95378 53.6838 4.78678 54.8238C5.78533 55.9588 6.39934 56.5856 7.8658 57.6383C9.80719 59.1999 10.8434 60.089 12.5943 61.7C14.1746 63.2311 15.271 63.9854 17.6157 65.1714C19.7433 66.05 20.9839 66.4631 23.4171 66.8228C26.3002 67.0939 27.9281 67.0133 30.833 66.4551Z" fill="#595BE4" stroke="#595BE4"/>
<path d="M13.5578 48.4653C14.1513 49.2011 14.2602 49.6081 14.3299 50.3311C14.3911 51.0168 14.3727 51.4611 14.3252 52.2727C13.5091 54.0412 12.7078 54.6476 10.5907 54.9819C9.52503 55.012 8.96615 54.9511 8.02836 54.7426C6.9834 54.1292 6.60793 53.6576 6.09168 52.7186C5.94156 52.116 5.93758 51.8031 6.09508 51.3207C6.47544 50.6514 6.78511 50.4311 7.4955 50.3144C8.63659 50.6031 9.23851 50.666 10.1361 50.3209C10.8176 49.6 11.0619 49.2006 11.2279 48.4596C12.0394 47.5136 12.5728 47.7107 13.5578 48.4653Z" fill="#696AF3"/>
<path d="M61.6802 92.4663L61.7029 83.1466C61.2426 78.9228 60.7242 76.7362 59.0076 73.7426C56.8783 71.3186 55.5364 70.5558 53.0375 69.6118C49.7745 68.6955 47.7588 68.845 44.0285 69.5899C41.7348 70.6461 40.6429 71.5713 38.9703 73.6938C37.1556 76.9631 36.4668 79.0059 35.9184 83.0837L35.5856 92.1697L61.6802 92.4663Z" fill="#696AF3"/>
<path d="M3.6077 50.7576C1.9851 50.5055 1.47866 50.4703 1.2783 50.7078C1.05287 50.9925 1.1308 51.1404 1.26336 51.4066C1.98892 52.2291 2.57741 52.4633 3.79417 52.9367C3.60118 52.1154 3.56904 51.6398 3.6077 50.7576Z" fill="#373737" stroke="#373737"/>
<path d="M4.64041 47.7856C3.11276 46.9341 2.61991 46.7117 2.33198 46.8749C2.00156 47.076 2.02475 47.2525 2.05875 47.5674C2.47948 48.6572 2.98079 49.1086 4.02122 50.0313C4.132 49.1396 4.27569 48.6526 4.64041 47.7856Z" fill="#373737" stroke="#373737"/>
<path d="M5.50436 46.7856C4.1788 45.1415 3.81341 44.6004 3.94877 44.2244C4.12057 43.79 4.33537 43.7816 4.71714 43.7577C6.10009 44.0357 6.73976 44.5401 8.0504 45.5898C7.01184 45.9039 6.46165 46.1744 5.50436 46.7856Z" fill="#373737" stroke="#373737"/>
<path d="M8.33997 44.5061C8.22932 42.6428 8.24391 42.066 8.53422 41.8648C8.88066 41.6403 9.0396 41.7444 9.32662 41.923C10.1793 42.8326 10.381 43.5237 10.7858 44.9515C9.87722 44.6448 9.34248 44.5572 8.33997 44.5061Z" fill="#373737" stroke="#373737"/>
<path d="M14.0501 46.3179C15.2231 44.5239 15.6313 44.0019 16.0367 44.015C16.5098 44.0451 16.5852 44.2498 16.7276 44.611C16.8916 46.0333 16.6046 46.8086 16.0009 48.4024C15.3729 47.4978 14.9396 47.0512 14.0501 46.3179Z" fill="#373737" stroke="#373737"/>
<path d="M25.4798 19.2155C23.4891 24.2143 24.315 27.6511 27.6964 34.4031L34.9629 28.9517C29.5764 26.7952 27.4339 24.7166 25.4798 19.2155Z" fill="#595BE4" stroke="#595BE4"/>
<path d="M71.5747 19.1719C73.541 24.1804 72.6984 27.613 69.2841 34.3485L62.0443 28.8618C67.4412 26.7315 69.5939 24.6634 71.5747 19.1719Z" fill="#595BE4" stroke="#595BE4"/>
<ellipse cx="26.8719" cy="29.2018" rx="26.8719" ry="29.2018" transform="matrix(-0.999997 -0.00243792 -0.00243792 0.999997 75.3626 23.2197)" fill="#595BE4"/>
<path d="M33.3339 28.1655C33.4542 32.7248 31.9664 33.8181 27.4947 34.0537M32.1703 27.619C32.1498 31.6478 30.6367 32.439 26.9539 32.8874M31.0069 26.9948C30.7423 30.3009 29.6369 31.2167 26.3358 31.5656M30.0764 26.3712C29.4519 29.28 28.3899 30.0331 25.8725 30.4772M29.3015 25.6704C28.4788 28.2024 27.6035 28.9628 25.4094 29.3111M28.6042 24.9697C27.6286 27.1735 26.8709 27.9406 25.101 28.3784M28.0622 24.2694C26.997 26.2497 26.2886 26.9536 24.7928 27.368M27.5203 23.5691C26.7519 25.0805 26.0887 25.6559 24.5624 26.2801M27.1337 22.8691C26.3429 24.2446 25.6909 24.6109 24.4101 25.0371M26.7471 22.1692C26.0062 23.2917 25.451 23.5455 24.413 23.8722M26.4377 21.6248C25.8407 22.323 25.3799 22.4764 24.4937 22.6297M26.129 20.8474C25.5983 21.3265 25.2926 21.4379 24.7299 21.31M25.8204 19.9924C25.5638 20.416 25.3824 20.5211 24.9651 20.3786" stroke="#373737"/>
<path d="M63.623 28.2392C63.4805 32.7979 64.9629 33.8984 69.4334 34.1559M64.7893 27.6984C64.7901 31.7273 66.2993 32.5258 69.9799 32.9923M65.9557 27.0799C66.2042 30.3873 67.3051 31.3085 70.6044 31.6735M66.8892 26.4609C67.4996 29.3727 68.5579 30.131 71.073 30.5873M67.6676 25.7638C68.4779 28.2998 69.3495 29.0645 71.5419 29.4235M68.3682 25.0665C69.3331 27.2751 70.087 28.0459 71.8548 28.4923M68.9136 24.3689C69.9692 26.3544 70.6741 27.0618 72.1679 27.4834M69.459 23.6712C70.2199 25.1864 70.8803 25.765 72.4036 26.3967M69.849 22.9732C70.6331 24.3525 71.2833 24.7219 72.5619 25.1544M70.239 22.2752C70.9744 23.4012 71.5284 23.6578 72.5648 23.9895M70.551 21.7323C71.1446 22.4334 71.6046 22.589 72.4901 22.7467M70.8635 20.9564C71.3919 21.438 71.697 21.5509 72.2604 21.4258M71.1763 20.1029C71.4308 20.5277 71.6117 20.6338 72.0296 20.4933" stroke="#373737"/>
<path d="M75.2874 54.1304L21.5438 53.9993L21.5039 70.3655C21.4742 82.5157 31.2999 92.3895 43.4502 92.4191L53.1939 92.4428C65.3441 92.4725 75.2178 82.6468 75.2475 70.4965L75.2874 54.1304Z" fill="#595BE4"/>
<path d="M38.3274 50.6386C37.6786 50.469 37.3581 50.4427 36.8522 50.4797C36.3249 50.5723 36.2206 50.6966 36.1519 51.0216C36.0849 51.5011 36.1052 51.7959 36.2263 52.3421" stroke="#373737"/>
<path d="M59.1048 50.6889C59.7545 50.5224 60.0751 50.4977 60.5808 50.5371C61.1077 50.6323 61.2114 50.7572 61.2785 51.0825C61.3431 51.5623 61.3214 51.857 61.1976 52.4026" stroke="#373737"/>
<path d="M53.5994 62.0126C51.9093 63.1159 50.9316 63.6211 49.0127 63.8654C46.8497 63.828 45.8036 63.4645 44.2013 62.3003C42.5502 60.985 41.7183 60.1063 40.405 58.4855C39.2856 56.948 38.7412 56.0267 37.93 54.2856C37.5743 53.4679 37.3901 52.7304 37.3138 52.1871C37.2374 51.6439 37.4116 51.2318 38.0145 51.4899C38.0145 51.4899 38.6236 51.819 39.1003 52.1138L39.1358 52.1358C39.5917 52.4179 39.8836 52.5985 40.4187 52.8937C41.741 53.5168 42.5275 53.7644 43.9884 54.0674C47.7123 54.5647 49.7495 54.5454 53.3079 54.1677C55.0742 53.8555 56.0093 53.6316 57.3494 52.935C57.9621 52.6647 58.2674 52.4618 58.7493 52.1617L59.6051 51.5425C60.1523 51.2765 60.2271 51.6178 60.2247 52.243C60.0578 53.1597 59.9117 53.6049 59.5983 54.3384C58.918 55.9309 58.2814 56.8616 57.1028 58.5262C55.9281 59.9931 55.1663 60.7667 53.5994 62.0126Z" fill="#373737"/>
<path d="M39.1003 52.1138C38.6236 51.819 38.0145 51.4899 38.0145 51.4899C37.4116 51.2318 37.2374 51.6439 37.3138 52.1871C37.3901 52.7304 37.5743 53.4679 37.93 54.2856C38.7412 56.0267 39.2856 56.948 40.405 58.4855C41.7183 60.1063 42.5502 60.985 44.2013 62.3003C45.8036 63.4645 46.8497 63.828 49.0127 63.8654C50.9316 63.6211 51.9093 63.1159 53.5994 62.0126C55.1663 60.7667 55.9281 59.9931 57.1028 58.5262C58.2814 56.8616 58.918 55.9309 59.5983 54.3384C59.9117 53.6049 60.0578 53.1597 60.2247 52.243C60.2271 51.6178 60.1523 51.2765 59.6051 51.5425L58.7493 52.1617C58.2674 52.4618 57.9621 52.6647 57.3494 52.935C56.0093 53.6316 55.0742 53.8555 53.3079 54.1677C49.7495 54.5454 47.7123 54.5647 43.9884 54.0674C42.5275 53.7644 41.741 53.5168 40.4187 52.8937C39.8836 52.5985 39.5917 52.4179 39.1358 52.1358M39.1003 52.1138L39.1358 52.1358M39.1003 52.1138C39.1122 52.1212 39.1241 52.1286 39.1358 52.1358" stroke="#373737"/>
<path d="M49.656 54.7818C50.1829 56.0973 50.4707 56.8821 51.0469 57.8916C51.5031 58.3344 52.3556 55.9071 53.2293 54.4793C51.8811 54.6862 51.103 54.7605 49.656 54.7818Z" fill="#EFEFEF" stroke="#EFEFEF"/>
<path d="M47.6745 54.7475C47.1065 56.0457 46.7942 56.8212 46.1865 57.812C45.7166 58.2402 44.9409 55.7873 44.1126 54.3328C45.4536 54.582 46.2289 54.6807 47.6745 54.7475Z" fill="#EFEFEF" stroke="#EFEFEF"/>
<path d="M53.2114 62.0017C51.6878 62.9683 50.7982 63.4427 48.8582 63.622C46.8846 63.5577 45.927 63.2243 44.4348 62.2133C45.7409 60.8405 46.7056 60.4409 48.866 60.4378C51.1078 60.3946 52.0267 60.7792 53.2114 62.0017Z" fill="#595BE4" stroke="#595BE4"/>
<ellipse cx="4.19388" cy="4.81519" rx="4.19388" ry="4.81519" transform="matrix(-0.983825 -0.179132 -0.179132 0.983825 61.8136 37.7168)" fill="#EFEFEF"/>
<ellipse cx="1.32029" cy="1.86395" rx="1.32029" ry="1.86395" transform="matrix(-0.998653 -0.0518867 -0.0518867 0.998653 57.3103 41.7695)" fill="#373737"/>
<ellipse cx="40.0496" cy="41.6617" rx="4.19388" ry="4.81519" transform="rotate(-10.0399 40.0496 41.6617)" fill="#EFEFEF"/>
<ellipse cx="40.9702" cy="43.5259" rx="1.32029" ry="1.86395" transform="rotate(-2.69486 40.9702 43.5259)" fill="#373737"/>
<path d="M25.4798 19.2155C23.4891 24.2143 24.315 27.6511 27.6964 34.4031L34.9629 28.9517C29.5764 26.7952 27.4339 24.7166 25.4798 19.2155Z" fill="#595BE4" stroke="#595BE4"/>
<path d="M71.5747 19.1719C73.541 24.1804 72.6984 27.613 69.2841 34.3485L62.0443 28.8618C67.4412 26.7315 69.5939 24.6634 71.5747 19.1719Z" fill="#595BE4" stroke="#595BE4"/>
<ellipse cx="26.8719" cy="29.2018" rx="26.8719" ry="29.2018" transform="matrix(-0.999997 -0.00243792 -0.00243792 0.999997 75.3626 23.2197)" fill="#595BE4"/>
<path d="M33.3339 28.1655C33.4542 32.7248 31.9664 33.8181 27.4947 34.0537M32.1703 27.619C32.1498 31.6478 30.6367 32.439 26.9539 32.8874M31.0069 26.9948C30.7423 30.3009 29.6369 31.2167 26.3358 31.5656M30.0764 26.3712C29.4519 29.28 28.3899 30.0331 25.8725 30.4772M29.3015 25.6704C28.4788 28.2024 27.6035 28.9628 25.4094 29.3111M28.6042 24.9697C27.6286 27.1735 26.8709 27.9406 25.101 28.3784M28.0622 24.2694C26.997 26.2497 26.2886 26.9536 24.7928 27.368M27.5203 23.5691C26.7519 25.0805 26.0887 25.6559 24.5624 26.2801M27.1337 22.8691C26.3429 24.2446 25.6909 24.6109 24.4101 25.0371M26.7471 22.1692C26.0062 23.2917 25.451 23.5455 24.413 23.8722M26.4377 21.6248C25.8407 22.323 25.3799 22.4764 24.4937 22.6297M26.129 20.8474C25.5983 21.3265 25.2926 21.4379 24.7299 21.31M25.8204 19.9924C25.5638 20.416 25.3824 20.5211 24.9651 20.3786" stroke="#373737"/>
<path d="M63.623 28.2392C63.4805 32.7979 64.9629 33.8984 69.4334 34.1559M64.7893 27.6984C64.7901 31.7273 66.2993 32.5258 69.9799 32.9923M65.9557 27.0799C66.2042 30.3873 67.3051 31.3085 70.6044 31.6735M66.8892 26.4609C67.4996 29.3727 68.5579 30.131 71.073 30.5873M67.6676 25.7638C68.4779 28.2998 69.3495 29.0645 71.5419 29.4235M68.3682 25.0665C69.3331 27.2751 70.087 28.0459 71.8548 28.4923M68.9136 24.3689C69.9692 26.3544 70.6741 27.0618 72.1679 27.4834M69.459 23.6712C70.2199 25.1864 70.8803 25.765 72.4036 26.3967M69.849 22.9732C70.6331 24.3525 71.2833 24.7219 72.5619 25.1544M70.239 22.2752C70.9744 23.4012 71.5284 23.6578 72.5648 23.9895M70.551 21.7323C71.1446 22.4334 71.6046 22.589 72.4901 22.7467M70.8635 20.9564C71.3919 21.438 71.697 21.5509 72.2604 21.4258M71.1763 20.1029C71.4308 20.5277 71.6117 20.6338 72.0296 20.4933" stroke="#373737"/>
<rect width="53.7438" height="38.3662" rx="2" transform="matrix(-0.999997 -0.00243792 -0.00243792 0.999997 75.2874 54.1304)" fill="#595BE4"/>
<path d="M38.3274 50.6386C37.6786 50.469 37.3581 50.4427 36.8522 50.4797C36.3249 50.5723 36.2206 50.6966 36.1519 51.0216C36.0849 51.5011 36.1052 51.7959 36.2263 52.3421" stroke="#373737"/>
<path d="M59.1048 50.6889C59.7545 50.5224 60.0751 50.4977 60.5808 50.5371C61.1077 50.6323 61.2114 50.7572 61.2785 51.0825C61.3431 51.5623 61.3214 51.857 61.1976 52.4026" stroke="#373737"/>
<path d="M53.5994 62.0126C51.9093 63.1159 50.9316 63.6211 49.0127 63.8654C46.8497 63.828 45.8036 63.4645 44.2013 62.3003C42.5502 60.985 41.7183 60.1063 40.405 58.4855C39.2856 56.948 38.7412 56.0267 37.93 54.2856C37.5743 53.4679 37.3901 52.7304 37.3138 52.1871C37.2374 51.6439 37.4116 51.2318 38.0145 51.4899C38.0145 51.4899 38.6236 51.819 39.1003 52.1138L39.1358 52.1358C39.5917 52.4179 39.8836 52.5985 40.4187 52.8937C41.741 53.5168 42.5275 53.7644 43.9884 54.0674C47.7123 54.5647 49.7495 54.5454 53.3079 54.1677C55.0742 53.8555 56.0093 53.6316 57.3494 52.935C57.9621 52.6647 58.2674 52.4618 58.7493 52.1617L59.6051 51.5425C60.1523 51.2765 60.2271 51.6178 60.2247 52.243C60.0578 53.1597 59.9117 53.6049 59.5983 54.3384C58.918 55.9309 58.2814 56.8616 57.1028 58.5262C55.9281 59.9931 55.1663 60.7667 53.5994 62.0126Z" fill="#373737"/>
<path d="M39.1003 52.1138C38.6236 51.819 38.0145 51.4899 38.0145 51.4899C37.4116 51.2318 37.2374 51.6439 37.3138 52.1871C37.3901 52.7304 37.5743 53.4679 37.93 54.2856C38.7412 56.0267 39.2856 56.948 40.405 58.4855C41.7183 60.1063 42.5502 60.985 44.2013 62.3003C45.8036 63.4645 46.8497 63.828 49.0127 63.8654C50.9316 63.6211 51.9093 63.1159 53.5994 62.0126C55.1663 60.7667 55.9281 59.9931 57.1028 58.5262C58.2814 56.8616 58.918 55.9309 59.5983 54.3384C59.9117 53.6049 60.0578 53.1597 60.2247 52.243C60.2271 51.6178 60.1523 51.2765 59.6051 51.5425L58.7493 52.1617C58.2674 52.4618 57.9621 52.6647 57.3494 52.935C56.0093 53.6316 55.0742 53.8555 53.3079 54.1677C49.7495 54.5454 47.7123 54.5647 43.9884 54.0674C42.5275 53.7644 41.741 53.5168 40.4187 52.8937C39.8836 52.5985 39.5917 52.4179 39.1358 52.1358M39.1003 52.1138L39.1358 52.1358M39.1003 52.1138C39.1122 52.1212 39.1241 52.1286 39.1358 52.1358" stroke="#373737"/>
<path d="M49.656 54.7818C50.1829 56.0973 50.4707 56.8821 51.0469 57.8916C51.5031 58.3344 52.3556 55.9071 53.2293 54.4793C51.8811 54.6862 51.103 54.7605 49.656 54.7818Z" fill="#EFEFEF" stroke="#EFEFEF"/>
<path d="M47.6745 54.7475C47.1065 56.0457 46.7942 56.8212 46.1865 57.812C45.7166 58.2402 44.9409 55.7873 44.1126 54.3328C45.4536 54.582 46.2289 54.6807 47.6745 54.7475Z" fill="#EFEFEF" stroke="#EFEFEF"/>
<path d="M53.2114 62.0017C51.6878 62.9683 50.7982 63.4427 48.8582 63.622C46.8846 63.5577 45.927 63.2243 44.4348 62.2133C45.7409 60.8405 46.7056 60.4409 48.866 60.4378C51.1078 60.3946 52.0267 60.7792 53.2114 62.0017Z" fill="#595BE4" stroke="#595BE4"/>
<ellipse cx="56.8248" cy="41.7027" rx="4.19388" ry="4.81519" transform="rotate(-10.0399 56.8248 41.7027)" fill="#EFEFEF"/>
<ellipse cx="1.32029" cy="1.86395" rx="1.32029" ry="1.86395" transform="matrix(-0.998653 -0.0518867 -0.0518867 0.998653 57.3103 41.7695)" fill="#373737"/>
<ellipse cx="40.0496" cy="41.6617" rx="4.19388" ry="4.81519" transform="rotate(-10.0399 40.0496 41.6617)" fill="#EFEFEF"/>
<ellipse cx="40.9702" cy="43.5259" rx="1.32029" ry="1.86395" transform="rotate(-2.69486 40.9702 43.5259)" fill="#373737"/>
<path d="M40.7307 31.6839C41.0558 31.5958 41.2451 31.5691 41.5879 31.5406C41.9226 31.4952 42.1083 31.4901 42.4681 31.5847C42.7097 31.724 42.8342 31.8187 43.0196 32.0495C43.1479 32.2646 43.195 32.3881 43.222 32.6142C43.2369 32.9075 43.1668 33.0472 42.942 33.2761C42.597 33.4752 42.4234 33.5252 42.136 33.5272C41.8799 33.5342 41.7473 33.5267 41.5227 33.4884C41.2571 33.4095 41.1405 33.3673 40.9659 33.2905C40.6312 33.1321 40.3938 33.0355 40.2501 33.0361L40.2494 33.0361C39.935 33.053 39.7894 33.0609 39.5546 33.1024C39.1601 33.1628 38.9929 33.2097 38.723 33.2996L38.0505 33.5533L38.8157 32.6606C39.1214 32.383 39.3237 32.2374 39.763 32.0119C40.1291 31.8675 40.3391 31.7927 40.7307 31.6839Z" fill="#373737"/>
<path d="M40.2501 33.0361C40.3938 33.0355 40.6312 33.1321 40.9659 33.2905C41.1405 33.3673 41.2571 33.4095 41.5227 33.4884C41.7473 33.5267 41.8799 33.5342 42.136 33.5272C42.4234 33.5252 42.597 33.4752 42.942 33.2761C43.1668 33.0472 43.2369 32.9075 43.222 32.6142C43.195 32.3881 43.1479 32.2646 43.0196 32.0495C42.8342 31.8187 42.7097 31.724 42.4681 31.5847C42.1083 31.4901 41.9226 31.4952 41.5879 31.5406C41.2451 31.5691 41.0558 31.5958 40.7307 31.6839C40.3391 31.7927 40.1291 31.8675 39.763 32.0119C39.3237 32.2374 39.1214 32.383 38.8157 32.6606L38.0505 33.5533L38.723 33.2996C38.9929 33.2097 39.1601 33.1628 39.5546 33.1024C39.7894 33.0609 39.935 33.053 40.2494 33.0361M40.2501 33.0361L40.2494 33.0361M40.2501 33.0361C40.2499 33.0361 40.2496 33.0361 40.2494 33.0361" stroke="#373737"/>
<path d="M56.0733 31.7209C55.7486 31.6312 55.5595 31.6036 55.2168 31.5735C54.8823 31.5264 54.6967 31.5204 54.3364 31.6133C54.0941 31.7514 53.9692 31.8454 53.7826 32.0754C53.6533 32.2898 53.6056 32.4131 53.5775 32.639C53.5612 32.9323 53.6305 33.0723 53.8543 33.3024C54.1983 33.5031 54.3717 33.554 54.659 33.5573C54.9151 33.5656 55.0477 33.5587 55.2725 33.5215C55.5385 33.4439 55.6553 33.4023 55.8302 33.3263C56.1657 33.1696 56.4036 33.0742 56.5473 33.0754L56.548 33.0754C56.8623 33.0939 57.0079 33.1024 57.2425 33.1451C57.6367 33.2075 57.8037 33.2551 58.0731 33.3463L58.7443 33.6033L57.9835 32.7069C57.6792 32.4279 57.4775 32.2813 57.0394 32.0536C56.674 31.9074 56.4644 31.8316 56.0733 31.7209Z" fill="#373737"/>
<path d="M56.5473 33.0754C56.4036 33.0742 56.1657 33.1696 55.8302 33.3263C55.6553 33.4023 55.5385 33.4439 55.2725 33.5215C55.0477 33.5587 54.9151 33.5656 54.659 33.5573C54.3717 33.554 54.1983 33.5031 53.8543 33.3024C53.6305 33.0723 53.5612 32.9323 53.5775 32.639C53.6056 32.4131 53.6533 32.2898 53.7826 32.0754C53.9692 31.8454 54.0941 31.7514 54.3364 31.6133C54.6967 31.5204 54.8823 31.5264 55.2168 31.5735C55.5595 31.6036 55.7486 31.6312 56.0733 31.7209C56.4644 31.8316 56.674 31.9074 57.0394 32.0536C57.4775 32.2813 57.6792 32.4279 57.9835 32.7069L58.7443 33.6033L58.0731 33.3463C57.8037 33.2551 57.6367 33.2075 57.2425 33.1451C57.0079 33.1024 56.8623 33.0939 56.548 33.0754M56.5473 33.0754L56.548 33.0754M56.5473 33.0754C56.5476 33.0754 56.5478 33.0754 56.548 33.0754" stroke="#373737"/>
<path d="M30.833 66.4551C28.6201 65.5259 27.4832 64.8932 25.6172 63.6229C23.3768 62.0065 22.3194 60.9755 20.7639 58.9476C19.0783 56.5442 18.3967 55.1054 17.4274 52.45C16.7952 50.4892 16.4767 49.5465 15.9644 48.1076C15.2492 46.5338 14.7055 45.8344 13.5478 45.07C12.5272 44.4918 11.8302 44.3295 10.5239 44.1219C10.2677 44.1458 10.0335 44.174 9.81537 44.2081C8.75674 44.3733 8.07404 44.6753 7.06473 45.2873C5.81997 46.2816 5.31386 46.8972 4.64227 48.0704C3.91508 49.3246 3.72013 50.0314 3.59655 51.291C3.66751 52.9303 3.95378 53.6838 4.78678 54.8238C5.78533 55.9588 6.39934 56.5856 7.8658 57.6383C9.80719 59.1999 10.8434 60.089 12.5943 61.7C14.1746 63.2311 15.271 63.9854 17.6157 65.1714C19.7433 66.05 20.9839 66.4631 23.4171 66.8228C26.3002 67.0939 27.9281 67.0133 30.833 66.4551Z" fill="#595BE4" stroke="#595BE4"/>
<path d="M13.5578 48.4653C14.1513 49.2011 14.2602 49.6081 14.3299 50.3311C14.3911 51.0168 14.3727 51.4611 14.3252 52.2727C13.5091 54.0412 12.7078 54.6476 10.5907 54.9819C9.52503 55.012 8.96615 54.9511 8.02836 54.7426C6.9834 54.1292 6.60793 53.6576 6.09168 52.7186C5.94156 52.116 5.93758 51.8031 6.09508 51.3207C6.47544 50.6514 6.78511 50.4311 7.4955 50.3144C8.63659 50.6031 9.23851 50.666 10.1361 50.3209C10.8176 49.6 11.0619 49.2006 11.2279 48.4596C12.0394 47.5136 12.5728 47.7107 13.5578 48.4653Z" fill="#696AF3"/>
<path d="M61.6802 92.4663L61.7029 83.1466C61.2426 78.9228 60.7242 76.7362 59.0076 73.7426C56.8783 71.3186 55.5364 70.5558 53.0375 69.6118C49.7745 68.6955 47.7588 68.845 44.0285 69.5899C41.7348 70.6461 40.6429 71.5713 38.9703 73.6938C37.1556 76.9631 36.4668 79.0059 35.9184 83.0837L35.5856 92.1697L61.6802 92.4663Z" fill="#696AF3"/>
</svg>
