<svg width="627" height="624" viewBox="0 0 627 624" fill="none" xmlns="http://www.w3.org/2000/svg">
<path d="M148.939 298.111H604.292V601.175C604.292 613.325 594.442 623.175 582.292 623.175H170.939C158.789 623.175 148.939 613.325 148.939 601.175V298.111Z" fill="#595BE4"/>
<path d="M571.659 3.31627C588.422 45.7103 581.354 74.8114 552.566 131.949L491.112 85.6116C536.794 67.4512 554.99 49.8842 571.659 3.31627Z" fill="#595BE4" stroke="#595BE4"/>
<path d="M181.116 1.99986C164.354 44.3939 171.422 73.495 200.21 130.633L261.664 84.2952C215.982 66.1348 197.786 48.5678 181.116 1.99986Z" fill="#595BE4" stroke="#595BE4"/>
<ellipse cx="376.615" cy="283.635" rx="227.676" ry="247.417" fill="#595BE4"/>
<path d="M504.93 78.989C503.817 117.616 516.4 126.91 554.282 128.999M514.8 74.3828C514.891 108.518 527.695 115.252 558.888 119.128M524.671 69.1186C526.844 97.1351 536.191 104.918 564.152 107.942M532.567 63.8544C537.799 88.5126 546.781 94.9151 568.1 98.7297M539.147 57.9322C546.065 79.4021 553.466 85.8626 572.049 88.8593M545.07 52.01C553.29 70.7023 559.693 77.2176 574.681 80.963M549.676 46.0878C558.661 62.8887 564.648 68.8672 577.313 72.4087M554.282 40.1656C560.761 52.9873 566.368 57.8758 579.287 63.1964M557.572 34.2434C564.244 45.9132 569.76 49.03 580.603 52.668M560.862 28.3211C567.116 37.8465 571.815 40.0087 580.603 42.7977M563.494 23.715C568.538 29.6427 572.439 30.952 579.945 32.2693M566.126 17.1347C570.613 21.2046 573.201 22.1546 577.971 21.0829M568.758 9.89648C570.924 13.4908 572.459 14.3858 575.997 13.1866" stroke="#373737"/>
<path d="M248.301 78.989C249.414 117.616 236.831 126.91 198.949 128.999M238.43 74.3828C238.34 108.518 225.536 115.252 194.343 119.128M228.56 69.1186C226.387 97.1351 217.04 104.918 189.079 107.942M220.664 63.8544C215.432 88.5126 206.45 94.9151 185.131 98.7297M214.084 57.9322C207.166 79.4021 199.765 85.8626 181.182 88.8593M208.161 52.01C199.941 70.7023 193.538 77.2176 178.55 80.963M203.555 46.0878C194.57 62.8887 188.583 68.8672 175.918 72.4087M198.949 40.1656C192.47 52.9873 186.863 57.8758 173.944 63.1964M195.659 34.2434C188.987 45.9132 183.471 49.03 172.628 52.668M192.369 28.3211C186.115 37.8465 181.416 40.0087 172.628 42.7977M189.737 23.715C184.693 29.6427 180.792 30.952 173.286 32.2693M187.105 17.1347C182.618 21.2046 180.03 22.1546 175.26 21.0829M184.473 9.89648C182.307 13.4908 180.772 14.3858 177.234 13.1866" stroke="#373737"/>
<path d="M148.939 298.111H604.292V601.175C604.292 613.325 594.442 623.175 582.292 623.175H170.939C158.789 623.175 148.939 613.325 148.939 601.175V298.111Z" fill="#595BE4"/>
<path d="M462.158 269.29C467.659 267.866 470.375 267.651 474.661 267.974C479.127 268.77 480.008 269.825 480.583 272.58C481.141 276.644 480.963 279.141 479.925 283.767" stroke="#373737"/>
<path d="M286.119 269.29C280.618 267.866 277.902 267.651 273.616 267.974C269.15 268.77 268.27 269.825 267.694 272.58C267.137 276.644 267.315 279.141 268.352 283.767" stroke="#373737"/>
<path d="M332.528 365.35C346.825 374.733 355.098 379.033 371.351 381.142C389.678 380.871 398.549 377.812 412.149 367.982C426.165 356.871 433.231 349.444 444.392 335.739C453.908 322.735 458.539 314.94 465.449 300.205C468.479 293.285 470.055 287.04 470.713 282.439C471.371 277.838 469.904 274.342 464.791 276.517C464.791 276.517 459.623 279.292 455.578 281.781L455.277 281.966C451.408 284.347 448.931 285.871 444.392 288.361C433.175 293.613 426.507 295.695 414.123 298.231C382.561 302.368 365.301 302.162 335.16 298.889C320.201 296.207 312.283 294.291 300.943 288.361C295.757 286.058 293.175 284.333 289.098 281.781L281.86 276.517C277.229 274.252 276.589 277.142 276.596 282.439C277.992 290.209 279.22 293.984 281.86 300.205C287.591 313.712 292.966 321.611 302.917 335.739C312.839 348.191 319.278 354.761 332.528 365.35Z" fill="#373737"/>
<path d="M455.578 281.781C459.623 279.292 464.791 276.517 464.791 276.517C469.904 274.342 471.371 277.838 470.713 282.439C470.055 287.04 468.479 293.285 465.449 300.205C458.539 314.94 453.908 322.735 444.392 335.739C433.231 349.444 426.165 356.871 412.149 367.982C398.549 377.812 389.678 380.871 371.351 381.142C355.098 379.033 346.825 374.733 332.528 365.35C319.278 354.761 312.839 348.191 302.917 335.739C292.966 321.611 287.591 313.712 281.86 300.205C279.22 293.984 277.992 290.209 276.596 282.439C276.589 277.142 277.229 274.252 281.86 276.517L289.098 281.781C293.175 284.333 295.757 286.058 300.943 288.361C312.283 294.291 320.201 296.207 335.16 298.889C365.301 302.162 382.561 302.368 414.123 298.231C426.506 295.695 433.175 293.613 444.392 288.361C448.931 285.871 451.408 284.347 455.277 281.966M455.578 281.781L455.277 281.966M455.578 281.781C455.477 281.843 455.376 281.905 455.277 281.966" stroke="#373737"/>
<path d="M366.089 304.166C361.598 315.301 359.143 321.944 354.24 330.485C350.365 334.228 343.193 313.645 335.82 301.529C347.238 303.31 353.829 303.956 366.089 304.166Z" fill="#EFEFEF" stroke="#EFEFEF"/>
<path d="M382.878 303.914C387.664 314.925 390.294 321.502 395.422 329.909C399.395 333.547 406.018 312.781 413.066 300.474C401.699 302.557 395.128 303.378 382.878 303.914Z" fill="#EFEFEF" stroke="#EFEFEF"/>
<path d="M335.818 365.265C348.707 373.486 356.234 377.525 372.667 379.084C389.391 378.579 397.511 375.774 410.175 367.239C399.137 355.581 390.972 352.176 372.667 352.105C353.675 351.692 345.881 354.932 335.818 365.265Z" fill="#595BE4" stroke="#595BE4"/>
<ellipse cx="305.62" cy="193.202" rx="35.5333" ry="40.7975" transform="rotate(-10.1795 305.62 193.202)" fill="#EFEFEF"/>
<ellipse cx="313.46" cy="208.974" rx="11.1864" ry="15.7926" transform="rotate(-2.83454 313.46 208.974)" fill="#373737"/>
<ellipse cx="35.5333" cy="40.7975" rx="35.5333" ry="40.7975" transform="matrix(-0.984259 -0.176733 -0.176733 0.984259 489.937 159.326)" fill="#EFEFEF"/>
<ellipse cx="11.1864" cy="15.7926" rx="11.1864" ry="15.7926" transform="matrix(-0.998776 -0.0494519 -0.0494519 0.998776 451.866 193.754)" fill="#373737"/>
<path d="M571.659 3.31627C588.422 45.7103 581.354 74.8114 552.566 131.949L491.112 85.6116C536.794 67.4512 554.99 49.8842 571.659 3.31627Z" fill="#595BE4" stroke="#595BE4"/>
<path d="M181.116 1.99986C164.354 44.3939 171.422 73.495 200.21 130.633L261.664 84.2952C215.982 66.1348 197.786 48.5678 181.116 1.99986Z" fill="#595BE4" stroke="#595BE4"/>
<ellipse cx="376.615" cy="283.635" rx="227.676" ry="247.417" fill="#595BE4"/>
<path d="M504.93 78.989C503.817 117.616 516.4 126.91 554.282 128.999M514.8 74.3828C514.891 108.518 527.695 115.252 558.888 119.128M524.671 69.1186C526.844 97.1351 536.191 104.918 564.152 107.942M532.567 63.8544C537.799 88.5126 546.781 94.9151 568.1 98.7297M539.147 57.9322C546.065 79.4021 553.466 85.8626 572.049 88.8593M545.07 52.01C553.29 70.7023 559.693 77.2176 574.681 80.963M549.676 46.0878C558.661 62.8887 564.648 68.8672 577.313 72.4087M554.282 40.1656C560.761 52.9873 566.368 57.8758 579.287 63.1964M557.572 34.2434C564.244 45.9132 569.76 49.03 580.603 52.668M560.862 28.3211C567.116 37.8465 571.815 40.0087 580.603 42.7977M563.494 23.715C568.538 29.6427 572.439 30.952 579.945 32.2693M566.126 17.1347C570.613 21.2046 573.201 22.1546 577.971 21.0829M568.758 9.89648C570.924 13.4908 572.459 14.3858 575.997 13.1866" stroke="#373737"/>
<path d="M248.301 78.989C249.414 117.616 236.831 126.91 198.949 128.999M238.43 74.3828C238.34 108.518 225.536 115.252 194.343 119.128M228.56 69.1186C226.387 97.1351 217.04 104.918 189.079 107.942M220.664 63.8544C215.432 88.5126 206.45 94.9151 185.131 98.7297M214.084 57.9322C207.166 79.4021 199.765 85.8626 181.182 88.8593M208.161 52.01C199.941 70.7023 193.538 77.2176 178.55 80.963M203.555 46.0878C194.57 62.8887 188.583 68.8672 175.918 72.4087M198.949 40.1656C192.47 52.9873 186.863 57.8758 173.944 63.1964M195.659 34.2434C188.987 45.9132 183.471 49.03 172.628 52.668M192.369 28.3211C186.115 37.8465 181.416 40.0087 172.628 42.7977M189.737 23.715C184.693 29.6427 180.792 30.952 173.286 32.2693M187.105 17.1347C182.618 21.2046 180.03 22.1546 175.26 21.0829M184.473 9.89648C182.307 13.4908 180.772 14.3858 177.234 13.1866" stroke="#373737"/>
<path d="M148.939 298.111H604.292V601.175C604.292 613.325 594.442 623.175 582.292 623.175H170.939C158.789 623.175 148.939 613.325 148.939 601.175V298.111Z" fill="#595BE4"/>
<path d="M462.158 269.29C467.659 267.866 470.375 267.651 474.661 267.974C479.127 268.77 480.008 269.825 480.583 272.58C481.141 276.644 480.963 279.141 479.925 283.767" stroke="#373737"/>
<path d="M286.119 269.29C280.618 267.866 277.902 267.651 273.616 267.974C269.15 268.77 268.27 269.825 267.694 272.58C267.137 276.644 267.315 279.141 268.352 283.767" stroke="#373737"/>
<path d="M332.528 365.35C346.825 374.733 355.098 379.033 371.351 381.142C389.678 380.871 398.549 377.812 412.149 367.982C426.165 356.871 433.231 349.444 444.392 335.739C453.908 322.735 458.539 314.94 465.449 300.205C468.479 293.285 470.055 287.04 470.713 282.439C471.371 277.838 469.904 274.342 464.791 276.517C464.791 276.517 459.623 279.292 455.578 281.781L455.277 281.966C451.408 284.347 448.931 285.871 444.392 288.361C433.175 293.613 426.507 295.695 414.123 298.231C382.561 302.368 365.301 302.162 335.16 298.889C320.201 296.207 312.283 294.291 300.943 288.361C295.757 286.058 293.175 284.333 289.098 281.781L281.86 276.517C277.229 274.252 276.589 277.142 276.596 282.439C277.992 290.209 279.22 293.984 281.86 300.205C287.591 313.712 292.966 321.611 302.917 335.739C312.839 348.191 319.278 354.761 332.528 365.35Z" fill="#373737"/>
<path d="M455.578 281.781C459.623 279.292 464.791 276.517 464.791 276.517C469.904 274.342 471.371 277.838 470.713 282.439C470.055 287.04 468.479 293.285 465.449 300.205C458.539 314.94 453.908 322.735 444.392 335.739C433.231 349.444 426.165 356.871 412.149 367.982C398.549 377.812 389.678 380.871 371.351 381.142C355.098 379.033 346.825 374.733 332.528 365.35C319.278 354.761 312.839 348.191 302.917 335.739C292.966 321.611 287.591 313.712 281.86 300.205C279.22 293.984 277.992 290.209 276.596 282.439C276.589 277.142 277.229 274.252 281.86 276.517L289.098 281.781C293.175 284.333 295.757 286.058 300.943 288.361C312.283 294.291 320.201 296.207 335.16 298.889C365.301 302.162 382.561 302.368 414.123 298.231C426.506 295.695 433.175 293.613 444.392 288.361C448.931 285.871 451.408 284.347 455.277 281.966M455.578 281.781L455.277 281.966M455.578 281.781C455.477 281.843 455.376 281.905 455.277 281.966" stroke="#373737"/>
<path d="M366.089 304.166C361.598 315.301 359.143 321.944 354.24 330.485C350.365 334.228 343.193 313.645 335.82 301.529C347.238 303.31 353.829 303.956 366.089 304.166Z" fill="#EFEFEF" stroke="#EFEFEF"/>
<path d="M382.878 303.914C387.664 314.925 390.294 321.502 395.422 329.909C399.395 333.547 406.018 312.781 413.066 300.474C401.699 302.557 395.128 303.378 382.878 303.914Z" fill="#EFEFEF" stroke="#EFEFEF"/>
<path d="M335.818 365.265C348.707 373.486 356.234 377.525 372.667 379.084C389.391 378.579 397.511 375.774 410.175 367.239C399.137 355.581 390.972 352.176 372.667 352.105C353.675 351.692 345.881 354.932 335.818 365.265Z" fill="#595BE4" stroke="#595BE4"/>
<ellipse cx="35.5333" cy="40.7975" rx="35.5333" ry="40.7975" transform="matrix(-0.984259 -0.176733 -0.176733 0.984259 347.804 159.326)" fill="#EFEFEF"/>
<ellipse cx="313.46" cy="208.974" rx="11.1864" ry="15.7926" transform="rotate(-2.83454 313.46 208.974)" fill="#373737"/>
<ellipse cx="35.5333" cy="40.7975" rx="35.5333" ry="40.7975" transform="matrix(-0.984259 -0.176733 -0.176733 0.984259 489.937 159.326)" fill="#EFEFEF"/>
<ellipse cx="11.1864" cy="15.7926" rx="11.1864" ry="15.7926" transform="matrix(-0.998776 -0.0494519 -0.0494519 0.998776 451.866 193.754)" fill="#373737"/>
<path d="M442.188 108.643C439.435 107.89 437.832 107.66 434.928 107.412C432.093 107.02 430.52 106.973 427.469 107.767C425.419 108.942 424.363 109.742 422.787 111.694C421.696 113.513 421.294 114.559 421.06 116.474C420.928 118.958 421.519 120.144 423.42 122.088C426.338 123.781 427.808 124.209 430.243 124.232C432.413 124.296 433.537 124.235 435.44 123.916C437.692 123.252 438.681 122.898 440.161 122.25C443 120.916 445.014 120.102 446.232 120.109L446.238 120.11C448.901 120.26 450.135 120.329 452.123 120.686C455.464 121.206 456.88 121.606 459.165 122.374L464.857 124.537L458.392 116.958C455.808 114.6 454.097 113.362 450.38 111.442C447.281 110.211 445.504 109.573 442.188 108.643Z" fill="#373737"/>
<path d="M446.232 120.109C445.014 120.102 443 120.916 440.161 122.25C438.681 122.898 437.692 123.252 435.44 123.916C433.537 124.235 432.413 124.296 430.243 124.232C427.808 124.209 426.338 123.781 423.42 122.088C421.519 120.144 420.928 118.958 421.06 116.474C421.294 114.559 421.696 113.513 422.787 111.694C424.363 109.742 425.419 108.942 427.469 107.767C430.52 106.973 432.093 107.02 434.928 107.412C437.832 107.66 439.435 107.89 442.188 108.643C445.504 109.573 447.281 110.211 450.38 111.442C454.097 113.362 455.808 114.6 458.392 116.958L464.857 124.537L459.165 122.374C456.88 121.606 455.464 121.206 452.123 120.686C450.135 120.329 448.901 120.26 446.238 120.11M446.232 120.109L446.238 120.11M446.232 120.109C446.234 120.11 446.236 120.11 446.238 120.11" stroke="#373737"/>
<path d="M312.195 108.643C314.948 107.89 316.551 107.66 319.455 107.412C322.29 107.02 323.863 106.973 326.913 107.767C328.964 108.942 330.02 109.742 331.596 111.694C332.687 113.513 333.089 114.559 333.323 116.474C333.454 118.958 332.864 120.144 330.963 122.088C328.045 123.781 326.574 124.209 324.14 124.232C321.97 124.296 320.846 124.235 318.943 123.916C316.691 123.252 315.702 122.898 314.221 122.25C311.382 120.916 309.368 120.102 308.151 120.109L308.145 120.11C305.482 120.26 304.248 120.329 302.26 120.686C298.919 121.206 297.503 121.606 295.218 122.374L289.525 124.537L295.99 116.958C298.575 114.6 300.286 113.362 304.003 111.442C307.102 110.211 308.879 109.573 312.195 108.643Z" fill="#373737"/>
<path d="M308.151 120.109C309.368 120.102 311.382 120.916 314.221 122.25C315.702 122.898 316.691 123.252 318.943 123.916C320.846 124.235 321.97 124.296 324.14 124.232C326.574 124.209 328.045 123.781 330.963 122.088C332.864 120.144 333.454 118.958 333.323 116.474C333.089 114.559 332.687 113.513 331.596 111.694C330.02 109.742 328.964 108.942 326.913 107.767C323.863 106.973 322.29 107.02 319.455 107.412C316.551 107.66 314.948 107.89 312.195 108.643C308.879 109.573 307.102 110.211 304.003 111.442C300.286 113.362 298.575 114.6 295.99 116.958L289.525 124.537L295.218 122.374C297.503 121.606 298.919 121.206 302.26 120.686C304.248 120.329 305.482 120.26 308.145 120.11M308.151 120.109L308.145 120.11M308.151 120.109C308.149 120.11 308.147 120.11 308.145 120.11" stroke="#373737"/>
<path d="M263.435 623.204V544.242C267.423 508.464 271.861 489.948 286.466 464.621C304.557 444.126 315.942 437.692 337.134 429.745C364.799 422.049 381.875 423.357 413.465 429.745C432.876 438.742 442.109 446.604 456.236 464.621C471.543 492.358 477.338 509.68 481.899 544.242L484.531 621.23L263.435 623.204Z" fill="#696AF3"/>
<path d="M22.2118 523.091C8.59811 525.959 4.32938 526.487 2.52644 524.569C0.490059 522.262 1.08228 520.976 2.08307 518.663C7.84849 511.375 12.7213 509.127 22.8009 504.57C21.5407 511.606 21.4844 515.644 22.2118 523.091Z" fill="#373737"/>
<path d="M32.0957 547.309C19.5573 555.206 15.4884 557.311 12.9783 556.061C10.0916 554.51 10.2077 553.006 10.3526 550.326C13.4178 540.915 17.4543 536.868 25.8383 528.59C27.1801 536.084 28.6167 540.139 32.0957 547.309Z" fill="#373737"/>
<path d="M37.2888 557.179C26.8197 571.691 23.9738 576.434 25.2896 579.554C26.9402 583.151 28.7613 583.125 32.0021 583.154C43.5764 580.174 48.7595 575.617 59.372 566.141C50.4428 563.955 45.6652 561.916 37.2888 557.179Z" fill="#373737"/>
<path d="M63.5158 573.701C63.4249 589.516 63.8101 594.39 66.3575 595.96C69.3904 597.702 70.6879 596.749 73.0351 595.108C79.8368 587.026 81.2293 581.087 84.0065 568.823C76.4588 571.83 71.9743 572.814 63.5158 573.701Z" fill="#373737" stroke="black"/>
<path d="M109.801 557.255C120.539 571.902 124.23 576.133 127.654 575.838C131.643 575.369 132.187 573.602 133.229 570.482C133.971 558.375 131.191 551.945 125.36 538.735C120.457 546.673 116.994 550.648 109.801 557.255Z" fill="#373737"/>
<path d="M571.659 3.31627C588.422 45.7103 581.354 74.8114 552.566 131.949L491.112 85.6116C536.794 67.4512 554.99 49.8842 571.659 3.31627Z" fill="#595BE4" stroke="#595BE4"/>
<path d="M181.116 1.99986C164.354 44.3939 171.422 73.495 200.21 130.633L261.664 84.2952C215.982 66.1348 197.786 48.5678 181.116 1.99986Z" fill="#595BE4" stroke="#595BE4"/>
<ellipse cx="376.615" cy="283.635" rx="227.676" ry="247.417" fill="#595BE4"/>
<path d="M504.93 78.989C503.817 117.616 516.4 126.91 554.282 128.999M514.8 74.3828C514.891 108.518 527.695 115.252 558.888 119.128M524.671 69.1186C526.844 97.1351 536.191 104.918 564.152 107.942M532.567 63.8544C537.799 88.5126 546.781 94.9151 568.1 98.7297M539.147 57.9322C546.065 79.4021 553.466 85.8626 572.049 88.8593M545.07 52.01C553.29 70.7023 559.693 77.2176 574.681 80.963M549.676 46.0878C558.661 62.8887 564.648 68.8672 577.313 72.4087M554.282 40.1656C560.761 52.9873 566.368 57.8758 579.287 63.1964M557.572 34.2434C564.244 45.9132 569.76 49.03 580.603 52.668M560.862 28.3211C567.116 37.8465 571.815 40.0087 580.603 42.7977M563.494 23.715C568.538 29.6427 572.439 30.952 579.945 32.2693M566.126 17.1347C570.613 21.2046 573.201 22.1546 577.971 21.0829M568.758 9.89648C570.924 13.4908 572.459 14.3858 575.997 13.1866" stroke="#373737"/>
<path d="M248.301 78.989C249.414 117.616 236.831 126.91 198.949 128.999M238.43 74.3828C238.34 108.518 225.536 115.252 194.343 119.128M228.56 69.1186C226.387 97.1351 217.04 104.918 189.079 107.942M220.664 63.8544C215.432 88.5126 206.45 94.9151 185.131 98.7297M214.084 57.9322C207.166 79.4021 199.765 85.8626 181.182 88.8593M208.161 52.01C199.941 70.7023 193.538 77.2176 178.55 80.963M203.555 46.0878C194.57 62.8887 188.583 68.8672 175.918 72.4087M198.949 40.1656C192.47 52.9873 186.863 57.8758 173.944 63.1964M195.659 34.2434C188.987 45.9132 183.471 49.03 172.628 52.668M192.369 28.3211C186.115 37.8465 181.416 40.0087 172.628 42.7977M189.737 23.715C184.693 29.6427 180.792 30.952 173.286 32.2693M187.105 17.1347C182.618 21.2046 180.03 22.1546 175.26 21.0829M184.473 9.89648C182.307 13.4908 180.772 14.3858 177.234 13.1866" stroke="#373737"/>
<path d="M148.939 298.111H604.292V601.175C604.292 613.325 594.442 623.175 582.292 623.175H170.939C158.789 623.175 148.939 613.325 148.939 601.175V298.111Z" fill="#595BE4"/>
<path d="M462.158 269.29C467.659 267.866 470.375 267.651 474.661 267.974C479.127 268.77 480.008 269.825 480.583 272.58C481.141 276.644 480.963 279.141 479.925 283.767" stroke="#373737"/>
<path d="M286.119 269.29C280.618 267.866 277.902 267.651 273.616 267.974C269.15 268.77 268.27 269.825 267.694 272.58C267.137 276.644 267.315 279.141 268.352 283.767" stroke="#373737"/>
<path d="M332.528 365.35C346.825 374.733 355.098 379.033 371.351 381.142C389.678 380.871 398.549 377.812 412.149 367.982C426.165 356.871 433.231 349.444 444.392 335.739C453.908 322.735 458.539 314.94 465.449 300.205C468.479 293.285 470.055 287.04 470.713 282.439C471.371 277.838 469.904 274.342 464.791 276.517C464.791 276.517 459.623 279.292 455.578 281.781L455.277 281.966C451.408 284.347 448.931 285.871 444.392 288.361C433.175 293.613 426.507 295.695 414.123 298.231C382.561 302.368 365.301 302.162 335.16 298.889C320.201 296.207 312.283 294.291 300.943 288.361C295.757 286.058 293.175 284.333 289.098 281.781L281.86 276.517C277.229 274.252 276.589 277.142 276.596 282.439C277.992 290.209 279.22 293.984 281.86 300.205C287.591 313.712 292.966 321.611 302.917 335.739C312.839 348.191 319.278 354.761 332.528 365.35Z" fill="#373737"/>
<path d="M455.578 281.781C459.623 279.292 464.791 276.517 464.791 276.517C469.904 274.342 471.371 277.838 470.713 282.439C470.055 287.04 468.479 293.285 465.449 300.205C458.539 314.94 453.908 322.735 444.392 335.739C433.231 349.444 426.165 356.871 412.149 367.982C398.549 377.812 389.678 380.871 371.351 381.142C355.098 379.033 346.825 374.733 332.528 365.35C319.278 354.761 312.839 348.191 302.917 335.739C292.966 321.611 287.591 313.712 281.86 300.205C279.22 293.984 277.992 290.209 276.596 282.439C276.589 277.142 277.229 274.252 281.86 276.517L289.098 281.781C293.175 284.333 295.757 286.058 300.943 288.361C312.283 294.291 320.201 296.207 335.16 298.889C365.301 302.162 382.561 302.368 414.123 298.231C426.506 295.695 433.175 293.613 444.392 288.361C448.931 285.871 451.408 284.347 455.277 281.966M455.578 281.781L455.277 281.966M455.578 281.781C455.477 281.843 455.376 281.905 455.277 281.966" stroke="#373737"/>
<path d="M366.089 304.166C361.598 315.301 359.143 321.944 354.24 330.485C350.365 334.228 343.193 313.645 335.82 301.529C347.238 303.31 353.829 303.956 366.089 304.166Z" fill="#EFEFEF" stroke="#EFEFEF"/>
<path d="M382.878 303.914C387.664 314.925 390.294 321.502 395.422 329.909C399.395 333.547 406.018 312.781 413.066 300.474C401.699 302.557 395.128 303.378 382.878 303.914Z" fill="#EFEFEF" stroke="#EFEFEF"/>
<path d="M335.818 365.265C348.707 373.486 356.234 377.525 372.667 379.084C389.391 378.579 397.511 375.774 410.175 367.239C399.137 355.581 390.972 352.176 372.667 352.105C353.675 351.692 345.881 354.932 335.818 365.265Z" fill="#595BE4" stroke="#595BE4"/>
<ellipse cx="305.62" cy="193.202" rx="35.5333" ry="40.7975" transform="rotate(-10.1795 305.62 193.202)" fill="#EFEFEF"/>
<ellipse cx="313.46" cy="208.974" rx="11.1864" ry="15.7926" transform="rotate(-2.83454 313.46 208.974)" fill="#373737"/>
<ellipse cx="35.5333" cy="40.7975" rx="35.5333" ry="40.7975" transform="matrix(-0.984259 -0.176733 -0.176733 0.984259 489.937 159.326)" fill="#EFEFEF"/>
<ellipse cx="11.1864" cy="15.7926" rx="11.1864" ry="15.7926" transform="matrix(-0.998776 -0.0494519 -0.0494519 0.998776 451.866 193.754)" fill="#373737"/>
<path d="M571.659 3.31627C588.422 45.7103 581.354 74.8114 552.566 131.949L491.112 85.6116C536.794 67.4512 554.99 49.8842 571.659 3.31627Z" fill="#595BE4" stroke="#595BE4"/>
<path d="M181.116 1.99986C164.354 44.3939 171.422 73.495 200.21 130.633L261.664 84.2952C215.982 66.1348 197.786 48.5678 181.116 1.99986Z" fill="#595BE4" stroke="#595BE4"/>
<ellipse cx="377.339" cy="287.294" rx="227.676" ry="247.417" fill="#595BE4"/>
<path d="M504.93 78.989C503.817 117.616 516.4 126.91 554.282 128.999M514.8 74.3828C514.891 108.518 527.695 115.252 558.888 119.128M524.671 69.1186C526.844 97.1351 536.191 104.918 564.152 107.942M532.567 63.8544C537.799 88.5126 546.781 94.9151 568.1 98.7297M539.147 57.9322C546.065 79.4021 553.466 85.8626 572.049 88.8593M545.07 52.01C553.29 70.7023 559.693 77.2176 574.681 80.963M549.676 46.0878C558.661 62.8887 564.648 68.8672 577.313 72.4087M554.282 40.1656C560.761 52.9873 566.368 57.8758 579.287 63.1964M557.572 34.2434C564.244 45.9132 569.76 49.03 580.603 52.668M560.862 28.3211C567.116 37.8465 571.815 40.0087 580.603 42.7977M563.494 23.715C568.538 29.6427 572.439 30.952 579.945 32.2693M566.126 17.1347C570.613 21.2046 573.201 22.1546 577.971 21.0829M568.758 9.89648C570.924 13.4908 572.459 14.3858 575.997 13.1866" stroke="#373737"/>
<path d="M248.301 78.989C249.414 117.616 236.831 126.91 198.949 128.999M238.43 74.3828C238.34 108.518 225.536 115.252 194.343 119.128M228.56 69.1186C226.387 97.1351 217.04 104.918 189.079 107.942M220.664 63.8544C215.432 88.5126 206.45 94.9151 185.131 98.7297M214.084 57.9322C207.166 79.4021 199.765 85.8626 181.182 88.8593M208.161 52.01C199.941 70.7023 193.538 77.2176 178.55 80.963M203.555 46.0878C194.57 62.8887 188.583 68.8672 175.918 72.4087M198.949 40.1656C192.47 52.9873 186.863 57.8758 173.944 63.1964M195.659 34.2434C188.987 45.9132 183.471 49.03 172.628 52.668M192.369 28.3211C186.115 37.8465 181.416 40.0087 172.628 42.7977M189.737 23.715C184.693 29.6427 180.792 30.952 173.286 32.2693M187.105 17.1347C182.618 21.2046 180.03 22.1546 175.26 21.0829M184.473 9.89648C182.307 13.4908 180.772 14.3858 177.234 13.1866" stroke="#373737"/>
<path d="M284.502 352.247C279.345 353.16 276.806 353.276 272.811 353.005C268.654 352.408 267.849 351.674 267.355 349.778C266.898 346.986 267.104 345.275 268.145 342.116" stroke="#373737"/>
<path d="M469.767 354.281C475.501 355.321 478.341 355.5 482.833 355.328C487.522 354.834 488.463 354.121 489.114 352.238C489.769 349.459 489.627 347.744 488.622 344.561" stroke="#373737"/>
<path d="M422.878 287.883C408.077 281.285 399.492 278.241 382.514 276.607C363.323 276.581 353.983 278.576 339.572 285.158C324.703 292.614 317.174 297.625 305.248 306.892C295.057 315.698 290.071 320.988 282.577 331.011C279.283 335.721 277.523 339.984 276.753 343.131C275.983 346.278 277.457 348.692 282.848 347.26C282.848 347.26 288.308 345.417 292.585 343.757L292.904 343.634C296.996 342.046 299.616 341.03 304.412 339.375C316.248 335.904 323.265 334.554 336.274 332.958C369.389 330.486 387.454 330.827 418.95 333.419C434.562 335.431 442.818 336.836 454.585 341.033C459.973 342.672 462.646 343.884 466.869 345.681L474.353 349.374C479.161 350.981 479.883 349.007 479.969 345.375C478.645 340.031 477.426 337.429 474.771 333.133C469.01 323.806 463.523 318.329 453.355 308.527C443.187 299.875 436.562 295.296 422.878 287.883Z" fill="#373737"/>
<path d="M292.585 343.757C288.308 345.417 282.848 347.26 282.848 347.26C277.457 348.692 275.983 346.278 276.753 343.131C277.523 339.984 279.283 335.721 282.577 331.011C290.071 320.988 295.057 315.698 305.248 306.892C317.174 297.625 324.703 292.614 339.572 285.158C353.983 278.576 363.323 276.581 382.514 276.607C399.492 278.241 408.077 281.285 422.878 287.883C436.562 295.296 443.187 299.875 453.355 308.527C463.523 318.329 469.01 323.806 474.771 333.133C477.426 337.429 478.645 340.031 479.969 345.375C479.883 349.007 479.161 350.981 474.353 349.374L466.869 345.681C462.646 343.884 459.973 342.672 454.585 341.033C442.818 336.836 434.562 335.431 418.95 333.419C387.454 330.827 369.389 330.486 336.274 332.958C323.265 334.554 316.248 335.904 304.412 339.375C299.616 341.03 296.996 342.046 292.904 343.634M292.585 343.757L292.904 343.634M292.585 343.757C292.693 343.716 292.799 343.674 292.904 343.634" stroke="#373737"/>
<ellipse cx="35.5333" cy="40.7975" rx="35.5333" ry="40.7975" transform="matrix(-0.984259 -0.176733 -0.176733 0.984259 347.804 159.326)" fill="#EFEFEF"/>
<ellipse cx="313.46" cy="208.974" rx="11.1864" ry="15.7926" transform="rotate(-2.83454 313.46 208.974)" fill="#373737"/>
<ellipse cx="35.5333" cy="40.7975" rx="35.5333" ry="40.7975" transform="matrix(-0.984259 -0.176733 -0.176733 0.984259 489.937 159.326)" fill="#EFEFEF"/>
<ellipse cx="11.1864" cy="15.7926" rx="11.1864" ry="15.7926" transform="matrix(-0.998776 -0.0494519 -0.0494519 0.998776 451.866 193.754)" fill="#373737"/>
<path d="M444.606 108.731C442.08 107.401 440.565 106.829 437.784 105.959C435.1 104.963 433.575 104.578 430.425 104.693C428.169 105.398 426.965 105.95 425.004 107.515C423.545 109.055 422.927 109.989 422.285 111.808C421.619 114.206 421.939 115.491 423.374 117.8C425.858 120.084 427.201 120.82 429.573 121.368C431.677 121.9 432.788 122.084 434.715 122.183C437.057 122.023 438.1 121.89 439.685 121.578C442.745 120.889 444.888 120.53 446.075 120.801L446.08 120.802C448.648 121.525 449.838 121.859 451.702 122.637C454.851 123.867 456.147 124.564 458.212 125.808L463.302 129.151L458.629 120.353C456.616 117.492 455.213 115.913 451.998 113.235C449.239 111.363 447.642 110.356 444.606 108.731Z" fill="#373737"/>
<path d="M446.075 120.801C444.888 120.53 442.745 120.889 439.685 121.578C438.1 121.89 437.057 122.023 434.715 122.183C432.788 122.084 431.677 121.9 429.573 121.368C427.201 120.82 425.858 120.084 423.374 117.8C421.939 115.491 421.619 114.206 422.285 111.808C422.927 109.989 423.545 109.055 425.004 107.515C426.965 105.95 428.169 105.398 430.425 104.693C433.575 104.578 435.1 104.963 437.784 105.959C440.565 106.829 442.08 107.401 444.606 108.731C447.642 110.356 449.239 111.363 451.998 113.235C455.213 115.913 456.616 117.492 458.629 120.353L463.302 129.151L458.212 125.808C456.147 124.564 454.851 123.867 451.702 122.637C449.838 121.859 448.648 121.525 446.08 120.802M446.075 120.801L446.08 120.802M446.075 120.801C446.077 120.801 446.079 120.802 446.08 120.802" stroke="#373737"/>
<path d="M309.61 108.757C312.115 107.388 313.621 106.794 316.389 105.882C319.057 104.845 320.576 104.436 323.728 104.504C325.994 105.174 327.207 105.708 329.191 107.243C330.673 108.761 331.305 109.685 331.975 111.495C332.678 113.882 332.377 115.171 330.977 117.502C328.529 119.824 327.197 120.58 324.834 121.164C322.737 121.728 321.63 121.929 319.704 122.057C317.36 121.932 316.315 121.816 314.725 121.528C311.655 120.885 309.508 120.559 308.325 120.847L308.319 120.849C305.762 121.61 304.578 121.963 302.726 122.769C299.595 124.047 298.31 124.764 296.265 126.038L291.226 129.458L295.765 120.591C297.734 117.699 299.113 116.099 302.287 113.373C305.017 111.459 306.599 110.428 309.61 108.757Z" fill="#373737"/>
<path d="M308.325 120.847C309.508 120.559 311.655 120.885 314.725 121.528C316.315 121.816 317.36 121.932 319.704 122.057C321.63 121.929 322.737 121.728 324.834 121.164C327.197 120.58 328.529 119.824 330.977 117.502C332.377 115.171 332.678 113.882 331.975 111.495C331.305 109.685 330.673 108.761 329.191 107.243C327.207 105.708 325.994 105.174 323.728 104.504C320.576 104.436 319.057 104.845 316.389 105.882C313.621 106.794 312.115 107.388 309.61 108.757C306.599 110.428 305.017 111.459 302.287 113.373C299.113 116.099 297.734 117.699 295.765 120.591L291.226 129.458L296.265 126.038C298.31 124.764 299.595 124.047 302.726 122.769C304.578 121.963 305.762 121.61 308.319 120.849M308.325 120.847L308.319 120.849M308.325 120.847C308.323 120.848 308.321 120.849 308.319 120.849" stroke="#373737"/>
<path d="M242.658 379.268C224.357 388.133 215.026 394.002 199.814 405.595C181.593 420.288 173.114 429.49 160.874 447.352C147.703 468.451 142.589 480.933 135.593 503.839C131.134 520.715 128.867 528.835 125.186 541.241C119.848 554.882 115.566 561.045 106.118 568.038C97.7451 573.393 91.9218 575.082 80.9644 577.431C78.7856 577.345 76.7919 577.212 74.9307 577.023C65.8992 576.106 59.9861 573.86 51.1693 569.14C40.1869 561.293 35.6257 556.314 29.4115 546.693C22.6901 536.412 20.7201 530.52 19.1031 519.919C18.9598 506.018 21.0399 499.513 27.5704 489.49C35.5037 479.434 40.4143 473.853 52.3436 464.281C68.0604 450.189 76.4242 442.196 90.5068 427.772C103.182 414.101 112.116 407.222 131.415 396.125C149.017 387.726 159.326 383.668 179.749 379.521C204.018 375.919 217.828 375.862 242.658 379.268Z" fill="#595BE4"/>
<path d="M263.435 623.204V544.241C267.423 508.464 271.861 489.948 286.466 464.621C304.557 444.126 315.942 437.692 337.134 429.745C364.799 422.049 381.875 423.357 413.465 429.745C432.876 438.742 442.109 446.603 456.236 464.621C471.543 492.358 477.338 509.68 481.899 544.241L484.531 621.23L263.435 623.204Z" fill="#696AF3"/>
<path d="M342.284 331.35C347.89 326.243 350.828 324.01 355.679 321.187C360.025 319.049 362.013 318.266 365.38 317.03C372.997 314.739 378.732 314.703 386.166 316.106C390.554 317.292 392.869 318.442 396.79 321.187C401.502 324.508 403.861 326.853 407.877 331.35C382.033 329.621 367.678 329.662 342.284 331.35Z" fill="#595BE4"/>
<path d="M350.894 423.4C336.983 423.221 332.693 423.53 331.295 425.761C329.744 428.418 330.574 429.565 332.004 431.641C339.071 437.675 344.287 438.937 355.058 441.456C352.459 434.798 351.622 430.847 350.894 423.4Z" fill="#373737" stroke="#373737"/>
<path d="M356.014 397.246C342.184 391.925 337.784 390.648 335.564 392.36C333.032 394.441 333.437 395.894 334.098 398.495C338.927 407.134 343.67 410.323 353.498 416.821C353.364 409.21 353.988 404.953 356.014 397.246Z" fill="#373737" stroke="#373737"/>
<path d="M362.066 387.819C348.986 375.609 345.275 371.506 345.962 368.19C346.885 364.342 348.677 364.015 351.851 363.359C363.783 364.042 369.751 367.51 381.997 374.752C373.66 378.625 369.367 381.55 362.066 387.819Z" fill="#373737" stroke="#373737"/>
<path d="M383.132 365.315C379.981 349.817 379.416 344.961 381.611 342.927C384.249 340.631 385.706 341.314 388.327 342.471C396.565 349.083 399.08 354.64 404.179 366.134C396.192 364.645 391.602 364.548 383.132 365.315Z" fill="#373737" stroke="#373737"/>
<path d="M433.192 373.707C440.891 357.259 443.693 352.393 447.109 352.02C451.114 351.707 451.99 353.335 453.615 356.195C456.687 367.93 455.205 374.776 452.042 388.865C445.695 382.026 441.528 378.796 433.192 373.707Z" fill="#373737" stroke="#373737"/>
<path d="M597.992 522.608C578.322 517.454 568.03 513.502 550.863 505.073C530.142 494.186 520.042 486.799 504.575 471.644C487.569 453.494 480.135 442.238 468.837 421.12C461.195 405.427 457.399 397.899 451.386 386.44C443.509 374.091 438.114 368.874 427.491 363.842C418.24 360.21 412.2 359.68 400.995 359.496C398.874 360.003 396.944 360.519 395.154 361.065C386.471 363.713 381.105 367.061 373.369 373.398C364.113 383.223 360.602 388.991 356.368 399.633C351.764 411.021 350.972 417.182 351.438 427.896C353.988 441.562 357.289 447.541 365.636 456.11C375.366 464.44 381.264 468.965 394.821 476.046C412.968 486.83 422.721 493.052 439.33 504.477C454.411 515.435 464.508 520.455 485.591 527.606C504.486 532.438 515.385 534.423 536.225 534.538C560.732 533.374 574.292 530.756 597.992 522.608Z" fill="#595BE4" stroke="#373737"/>
<path d="M381.547 282.166C384.812 292.06 387.065 297.838 391.663 307.443C393.198 309.658 394.041 310.756 395.213 309.795C400.791 301.44 403.075 296.436 406.866 287.404C397.645 283.918 392.066 282.596 381.547 282.166Z" fill="#EFEFEF"/>
<path d="M367.781 282.152C364.899 292.165 362.87 298.025 358.644 307.799C357.196 310.072 356.395 311.202 355.187 310.287C349.292 302.153 346.817 297.24 342.682 288.361C351.762 284.523 357.286 282.986 367.781 282.152Z" fill="#EFEFEF"/>
</svg>
