<svg width="1229" height="487" viewBox="0 0 1229 487" fill="none" xmlns="http://www.w3.org/2000/svg">
<rect x="562.574" y="28" width="665.834" height="101" rx="25" fill="#373737"/>
<path d="M559 165.768C588.805 163.876 603.907 153.78 629.258 126.896L584.242 108.537C586.72 134.383 581.621 147.074 559 165.768Z" fill="#373737"/>
<path d="M581.88 93.408C582.872 93.792 583.896 94 584.952 94.032C586.008 94.032 587.064 93.76 588.12 93.216C589.208 92.672 590.264 91.76 591.288 90.48L593.448 87.792L593.832 87.408L612.12 62.4H614.712L593.496 91.2C592.216 92.96 590.84 94.24 589.368 95.04C587.896 95.84 586.44 96.24 585 96.24C583.56 96.24 582.2 95.952 580.92 95.376L581.88 93.408ZM593.4 89.76L584.376 62.4H587.016L595.128 87.6L593.4 89.76ZM612.203 96L617.195 70.944H639.131L634.091 96H631.691L636.395 72.384L636.923 73.104H618.491L619.259 72.384L614.603 96H612.203ZM655.639 96.192C653.335 96.192 651.335 95.776 649.639 94.944C647.943 94.08 646.631 92.864 645.703 91.296C644.807 89.728 644.359 87.888 644.359 85.776C644.359 82.864 644.967 80.288 646.183 78.048C647.431 75.776 649.143 74 651.319 72.72C653.495 71.408 655.975 70.752 658.759 70.752C660.999 70.752 662.919 71.152 664.519 71.952C666.151 72.72 667.399 73.888 668.263 75.456L666.295 76.656C665.527 75.376 664.503 74.432 663.223 73.824C661.943 73.216 660.407 72.912 658.615 72.912C656.311 72.912 654.263 73.472 652.471 74.592C650.711 75.68 649.319 77.184 648.295 79.104C647.271 81.024 646.759 83.2 646.759 85.632C646.759 88.288 647.543 90.352 649.111 91.824C650.679 93.296 652.919 94.032 655.831 94.032C657.495 94.032 659.047 93.728 660.487 93.12C661.959 92.48 663.175 91.568 664.135 90.384L665.815 91.728C664.727 93.136 663.271 94.24 661.447 95.04C659.655 95.808 657.719 96.192 655.639 96.192ZM672.576 96.192C672.064 96.192 671.6 96 671.184 95.616C670.8 95.232 670.608 94.768 670.608 94.224C670.608 93.616 670.816 93.12 671.232 92.736C671.68 92.32 672.176 92.112 672.72 92.112C673.264 92.112 673.728 92.304 674.112 92.688C674.496 93.04 674.688 93.504 674.688 94.08C674.688 94.496 674.592 94.864 674.4 95.184C674.208 95.504 673.952 95.76 673.632 95.952C673.312 96.112 672.96 96.192 672.576 96.192ZM682.186 96.192C681.674 96.192 681.21 96 680.794 95.616C680.41 95.232 680.218 94.768 680.218 94.224C680.218 93.616 680.426 93.12 680.842 92.736C681.29 92.32 681.786 92.112 682.33 92.112C682.874 92.112 683.338 92.304 683.722 92.688C684.106 93.04 684.298 93.504 684.298 94.08C684.298 94.496 684.202 94.864 684.01 95.184C683.818 95.504 683.562 95.76 683.242 95.952C682.922 96.112 682.57 96.192 682.186 96.192ZM691.795 96.192C691.283 96.192 690.819 96 690.403 95.616C690.019 95.232 689.827 94.768 689.827 94.224C689.827 93.616 690.035 93.12 690.451 92.736C690.899 92.32 691.395 92.112 691.939 92.112C692.483 92.112 692.947 92.304 693.331 92.688C693.715 93.04 693.907 93.504 693.907 94.08C693.907 94.496 693.811 94.864 693.619 95.184C693.427 95.504 693.171 95.76 692.851 95.952C692.531 96.112 692.179 96.192 691.795 96.192ZM731.877 85.152C730.181 85.856 728.517 86.384 726.885 86.736C725.253 87.088 723.733 87.264 722.325 87.264C719.445 87.264 717.253 86.592 715.749 85.248C714.277 83.872 713.813 81.856 714.357 79.2L715.989 70.944H718.389L716.757 79.248C716.373 81.264 716.725 82.768 717.813 83.76C718.933 84.752 720.581 85.248 722.757 85.248C724.133 85.248 725.605 85.072 727.173 84.72C728.773 84.336 730.421 83.792 732.117 83.088L731.877 85.152ZM729.381 96L734.421 70.944H736.821L731.781 96H729.381ZM746.654 96L751.31 72.384L751.886 73.104H741.47L741.902 70.944H763.838L763.406 73.104H752.942L753.71 72.384L749.054 96H746.654ZM773.853 96.192C771.613 96.192 769.661 95.776 767.997 94.944C766.333 94.08 765.037 92.864 764.109 91.296C763.213 89.728 762.765 87.888 762.765 85.776C762.765 82.896 763.373 80.336 764.589 78.096C765.837 75.824 767.533 74.032 769.677 72.72C771.853 71.408 774.333 70.752 777.117 70.752C779.389 70.752 781.341 71.184 782.973 72.048C784.637 72.88 785.917 74.08 786.813 75.648C787.741 77.184 788.205 79.024 788.205 81.168C788.205 84.048 787.581 86.624 786.333 88.896C785.117 91.136 783.421 92.912 781.245 94.224C779.101 95.536 776.637 96.192 773.853 96.192ZM774.045 94.032C776.317 94.032 778.333 93.488 780.093 92.4C781.853 91.312 783.245 89.808 784.269 87.888C785.293 85.936 785.805 83.744 785.805 81.312C785.805 78.624 785.021 76.56 783.453 75.12C781.917 73.648 779.741 72.912 776.925 72.912C774.685 72.912 772.669 73.472 770.877 74.592C769.117 75.68 767.725 77.184 766.701 79.104C765.677 81.024 765.165 83.2 765.165 85.632C765.165 88.288 765.933 90.352 767.469 91.824C769.037 93.296 771.229 94.032 774.045 94.032ZM794.129 84.192L794.561 82.032H806.897L806.465 84.192H794.129ZM815.561 96L820.217 72.384L820.793 73.104H810.377L810.809 70.944H832.745L832.312 73.104H821.849L822.617 72.384L817.961 96H815.561ZM842.759 96.192C840.519 96.192 838.567 95.776 836.903 94.944C835.239 94.08 833.943 92.864 833.015 91.296C832.119 89.728 831.671 87.888 831.671 85.776C831.671 82.896 832.279 80.336 833.495 78.096C834.743 75.824 836.439 74.032 838.583 72.72C840.759 71.408 843.239 70.752 846.023 70.752C848.295 70.752 850.247 71.184 851.879 72.048C853.543 72.88 854.823 74.08 855.719 75.648C856.647 77.184 857.111 79.024 857.111 81.168C857.111 84.048 856.487 86.624 855.239 88.896C854.023 91.136 852.327 92.912 850.151 94.224C848.007 95.536 845.543 96.192 842.759 96.192ZM842.951 94.032C845.223 94.032 847.239 93.488 848.999 92.4C850.759 91.312 852.151 89.808 853.175 87.888C854.199 85.936 854.711 83.744 854.711 81.312C854.711 78.624 853.927 76.56 852.359 75.12C850.823 73.648 848.647 72.912 845.831 72.912C843.591 72.912 841.575 73.472 839.783 74.592C838.023 75.68 836.631 77.184 835.607 79.104C834.583 81.024 834.071 83.2 834.071 85.632C834.071 88.288 834.839 90.352 836.375 91.824C837.943 93.296 840.135 94.032 842.951 94.032ZM874.703 96L879.695 70.944H901.631L896.591 96H894.191L898.895 72.384L899.423 73.104H880.991L881.759 72.384L877.103 96H874.703ZM917.947 96.192C915.707 96.192 913.755 95.776 912.091 94.944C910.427 94.08 909.131 92.864 908.203 91.296C907.307 89.728 906.859 87.888 906.859 85.776C906.859 82.896 907.467 80.336 908.683 78.096C909.931 75.824 911.627 74.032 913.771 72.72C915.947 71.408 918.427 70.752 921.211 70.752C923.483 70.752 925.435 71.184 927.067 72.048C928.731 72.88 930.011 74.08 930.907 75.648C931.835 77.184 932.299 79.024 932.299 81.168C932.299 84.048 931.675 86.624 930.427 88.896C929.211 91.136 927.515 92.912 925.339 94.224C923.195 95.536 920.731 96.192 917.947 96.192ZM918.139 94.032C920.411 94.032 922.427 93.488 924.187 92.4C925.947 91.312 927.339 89.808 928.363 87.888C929.387 85.936 929.899 83.744 929.899 81.312C929.899 78.624 929.115 76.56 927.547 75.12C926.011 73.648 923.835 72.912 921.019 72.912C918.779 72.912 916.763 73.472 914.971 74.592C913.211 75.68 911.819 77.184 910.795 79.104C909.771 81.024 909.259 83.2 909.259 85.632C909.259 88.288 910.027 90.352 911.563 91.824C913.131 93.296 915.323 94.032 918.139 94.032ZM954.266 93.888L953.594 94.608L958.25 70.944H960.65L955.994 94.608L955.418 93.888H970.01L969.194 94.608L973.898 70.944H976.298L971.258 96H937.562L942.554 70.944H944.954L940.298 94.608L939.722 93.888H954.266ZM976.729 95.904L977.305 93.84C977.561 93.872 977.785 93.92 977.977 93.984C978.169 94.016 978.329 94.032 978.457 94.032C979.61 94.032 980.634 93.52 981.53 92.496C982.426 91.44 983.274 89.84 984.074 87.696C984.874 85.552 985.69 82.816 986.522 79.488L988.682 70.944H1006.3L1001.26 96H998.858L1003.56 72.288L1004.14 73.056H989.786L990.554 72.288L988.682 79.824C987.978 82.672 987.274 85.136 986.57 87.216C985.866 89.264 985.114 90.96 984.314 92.304C983.546 93.648 982.714 94.64 981.818 95.28C980.954 95.92 979.961 96.24 978.841 96.24C978.489 96.24 978.153 96.208 977.833 96.144C977.513 96.112 977.145 96.032 976.729 95.904ZM1022.62 96.192C1020.38 96.192 1018.43 95.776 1016.76 94.944C1015.1 94.08 1013.8 92.864 1012.87 91.296C1011.98 89.728 1011.53 87.888 1011.53 85.776C1011.53 82.896 1012.14 80.336 1013.35 78.096C1014.6 75.824 1016.3 74.032 1018.44 72.72C1020.62 71.408 1023.1 70.752 1025.88 70.752C1028.15 70.752 1030.11 71.184 1031.74 72.048C1033.4 72.88 1034.68 74.08 1035.58 75.648C1036.51 77.184 1036.97 79.024 1036.97 81.168C1036.97 84.048 1036.35 86.624 1035.1 88.896C1033.88 91.136 1032.19 92.912 1030.01 94.224C1027.87 95.536 1025.4 96.192 1022.62 96.192ZM1022.81 94.032C1025.08 94.032 1027.1 93.488 1028.86 92.4C1030.62 91.312 1032.01 89.808 1033.03 87.888C1034.06 85.936 1034.57 83.744 1034.57 81.312C1034.57 78.624 1033.79 76.56 1032.22 75.12C1030.68 73.648 1028.51 72.912 1025.69 72.912C1023.45 72.912 1021.43 73.472 1019.64 74.592C1017.88 75.68 1016.49 77.184 1015.47 79.104C1014.44 81.024 1013.93 83.2 1013.93 85.632C1013.93 88.288 1014.7 90.352 1016.23 91.824C1017.8 93.296 1019.99 94.032 1022.81 94.032ZM1054.56 96L1059.55 70.944H1061.95L1059.65 82.368H1076.69L1078.99 70.944H1081.39L1076.35 96H1073.95L1076.31 84.48H1059.27L1056.96 96H1054.56ZM1098.1 96.192C1095.76 96.192 1093.73 95.776 1092 94.944C1090.27 94.08 1088.94 92.864 1088.02 91.296C1087.12 89.728 1086.67 87.856 1086.67 85.68C1086.67 82.832 1087.26 80.288 1088.45 78.048C1089.66 75.808 1091.3 74.032 1093.34 72.72C1095.42 71.408 1097.76 70.752 1100.35 70.752C1102.56 70.752 1104.45 71.168 1106.02 72C1107.58 72.832 1108.8 74.032 1109.66 75.6C1110.56 77.136 1111.01 79.008 1111.01 81.216C1111.01 81.696 1110.98 82.176 1110.91 82.656C1110.85 83.136 1110.78 83.584 1110.72 84H1088.5L1088.83 82.128H1109.57L1108.61 82.944C1108.96 80.736 1108.82 78.896 1108.18 77.424C1107.54 75.92 1106.53 74.784 1105.15 74.016C1103.81 73.216 1102.19 72.816 1100.3 72.816C1098.13 72.816 1096.18 73.376 1094.45 74.496C1092.75 75.584 1091.42 77.088 1090.46 79.008C1089.5 80.896 1089.02 83.088 1089.02 85.584C1089.02 88.304 1089.81 90.4 1091.38 91.872C1092.94 93.312 1095.25 94.032 1098.29 94.032C1100.08 94.032 1101.71 93.744 1103.18 93.168C1104.69 92.56 1105.92 91.728 1106.88 90.672L1107.98 92.352C1106.9 93.536 1105.47 94.48 1103.71 95.184C1101.98 95.856 1100.11 96.192 1098.1 96.192ZM1133.51 96L1138.17 72.384L1138.75 73.104H1128.33L1128.76 70.944H1150.7L1150.27 73.104H1139.8L1140.57 72.384L1135.91 96H1133.51ZM1160.42 96.192C1158.28 96.192 1156.39 95.776 1154.76 94.944C1153.13 94.112 1151.86 92.912 1150.97 91.344C1150.07 89.776 1149.62 87.92 1149.62 85.776C1149.62 83.6 1149.96 81.6 1150.63 79.776C1151.34 77.952 1152.33 76.368 1153.61 75.024C1154.89 73.68 1156.39 72.64 1158.12 71.904C1159.85 71.136 1161.74 70.752 1163.78 70.752C1165.99 70.752 1167.86 71.152 1169.4 71.952C1170.94 72.72 1172.1 73.856 1172.9 75.36C1173.74 76.832 1174.15 78.624 1174.15 80.736C1174.18 83.712 1173.62 86.368 1172.47 88.704C1171.35 91.04 1169.75 92.88 1167.67 94.224C1165.62 95.536 1163.21 96.192 1160.42 96.192ZM1160.9 94.032C1163.18 94.032 1165.19 93.488 1166.95 92.4C1168.71 91.312 1170.1 89.808 1171.13 87.888C1172.15 85.936 1172.66 83.744 1172.66 81.312C1172.66 78.624 1171.88 76.56 1170.31 75.12C1168.78 73.648 1166.6 72.912 1163.78 72.912C1161.54 72.912 1159.53 73.472 1157.74 74.592C1155.98 75.68 1154.58 77.184 1153.56 79.104C1152.54 81.024 1152.02 83.2 1152.02 85.632C1152.02 88.288 1152.79 90.352 1154.33 91.824C1155.9 93.296 1158.09 94.032 1160.9 94.032ZM1170.02 96L1171.56 88.176L1172.95 83.808L1173.29 79.2L1174.92 70.944H1177.32L1172.33 96H1170.02ZM1201.2 96L1192.99 83.424L1195.01 82.512L1203.94 96H1201.2ZM1182.67 96L1187.71 70.944H1190.11L1185.07 96H1182.67ZM1186.66 84.384L1187.04 82.32H1194.91L1194.53 84.384H1186.66ZM1195.06 83.712L1192.7 83.328L1205.52 70.944H1208.35L1195.06 83.712Z" fill="#EFEFEF"/>
<path d="M120.07 240.716H487.162V480.773C487.162 492.923 477.312 502.773 465.162 502.773H142.07C129.92 502.773 120.07 492.923 120.07 480.773V240.716Z" fill="#595BE4"/>
<path d="M460.855 3.06068C474.369 37.2375 468.671 60.698 445.462 106.761L395.92 69.4047C432.748 54.7644 447.416 40.6024 460.855 3.06068Z" fill="#595BE4" stroke="#595BE4"/>
<path d="M146.011 2.00013C132.497 36.177 138.195 59.6374 161.404 105.7L210.946 68.3442C174.118 53.7038 159.449 39.5418 146.011 2.00013Z" fill="#595BE4" stroke="#595BE4"/>
<ellipse cx="303.616" cy="229.045" rx="183.546" ry="199.46" fill="#595BE4"/>
<path d="M407.06 64.0665C406.162 95.2065 416.306 102.699 446.846 104.383M415.017 60.3532C415.09 87.8721 425.412 93.301 450.559 96.4258M422.974 56.1093C424.726 78.6954 432.261 84.9695 454.803 87.4076M429.34 51.8655C433.557 71.7442 440.799 76.9057 457.986 79.9809M434.645 47.0912C440.222 64.3996 446.188 69.6078 461.169 72.0237M439.419 42.3169C446.046 57.3861 451.208 62.6385 463.29 65.658M443.132 37.5426C450.376 51.0869 455.202 55.9066 465.412 58.7617M446.846 32.7683C452.069 43.1048 456.589 47.0457 467.004 51.335M449.498 27.9939C454.877 37.4018 459.324 39.9145 468.065 42.8474M452.15 23.2196C457.192 30.8986 460.98 32.6418 468.065 34.8902M454.272 19.5063C458.339 24.285 461.483 25.3406 467.534 26.4025M456.394 14.2015C460.011 17.4825 462.097 18.2484 465.943 17.3844M458.516 8.36621C460.262 11.2638 461.499 11.9853 464.351 11.0186" stroke="#373737"/>
<path d="M200.173 64.0665C201.07 95.2065 190.926 102.699 160.387 104.383M192.216 60.3532C192.143 87.8721 181.821 93.301 156.673 96.4258M184.258 56.1093C182.506 78.6954 174.971 84.9695 152.43 87.4076M177.893 51.8655C173.675 71.7442 166.434 76.9057 149.247 79.9809M172.588 47.0912C167.011 64.3996 161.045 69.6078 146.064 72.0237M167.813 42.3169C161.187 57.3861 156.024 62.6385 143.942 65.658M164.1 37.5426C156.857 51.0869 152.03 55.9066 141.82 58.7617M160.387 32.7683C155.164 43.1048 150.643 47.0457 140.229 51.335M157.734 27.9939C152.356 37.4018 147.908 39.9145 139.168 42.8474M155.082 23.2196C150.04 30.8986 146.252 32.6418 139.168 34.8902M152.96 19.5063C148.894 24.285 145.749 25.3406 139.698 26.4025M150.838 14.2015C147.221 17.4825 145.135 18.2484 141.29 17.3844M148.716 8.36621C146.971 11.2638 145.733 11.9853 142.881 11.0186" stroke="#373737"/>
<path d="M120.07 240.716H487.162V480.773C487.162 492.923 477.312 502.773 465.162 502.773H142.07C129.92 502.773 120.07 492.923 120.07 480.773V240.716Z" fill="#595BE4"/>
<path d="M372.578 217.481C377.013 216.333 379.203 216.159 382.657 216.42C386.258 217.062 386.968 217.913 387.432 220.134C387.881 223.41 387.738 225.423 386.901 229.152" stroke="#373737"/>
<path d="M230.661 217.481C226.226 216.333 224.036 216.159 220.582 216.42C216.981 217.062 216.271 217.913 215.807 220.134C215.358 223.41 215.501 225.423 216.338 229.152" stroke="#373737"/>
<path d="M268.074 294.923C279.6 302.487 286.269 305.954 299.372 307.654C314.147 307.435 321.298 304.97 332.262 297.045C343.562 288.088 349.258 282.1 358.256 271.051C365.927 260.568 369.661 254.284 375.231 242.405C377.674 236.826 378.944 231.792 379.475 228.082C380.005 224.373 378.822 221.555 374.701 223.308C374.701 223.308 370.534 225.546 367.274 227.552L367.031 227.702C363.912 229.621 361.915 230.849 358.256 232.857C349.213 237.091 343.837 238.769 333.854 240.814C308.409 244.149 294.495 243.983 270.196 241.344C258.137 239.182 251.753 237.638 242.611 232.857C238.431 231 236.349 229.61 233.063 227.552L227.227 223.308C223.494 221.482 222.978 223.812 222.983 228.082C224.109 234.347 225.099 237.39 227.227 242.405C231.847 253.294 236.18 259.662 244.203 271.051C252.202 281.09 257.393 286.387 268.074 294.923Z" fill="#373737"/>
<path d="M367.274 227.552C370.534 225.546 374.7 223.308 374.7 223.308C378.822 221.555 380.005 224.373 379.475 228.082C378.944 231.792 377.674 236.826 375.231 242.405C369.661 254.284 365.927 260.568 358.256 271.051C349.258 282.1 343.562 288.088 332.262 297.045C321.298 304.97 314.147 307.435 299.372 307.654C286.269 305.954 279.6 302.487 268.074 294.923C257.393 286.387 252.202 281.09 244.203 271.051C236.18 259.662 231.847 253.294 227.227 242.405C225.099 237.39 224.109 234.347 222.983 228.082C222.978 223.812 223.494 221.482 227.227 223.308L233.063 227.552C236.349 229.61 238.431 231 242.611 232.857C251.753 237.638 258.137 239.182 270.196 241.344C294.495 243.983 308.409 244.149 333.854 240.814C343.837 238.769 349.213 237.091 358.256 232.857C361.915 230.849 363.912 229.621 367.031 227.702M367.274 227.552L367.031 227.702M367.274 227.552C367.192 227.602 367.111 227.652 367.031 227.702" stroke="#373737"/>
<path d="M295.13 245.597C291.509 254.573 289.53 259.929 285.578 266.814C282.454 269.831 276.672 253.238 270.728 243.471C279.933 244.906 285.247 245.427 295.13 245.597Z" fill="#EFEFEF" stroke="#EFEFEF"/>
<path d="M308.665 245.395C312.523 254.271 314.644 259.573 318.778 266.351C321.981 269.284 327.319 252.542 333.002 242.621C323.838 244.301 318.54 244.962 308.665 245.395Z" fill="#EFEFEF" stroke="#EFEFEF"/>
<path d="M270.727 294.853C281.117 301.481 287.186 304.736 300.433 305.993C313.915 305.587 320.461 303.325 330.671 296.445C321.772 287.046 315.19 284.301 300.433 284.244C285.122 283.911 278.839 286.523 270.727 294.853Z" fill="#595BE4" stroke="#595BE4"/>
<ellipse cx="246.381" cy="156.14" rx="28.6459" ry="32.8897" transform="rotate(-10.1795 246.381 156.14)" fill="#EFEFEF"/>
<ellipse cx="252.702" cy="168.857" rx="9.01815" ry="12.7315" transform="rotate(-2.83454 252.702 168.857)" fill="#373737"/>
<ellipse cx="28.6459" cy="32.8897" rx="28.6459" ry="32.8897" transform="matrix(-0.984259 -0.176733 -0.176733 0.984259 394.973 128.831)" fill="#EFEFEF"/>
<ellipse cx="9.01815" cy="12.7315" rx="9.01815" ry="12.7315" transform="matrix(-0.998776 -0.0494519 -0.0494519 0.998776 364.281 156.587)" fill="#373737"/>
<path d="M460.855 3.06068C474.369 37.2375 468.671 60.698 445.462 106.761L395.92 69.4047C432.748 54.7644 447.416 40.6024 460.855 3.06068Z" fill="#595BE4" stroke="#595BE4"/>
<path d="M146.011 2.00013C132.497 36.177 138.195 59.6374 161.404 105.7L210.946 68.3442C174.118 53.7038 159.449 39.5418 146.011 2.00013Z" fill="#595BE4" stroke="#595BE4"/>
<ellipse cx="303.616" cy="229.045" rx="183.546" ry="199.46" fill="#595BE4"/>
<path d="M407.06 64.0665C406.162 95.2065 416.306 102.699 446.846 104.383M415.017 60.3532C415.09 87.8721 425.412 93.301 450.559 96.4258M422.974 56.1093C424.726 78.6954 432.261 84.9695 454.803 87.4076M429.34 51.8655C433.557 71.7442 440.799 76.9057 457.986 79.9809M434.645 47.0912C440.222 64.3996 446.188 69.6078 461.169 72.0237M439.419 42.3169C446.046 57.3861 451.208 62.6385 463.29 65.658M443.132 37.5426C450.376 51.0869 455.202 55.9066 465.412 58.7617M446.846 32.7683C452.069 43.1048 456.589 47.0457 467.004 51.335M449.498 27.9939C454.877 37.4018 459.324 39.9145 468.065 42.8474M452.15 23.2196C457.192 30.8986 460.98 32.6418 468.065 34.8902M454.272 19.5063C458.339 24.285 461.483 25.3406 467.534 26.4025M456.394 14.2015C460.011 17.4825 462.097 18.2484 465.943 17.3844M458.516 8.36621C460.262 11.2638 461.499 11.9853 464.351 11.0186" stroke="#373737"/>
<path d="M200.173 64.0665C201.07 95.2065 190.926 102.699 160.387 104.383M192.216 60.3532C192.143 87.8721 181.821 93.301 156.673 96.4258M184.258 56.1093C182.506 78.6954 174.971 84.9695 152.43 87.4076M177.893 51.8655C173.675 71.7442 166.434 76.9057 149.247 79.9809M172.588 47.0912C167.011 64.3996 161.045 69.6078 146.064 72.0237M167.813 42.3169C161.187 57.3861 156.024 62.6385 143.942 65.658M164.1 37.5426C156.857 51.0869 152.03 55.9066 141.82 58.7617M160.387 32.7683C155.164 43.1048 150.643 47.0457 140.229 51.335M157.734 27.9939C152.356 37.4018 147.908 39.9145 139.168 42.8474M155.082 23.2196C150.04 30.8986 146.252 32.6418 139.168 34.8902M152.96 19.5063C148.894 24.285 145.749 25.3406 139.698 26.4025M150.838 14.2015C147.221 17.4825 145.135 18.2484 141.29 17.3844M148.716 8.36621C146.971 11.2638 145.733 11.9853 142.881 11.0186" stroke="#373737"/>
<path d="M120.07 240.716H487.162V480.773C487.162 492.923 477.312 502.773 465.162 502.773H142.07C129.92 502.773 120.07 492.923 120.07 480.773V240.716Z" fill="#595BE4"/>
<path d="M372.578 217.481C377.013 216.333 379.203 216.159 382.657 216.42C386.258 217.062 386.968 217.913 387.432 220.134C387.881 223.41 387.738 225.423 386.901 229.152" stroke="#373737"/>
<path d="M230.661 217.481C226.226 216.333 224.036 216.159 220.582 216.42C216.981 217.062 216.271 217.913 215.807 220.134C215.358 223.41 215.501 225.423 216.338 229.152" stroke="#373737"/>
<path d="M268.074 294.923C279.6 302.487 286.269 305.954 299.372 307.654C314.147 307.435 321.298 304.97 332.262 297.045C343.562 288.088 349.258 282.1 358.256 271.051C365.927 260.568 369.661 254.284 375.231 242.405C377.674 236.826 378.944 231.792 379.475 228.082C380.005 224.373 378.822 221.555 374.701 223.308C374.701 223.308 370.534 225.546 367.274 227.552L367.031 227.702C363.912 229.621 361.915 230.849 358.256 232.857C349.213 237.091 343.837 238.769 333.854 240.814C308.409 244.149 294.495 243.983 270.196 241.344C258.137 239.182 251.753 237.638 242.611 232.857C238.431 231 236.349 229.61 233.063 227.552L227.227 223.308C223.494 221.482 222.978 223.812 222.983 228.082C224.109 234.347 225.099 237.39 227.227 242.405C231.847 253.294 236.18 259.662 244.203 271.051C252.202 281.09 257.393 286.387 268.074 294.923Z" fill="#373737"/>
<path d="M367.274 227.552C370.534 225.546 374.7 223.308 374.7 223.308C378.822 221.555 380.005 224.373 379.475 228.082C378.944 231.792 377.674 236.826 375.231 242.405C369.661 254.284 365.927 260.568 358.256 271.051C349.258 282.1 343.562 288.088 332.262 297.045C321.298 304.97 314.147 307.435 299.372 307.654C286.269 305.954 279.6 302.487 268.074 294.923C257.393 286.387 252.202 281.09 244.203 271.051C236.18 259.662 231.847 253.294 227.227 242.405C225.099 237.39 224.109 234.347 222.983 228.082C222.978 223.812 223.494 221.482 227.227 223.308L233.063 227.552C236.349 229.61 238.431 231 242.611 232.857C251.753 237.638 258.137 239.182 270.196 241.344C294.495 243.983 308.409 244.149 333.854 240.814C343.837 238.769 349.213 237.091 358.256 232.857C361.915 230.849 363.912 229.621 367.031 227.702M367.274 227.552L367.031 227.702M367.274 227.552C367.192 227.602 367.111 227.652 367.031 227.702" stroke="#373737"/>
<path d="M295.13 245.597C291.509 254.573 289.53 259.929 285.578 266.814C282.454 269.831 276.672 253.238 270.728 243.471C279.933 244.906 285.247 245.427 295.13 245.597Z" fill="#EFEFEF" stroke="#EFEFEF"/>
<path d="M308.665 245.395C312.523 254.271 314.644 259.573 318.778 266.351C321.981 269.284 327.319 252.542 333.002 242.621C323.838 244.301 318.54 244.962 308.665 245.395Z" fill="#EFEFEF" stroke="#EFEFEF"/>
<path d="M270.727 294.853C281.117 301.481 287.186 304.736 300.433 305.993C313.915 305.587 320.461 303.325 330.671 296.445C321.772 287.046 315.19 284.301 300.433 284.244C285.122 283.911 278.839 286.523 270.727 294.853Z" fill="#595BE4" stroke="#595BE4"/>
<ellipse cx="28.6459" cy="32.8897" rx="28.6459" ry="32.8897" transform="matrix(-0.984259 -0.176733 -0.176733 0.984259 280.389 128.831)" fill="#EFEFEF"/>
<ellipse cx="252.702" cy="168.857" rx="9.01815" ry="12.7315" transform="rotate(-2.83454 252.702 168.857)" fill="#373737"/>
<ellipse cx="28.6459" cy="32.8897" rx="28.6459" ry="32.8897" transform="matrix(-0.984259 -0.176733 -0.176733 0.984259 394.973 128.831)" fill="#EFEFEF"/>
<ellipse cx="9.01815" cy="12.7315" rx="9.01815" ry="12.7315" transform="matrix(-0.998776 -0.0494519 -0.0494519 0.998776 364.281 156.587)" fill="#373737"/>
<path d="M356.479 87.9724C354.259 87.3655 352.967 87.1796 350.626 86.9797C348.34 86.6638 347.073 86.6259 344.613 87.2662C342.96 88.2136 342.109 88.8581 340.839 90.4317C339.959 91.8987 339.635 92.7414 339.446 94.2854C339.34 96.2883 339.816 97.2438 341.348 98.8114C343.701 100.177 344.887 100.521 346.849 100.54C348.599 100.591 349.504 100.542 351.039 100.285C352.854 99.75 353.652 99.4642 354.845 98.9423C357.134 97.8661 358.757 97.2104 359.739 97.2162L359.744 97.2165C361.891 97.3374 362.885 97.3934 364.488 97.681C367.182 98.1002 368.323 98.423 370.165 99.0416L374.754 100.786L369.542 94.6757C367.459 92.7745 366.08 91.7765 363.083 90.2287C360.585 89.2364 359.152 88.7224 356.479 87.9724Z" fill="#373737"/>
<path d="M359.739 97.2162C358.757 97.2104 357.134 97.8661 354.845 98.9423C353.652 99.4642 352.854 99.75 351.039 100.285C349.504 100.542 348.599 100.591 346.849 100.54C344.887 100.521 343.701 100.177 341.348 98.8114C339.816 97.2438 339.34 96.2883 339.446 94.2854C339.635 92.7414 339.959 91.8987 340.839 90.4317C342.109 88.8581 342.96 88.2136 344.613 87.2662C347.073 86.6259 348.34 86.6638 350.626 86.9797C352.967 87.1796 354.259 87.3655 356.479 87.9724C359.152 88.7224 360.585 89.2364 363.083 90.2287C366.08 91.7765 367.459 92.7745 369.542 94.6757L374.754 100.786L370.165 99.0416C368.323 98.423 367.182 98.1002 364.488 97.681C362.885 97.3934 361.891 97.3374 359.744 97.2165M359.739 97.2162L359.744 97.2165M359.739 97.2162C359.741 97.2163 359.742 97.2164 359.744 97.2165" stroke="#373737"/>
<path d="M251.682 87.9724C253.902 87.3655 255.194 87.1796 257.535 86.9797C259.821 86.6638 261.088 86.6259 263.548 87.2662C265.201 88.2136 266.052 88.8581 267.323 90.4317C268.203 91.8987 268.526 92.7414 268.715 94.2854C268.821 96.2883 268.345 97.2438 266.813 98.8114C264.46 100.177 263.275 100.521 261.312 100.54C259.563 100.591 258.657 100.542 257.122 100.285C255.307 99.75 254.509 99.4642 253.316 98.9423C251.027 97.8661 249.404 97.2104 248.422 97.2162L248.417 97.2165C246.27 97.3374 245.276 97.3934 243.673 97.681C240.979 98.1002 239.838 98.423 237.996 99.0416L233.407 100.786L238.619 94.6757C240.702 92.7745 242.082 91.7765 245.078 90.2287C247.577 89.2364 249.009 88.7224 251.682 87.9724Z" fill="#373737"/>
<path d="M248.422 97.2162C249.404 97.2104 251.027 97.8661 253.316 98.9423C254.509 99.4642 255.307 99.75 257.122 100.285C258.657 100.542 259.563 100.591 261.312 100.54C263.275 100.521 264.46 100.177 266.813 98.8114C268.345 97.2438 268.821 96.2883 268.715 94.2854C268.526 92.7414 268.203 91.8987 267.323 90.4317C266.052 88.8581 265.201 88.2136 263.548 87.2662C261.088 86.6259 259.821 86.6638 257.535 86.9797C255.194 87.1796 253.902 87.3655 251.682 87.9724C249.009 88.7224 247.577 89.2364 245.078 90.2287C242.082 91.7765 240.702 92.7745 238.619 94.6757L233.407 100.786L237.996 99.0416C239.838 98.423 240.979 98.1002 243.673 97.681C245.276 97.3934 246.27 97.3374 248.417 97.2165M248.422 97.2162L248.417 97.2165M248.422 97.2162C248.421 97.2163 248.419 97.2164 248.417 97.2165" stroke="#373737"/>
<path d="M212.374 502.796V439.139C215.588 410.296 219.166 395.369 230.941 374.951C245.525 358.429 254.703 353.242 271.787 346.836C294.09 340.631 307.856 341.685 333.323 346.836C348.972 354.088 356.415 360.426 367.804 374.951C380.144 397.312 384.815 411.277 388.493 439.139L390.615 501.205L212.374 502.796Z" fill="#696AF3"/>
<path d="M17.9062 422.088C6.93133 424.401 3.49 424.826 2.03653 423.28C0.394855 421.42 0.872287 420.383 1.67909 418.519C6.327 412.644 10.2553 410.831 18.3812 407.158C17.3652 412.829 17.3199 416.085 17.9062 422.088Z" fill="#373737"/>
<path d="M25.8746 441.611C15.7666 447.978 12.4863 449.675 10.4628 448.667C8.13558 447.417 8.22918 446.204 8.34596 444.044C10.817 436.457 14.0711 433.195 20.8301 426.521C21.9118 432.562 23.0699 435.831 25.8746 441.611Z" fill="#373737"/>
<path d="M30.0611 449.569C21.6212 461.267 19.3269 465.092 20.3877 467.607C21.7183 470.506 23.1865 470.486 25.7991 470.509C35.13 468.107 39.3084 464.433 47.8639 456.793C40.6655 455.031 36.8139 453.388 30.0611 449.569Z" fill="#373737"/>
<path d="M51.2044 462.889C51.1312 475.638 51.4417 479.567 53.4954 480.833C55.9404 482.237 56.9864 481.469 58.8787 480.146C64.362 473.63 65.4846 468.843 67.7234 458.956C61.6387 461.38 58.0235 462.173 51.2044 462.889Z" fill="#373737" stroke="black"/>
<path d="M88.5185 449.63C97.1751 461.438 100.15 464.849 102.911 464.611C106.126 464.233 106.565 462.809 107.405 460.294C108.003 450.533 105.762 445.349 101.061 434.7C97.109 441.099 94.3174 444.304 88.5185 449.63Z" fill="#373737"/>
<path d="M460.855 3.06068C474.369 37.2375 468.671 60.698 445.462 106.761L395.92 69.4047C432.748 54.7644 447.416 40.6024 460.855 3.06068Z" fill="#595BE4" stroke="#595BE4"/>
<path d="M146.011 2.00013C132.497 36.177 138.195 59.6374 161.404 105.7L210.946 68.3442C174.118 53.7038 159.449 39.5418 146.011 2.00013Z" fill="#595BE4" stroke="#595BE4"/>
<ellipse cx="303.616" cy="229.045" rx="183.546" ry="199.46" fill="#595BE4"/>
<path d="M407.06 64.0665C406.162 95.2065 416.306 102.699 446.846 104.383M415.017 60.3532C415.09 87.8721 425.412 93.301 450.559 96.4258M422.974 56.1093C424.726 78.6954 432.261 84.9695 454.803 87.4076M429.34 51.8655C433.557 71.7442 440.799 76.9057 457.986 79.9809M434.645 47.0912C440.222 64.3996 446.188 69.6078 461.169 72.0237M439.419 42.3169C446.046 57.3861 451.208 62.6385 463.29 65.658M443.132 37.5426C450.376 51.0869 455.202 55.9066 465.412 58.7617M446.846 32.7683C452.069 43.1048 456.589 47.0457 467.004 51.335M449.498 27.9939C454.877 37.4018 459.324 39.9145 468.065 42.8474M452.15 23.2196C457.192 30.8986 460.98 32.6418 468.065 34.8902M454.272 19.5063C458.339 24.285 461.483 25.3406 467.534 26.4025M456.394 14.2015C460.011 17.4825 462.097 18.2484 465.943 17.3844M458.516 8.36621C460.262 11.2638 461.499 11.9853 464.351 11.0186" stroke="#373737"/>
<path d="M200.173 64.0665C201.07 95.2065 190.926 102.699 160.387 104.383M192.216 60.3532C192.143 87.8721 181.821 93.301 156.673 96.4258M184.258 56.1093C182.506 78.6954 174.971 84.9695 152.43 87.4076M177.893 51.8655C173.675 71.7442 166.434 76.9057 149.247 79.9809M172.588 47.0912C167.011 64.3996 161.045 69.6078 146.064 72.0237M167.813 42.3169C161.187 57.3861 156.024 62.6385 143.942 65.658M164.1 37.5426C156.857 51.0869 152.03 55.9066 141.82 58.7617M160.387 32.7683C155.164 43.1048 150.643 47.0457 140.229 51.335M157.734 27.9939C152.356 37.4018 147.908 39.9145 139.168 42.8474M155.082 23.2196C150.04 30.8986 146.252 32.6418 139.168 34.8902M152.96 19.5063C148.894 24.285 145.749 25.3406 139.698 26.4025M150.838 14.2015C147.221 17.4825 145.135 18.2484 141.29 17.3844M148.716 8.36621C146.971 11.2638 145.733 11.9853 142.881 11.0186" stroke="#373737"/>
<path d="M120.07 240.716H487.162V480.773C487.162 492.923 477.312 502.773 465.162 502.773H142.07C129.92 502.773 120.07 492.923 120.07 480.773V240.716Z" fill="#595BE4"/>
<path d="M372.578 217.481C377.013 216.333 379.203 216.159 382.657 216.42C386.258 217.062 386.968 217.913 387.432 220.134C387.881 223.41 387.738 225.423 386.901 229.152" stroke="#373737"/>
<path d="M230.661 217.481C226.226 216.333 224.036 216.159 220.582 216.42C216.981 217.062 216.271 217.913 215.807 220.134C215.358 223.41 215.501 225.423 216.338 229.152" stroke="#373737"/>
<path d="M268.074 294.923C279.6 302.487 286.269 305.954 299.372 307.654C314.147 307.435 321.298 304.97 332.262 297.045C343.562 288.088 349.258 282.1 358.256 271.051C365.927 260.568 369.661 254.284 375.231 242.405C377.674 236.826 378.944 231.792 379.475 228.082C380.005 224.373 378.822 221.555 374.701 223.308C374.701 223.308 370.534 225.546 367.274 227.552L367.031 227.702C363.912 229.621 361.915 230.849 358.256 232.857C349.213 237.091 343.837 238.769 333.854 240.814C308.409 244.149 294.495 243.983 270.196 241.344C258.137 239.182 251.753 237.638 242.611 232.857C238.431 231 236.349 229.61 233.063 227.552L227.227 223.308C223.494 221.482 222.978 223.812 222.983 228.082C224.109 234.347 225.099 237.39 227.227 242.405C231.847 253.294 236.18 259.662 244.203 271.051C252.202 281.09 257.393 286.387 268.074 294.923Z" fill="#373737"/>
<path d="M367.274 227.552C370.534 225.546 374.7 223.308 374.7 223.308C378.822 221.555 380.005 224.373 379.475 228.082C378.944 231.792 377.674 236.826 375.231 242.405C369.661 254.284 365.927 260.568 358.256 271.051C349.258 282.1 343.562 288.088 332.262 297.045C321.298 304.97 314.147 307.435 299.372 307.654C286.269 305.954 279.6 302.487 268.074 294.923C257.393 286.387 252.202 281.09 244.203 271.051C236.18 259.662 231.847 253.294 227.227 242.405C225.099 237.39 224.109 234.347 222.983 228.082C222.978 223.812 223.494 221.482 227.227 223.308L233.063 227.552C236.349 229.61 238.431 231 242.611 232.857C251.753 237.638 258.137 239.182 270.196 241.344C294.495 243.983 308.409 244.149 333.854 240.814C343.837 238.769 349.213 237.091 358.256 232.857C361.915 230.849 363.912 229.621 367.031 227.702M367.274 227.552L367.031 227.702M367.274 227.552C367.192 227.602 367.111 227.652 367.031 227.702" stroke="#373737"/>
<path d="M295.13 245.597C291.509 254.573 289.53 259.929 285.578 266.814C282.454 269.831 276.672 253.238 270.728 243.471C279.933 244.906 285.247 245.427 295.13 245.597Z" fill="#EFEFEF" stroke="#EFEFEF"/>
<path d="M308.665 245.395C312.523 254.271 314.644 259.573 318.778 266.351C321.981 269.284 327.319 252.542 333.002 242.621C323.838 244.301 318.54 244.962 308.665 245.395Z" fill="#EFEFEF" stroke="#EFEFEF"/>
<path d="M270.727 294.853C281.117 301.481 287.186 304.736 300.433 305.993C313.915 305.587 320.461 303.325 330.671 296.445C321.772 287.046 315.19 284.301 300.433 284.244C285.122 283.911 278.839 286.523 270.727 294.853Z" fill="#595BE4" stroke="#595BE4"/>
<ellipse cx="246.381" cy="156.14" rx="28.6459" ry="32.8897" transform="rotate(-10.1795 246.381 156.14)" fill="#EFEFEF"/>
<ellipse cx="252.702" cy="168.857" rx="9.01815" ry="12.7315" transform="rotate(-2.83454 252.702 168.857)" fill="#373737"/>
<ellipse cx="28.6459" cy="32.8897" rx="28.6459" ry="32.8897" transform="matrix(-0.984259 -0.176733 -0.176733 0.984259 394.973 128.831)" fill="#EFEFEF"/>
<ellipse cx="9.01815" cy="12.7315" rx="9.01815" ry="12.7315" transform="matrix(-0.998776 -0.0494519 -0.0494519 0.998776 364.281 156.587)" fill="#373737"/>
<path d="M460.855 3.06068C474.369 37.2375 468.671 60.698 445.462 106.761L395.92 69.4047C432.748 54.7644 447.416 40.6024 460.855 3.06068Z" fill="#595BE4" stroke="#595BE4"/>
<path d="M146.011 2.00013C132.497 36.177 138.195 59.6374 161.404 105.7L210.946 68.3442C174.118 53.7038 159.449 39.5418 146.011 2.00013Z" fill="#595BE4" stroke="#595BE4"/>
<ellipse cx="304.199" cy="231.996" rx="183.546" ry="199.46" fill="#595BE4"/>
<path d="M407.06 64.0665C406.162 95.2065 416.306 102.699 446.846 104.383M415.017 60.3532C415.09 87.8721 425.412 93.301 450.559 96.4258M422.974 56.1093C424.726 78.6954 432.261 84.9695 454.803 87.4076M429.34 51.8655C433.557 71.7442 440.799 76.9057 457.986 79.9809M434.645 47.0912C440.222 64.3996 446.188 69.6078 461.169 72.0237M439.419 42.3169C446.046 57.3861 451.208 62.6385 463.29 65.658M443.132 37.5426C450.376 51.0869 455.202 55.9066 465.412 58.7617M446.846 32.7683C452.069 43.1048 456.589 47.0457 467.004 51.335M449.498 27.9939C454.877 37.4018 459.324 39.9145 468.065 42.8474M452.15 23.2196C457.192 30.8986 460.98 32.6418 468.065 34.8902M454.272 19.5063C458.339 24.285 461.483 25.3406 467.534 26.4025M456.394 14.2015C460.011 17.4825 462.097 18.2484 465.943 17.3844M458.516 8.36621C460.262 11.2638 461.499 11.9853 464.351 11.0186" stroke="#373737"/>
<path d="M200.173 64.0665C201.07 95.2065 190.926 102.699 160.387 104.383M192.216 60.3532C192.143 87.8721 181.821 93.301 156.673 96.4258M184.258 56.1093C182.506 78.6954 174.971 84.9695 152.43 87.4076M177.893 51.8655C173.675 71.7442 166.434 76.9057 149.247 79.9809M172.588 47.0912C167.011 64.3996 161.045 69.6078 146.064 72.0237M167.813 42.3169C161.187 57.3861 156.024 62.6385 143.942 65.658M164.1 37.5426C156.857 51.0869 152.03 55.9066 141.82 58.7617M160.387 32.7683C155.164 43.1048 150.643 47.0457 140.229 51.335M157.734 27.9939C152.356 37.4018 147.908 39.9145 139.168 42.8474M155.082 23.2196C150.04 30.8986 146.252 32.6418 139.168 34.8902M152.96 19.5063C148.894 24.285 145.749 25.3406 139.698 26.4025M150.838 14.2015C147.221 17.4825 145.135 18.2484 141.29 17.3844M148.716 8.36621C146.971 11.2638 145.733 11.9853 142.881 11.0186" stroke="#373737"/>
<path d="M229.357 284.358C225.199 285.094 223.153 285.188 219.932 284.969C216.581 284.488 215.932 283.896 215.534 282.368C215.166 280.117 215.331 278.738 216.171 276.191" stroke="#373737"/>
<path d="M378.712 285.999C383.334 286.837 385.624 286.982 389.245 286.843C393.026 286.445 393.784 285.869 394.309 284.352C394.837 282.111 394.723 280.729 393.913 278.163" stroke="#373737"/>
<path d="M340.912 232.471C328.98 227.151 322.059 224.698 308.371 223.38C292.9 223.36 285.37 224.967 273.753 230.274C261.766 236.285 255.696 240.324 246.082 247.795C237.866 254.894 233.846 259.159 227.805 267.239C225.149 271.036 223.731 274.473 223.11 277.01C222.489 279.547 223.678 281.493 228.024 280.339C228.024 280.339 232.425 278.853 235.874 277.515L236.131 277.415C239.43 276.135 241.541 275.316 245.408 273.982C254.949 271.184 260.607 270.095 271.094 268.809C297.79 266.816 312.354 267.091 337.745 269.181C350.331 270.803 356.987 271.935 366.473 275.319C370.817 276.64 372.971 277.617 376.376 279.066L382.41 282.043C386.285 283.338 386.867 281.747 386.937 278.819C385.869 274.511 384.887 272.413 382.747 268.95C378.102 261.431 373.678 257.015 365.481 249.114C357.284 242.138 351.943 238.447 340.912 232.471Z" fill="#373737"/>
<path d="M235.874 277.515C232.425 278.853 228.024 280.339 228.024 280.339C223.678 281.493 222.489 279.547 223.11 277.01C223.731 274.473 225.149 271.036 227.805 267.239C233.846 259.159 237.866 254.894 246.082 247.795C255.696 240.324 261.766 236.285 273.753 230.274C285.37 224.967 292.9 223.36 308.371 223.38C322.059 224.698 328.98 227.151 340.912 232.471C351.943 238.447 357.284 242.138 365.481 249.114C373.678 257.015 378.102 261.431 382.747 268.95C384.887 272.413 385.869 274.511 386.937 278.819C386.867 281.747 386.285 283.338 382.41 282.043L376.376 279.066C372.971 277.617 370.817 276.64 366.473 275.319C356.987 271.935 350.331 270.803 337.745 269.181C312.354 267.091 297.79 266.816 271.094 268.809C260.607 270.095 254.949 271.184 245.408 273.982C241.541 275.316 239.43 276.135 236.131 277.415M235.874 277.515L236.131 277.415M235.874 277.515C235.96 277.481 236.046 277.448 236.131 277.415" stroke="#373737"/>
<ellipse cx="28.6459" cy="32.8897" rx="28.6459" ry="32.8897" transform="matrix(-0.984259 -0.176733 -0.176733 0.984259 280.389 128.831)" fill="#EFEFEF"/>
<ellipse cx="252.702" cy="168.857" rx="9.01815" ry="12.7315" transform="rotate(-2.83454 252.702 168.857)" fill="#373737"/>
<ellipse cx="28.6459" cy="32.8897" rx="28.6459" ry="32.8897" transform="matrix(-0.984259 -0.176733 -0.176733 0.984259 394.973 128.831)" fill="#EFEFEF"/>
<ellipse cx="9.01815" cy="12.7315" rx="9.01815" ry="12.7315" transform="matrix(-0.998776 -0.0494519 -0.0494519 0.998776 364.281 156.587)" fill="#373737"/>
<path d="M358.428 88.0437C356.392 86.9712 355.171 86.5104 352.928 85.809C350.765 85.0064 349.535 84.6952 346.996 84.7886C345.177 85.3563 344.206 85.8014 342.626 87.0631C341.449 88.3051 340.951 89.0579 340.433 90.5246C339.896 92.4571 340.155 93.493 341.312 95.3548C343.314 97.1963 344.396 97.7894 346.309 98.2315C348.005 98.6604 348.9 98.8084 350.454 98.8885C352.342 98.759 353.183 98.6523 354.461 98.4008C356.928 97.845 358.655 97.5558 359.612 97.7738L359.617 97.7751C361.687 98.3574 362.646 98.627 364.149 99.2545C366.688 100.246 367.733 100.808 369.397 101.81L373.5 104.505L369.733 97.4131C368.11 95.1064 366.979 93.8337 364.388 91.6745C362.163 90.1655 360.875 89.3539 358.428 88.0437Z" fill="#373737"/>
<path d="M359.612 97.7738C358.655 97.5558 356.928 97.845 354.461 98.4008C353.183 98.6523 352.342 98.759 350.454 98.8885C348.9 98.8084 348.005 98.6604 346.309 98.2315C344.396 97.7894 343.314 97.1963 341.312 95.3548C340.155 93.493 339.896 92.4571 340.433 90.5246C340.951 89.0579 341.449 88.3051 342.626 87.0631C344.206 85.8014 345.177 85.3563 346.996 84.7886C349.535 84.6952 350.765 85.0064 352.928 85.809C355.171 86.5104 356.392 86.9712 358.428 88.0437C360.875 89.3539 362.163 90.1655 364.388 91.6745C366.979 93.8337 368.11 95.1064 369.733 97.4131L373.5 104.505L369.397 101.81C367.733 100.808 366.688 100.246 364.149 99.2545C362.646 98.627 361.687 98.3574 359.617 97.7751M359.612 97.7738L359.617 97.7751M359.612 97.7738C359.614 97.7742 359.615 97.7746 359.617 97.7751" stroke="#373737"/>
<path d="M249.598 88.0642C251.618 86.9609 252.832 86.4815 255.063 85.7461C257.214 84.9107 258.439 84.5809 260.98 84.6357C262.807 85.1757 263.784 85.606 265.384 86.8435C266.579 88.0675 267.088 88.8127 267.629 90.2712C268.195 92.1954 267.952 93.2351 266.824 95.1142C264.85 96.986 263.776 97.5955 261.871 98.0666C260.181 98.5212 259.288 98.6828 257.736 98.7866C255.846 98.6858 255.004 98.5919 253.722 98.3598C251.247 97.8416 249.516 97.5787 248.562 97.8111L248.558 97.8125C246.496 98.4262 245.542 98.7104 244.049 99.3606C241.525 100.391 240.489 100.969 238.84 101.996L234.778 104.753L238.437 97.6043C240.025 95.2732 241.136 93.9835 243.694 91.7851C245.896 90.2425 247.171 89.4114 249.598 88.0642Z" fill="#373737"/>
<path d="M248.562 97.8111C249.516 97.5787 251.247 97.8416 253.722 98.3598C255.004 98.5919 255.846 98.6858 257.736 98.7866C259.288 98.6828 260.181 98.5212 261.871 98.0666C263.776 97.5955 264.85 96.986 266.824 95.1142C267.952 93.2351 268.195 92.1954 267.629 90.2712C267.088 88.8127 266.579 88.0675 265.384 86.8435C263.784 85.606 262.807 85.1757 260.98 84.6357C258.439 84.5809 257.214 84.9107 255.063 85.7461C252.832 86.4815 251.618 86.9609 249.598 88.0642C247.171 89.4114 245.896 90.2425 243.694 91.7851C241.136 93.9835 240.025 95.2732 238.437 97.6043L234.778 104.753L238.84 101.996C240.489 100.969 241.525 100.391 244.049 99.3606C245.542 98.7104 246.496 98.4262 248.558 97.8125M248.562 97.8111L248.558 97.8125M248.562 97.8111C248.561 97.8116 248.559 97.812 248.558 97.8125" stroke="#373737"/>
<path d="M195.623 306.142C180.87 313.289 173.347 318.02 161.084 327.366C146.395 339.211 139.56 346.63 129.692 361.03C119.074 378.039 114.951 388.102 109.311 406.568C105.716 420.172 103.889 426.719 100.921 436.72C96.6183 447.717 93.1656 452.685 85.5492 458.323C78.7992 462.64 74.1046 464.001 65.2711 465.895C63.5146 465.826 61.9074 465.719 60.4069 465.566C53.126 464.827 48.3591 463.017 41.2512 459.211C32.3975 452.885 28.7204 448.871 23.7107 441.115C18.2921 432.827 16.704 428.077 15.4004 419.531C15.2849 408.324 16.9618 403.08 22.2264 395C28.622 386.893 32.5808 382.394 42.1979 374.677C54.8683 363.316 61.6109 356.873 72.9639 345.244C83.1821 334.224 90.3844 328.678 105.943 319.731C120.133 312.961 128.444 309.689 144.908 306.346C164.473 303.442 175.607 303.397 195.623 306.142Z" fill="#595BE4"/>
<path d="M212.374 502.796V439.139C215.588 410.296 219.166 395.369 230.941 374.951C245.525 358.429 254.703 353.242 271.787 346.836C294.09 340.631 307.856 341.685 333.323 346.836C348.972 354.088 356.415 360.426 367.804 374.951C380.144 397.312 384.815 411.277 388.493 439.139L390.615 501.205L212.374 502.796Z" fill="#696AF3"/>
<path d="M275.939 267.512C280.459 263.395 282.827 261.595 286.738 259.32C290.242 257.596 291.844 256.964 294.558 255.968C300.699 254.121 305.322 254.092 311.316 255.223C314.853 256.179 316.72 257.106 319.881 259.32C323.679 261.997 325.581 263.887 328.818 267.512C307.984 266.119 296.411 266.152 275.939 267.512Z" fill="#595BE4"/>
<path d="M282.881 341.721C271.666 341.577 268.207 341.825 267.08 343.624C265.83 345.766 266.499 346.691 267.651 348.364C273.349 353.229 277.554 354.246 286.237 356.277C284.142 350.909 283.467 347.724 282.881 341.721Z" fill="#373737" stroke="#373737"/>
<path d="M287.008 320.636C275.858 316.346 272.312 315.316 270.521 316.696C268.48 318.374 268.807 319.545 269.34 321.642C273.233 328.607 277.057 331.178 284.98 336.417C284.872 330.28 285.375 326.849 287.008 320.636Z" fill="#373737" stroke="#373737"/>
<path d="M291.887 313.036C281.342 303.193 278.351 299.885 278.905 297.212C279.649 294.109 281.093 293.846 283.652 293.317C293.271 293.867 298.082 296.663 307.954 302.501C301.233 305.624 297.773 307.982 291.887 313.036Z" fill="#373737" stroke="#373737"/>
<path d="M308.869 294.894C306.329 282.4 305.873 278.485 307.643 276.845C309.77 274.994 310.945 275.545 313.058 276.477C319.699 281.808 321.727 286.288 325.837 295.554C319.398 294.353 315.698 294.275 308.869 294.894Z" fill="#373737" stroke="#373737"/>
<path d="M349.227 301.659C355.434 288.399 357.692 284.477 360.446 284.176C363.674 283.924 364.381 285.236 365.691 287.541C368.168 297.002 366.973 302.521 364.423 313.879C359.306 308.366 355.947 305.762 349.227 301.659Z" fill="#373737" stroke="#373737"/>
<path d="M482.084 421.7C466.226 417.544 457.929 414.358 444.089 407.563C427.385 398.786 419.242 392.831 406.773 380.614C393.064 365.982 387.071 356.908 377.963 339.883C371.802 327.231 368.742 321.163 363.894 311.925C357.544 301.97 353.194 297.763 344.631 293.707C337.173 290.779 332.303 290.351 323.27 290.203C321.56 290.612 320.004 291.028 318.562 291.468C311.562 293.603 307.235 296.302 300.999 301.411C293.537 309.331 290.707 313.981 287.293 322.56C283.582 331.741 282.943 336.708 283.319 345.345C285.375 356.362 288.035 361.183 294.765 368.091C302.609 374.806 307.364 378.454 318.293 384.163C332.923 392.856 340.785 397.872 354.175 407.082C366.333 415.917 374.473 419.963 391.469 425.728C406.701 429.624 415.488 431.224 432.288 431.317C452.045 430.378 462.977 428.268 482.084 421.7Z" fill="#595BE4" stroke="#373737"/>
<path d="M307.592 227.861C310.224 235.838 312.04 240.496 315.747 248.239C316.984 250.025 317.665 250.91 318.609 250.135C323.106 243.4 324.947 239.366 328.003 232.084C320.57 229.274 316.072 228.208 307.592 227.861Z" fill="#EFEFEF"/>
<path d="M296.494 227.851C294.171 235.922 292.535 240.647 289.128 248.527C287.961 250.359 287.315 251.27 286.341 250.532C281.589 243.974 279.594 240.014 276.26 232.856C283.58 229.762 288.033 228.523 296.494 227.851Z" fill="#EFEFEF"/>
</svg>
