<svg width="307" height="292" viewBox="0 0 307 292" fill="none" xmlns="http://www.w3.org/2000/svg">
<path d="M58.9849 162.271H239.32V286.007C239.32 288.768 237.081 291.007 234.32 291.007H63.9849C61.2234 291.007 58.9849 288.768 58.9849 286.007V162.271Z" fill="#595BE4"/>
<path d="M226.396 45.5211C233.035 62.3106 230.236 73.8356 218.835 96.4641L194.497 78.1128C212.589 70.9207 219.795 63.9636 226.396 45.5211Z" fill="#595BE4" stroke="#595BE4"/>
<path d="M71.7282 44.9996C65.0895 61.7891 67.8887 73.3141 79.2899 95.9427L103.628 77.5913C85.536 70.3992 78.3299 63.4421 71.7282 44.9996Z" fill="#595BE4" stroke="#595BE4"/>
<ellipse cx="149.152" cy="156.536" rx="90.1674" ry="97.9854" fill="#595BE4"/>
<path d="M199.969 75.4899C199.528 90.7875 204.512 94.4681 219.514 95.2955M203.878 73.6657C203.914 87.1845 208.985 89.8514 221.338 91.3865M207.787 71.5809C208.648 82.6764 212.349 85.7585 223.423 86.9563M210.914 69.4961C212.986 79.2616 216.544 81.7972 224.987 83.3079M213.52 67.1507C216.26 75.6535 219.191 78.2121 226.55 79.3989M215.866 64.8053C219.121 72.2081 221.657 74.7884 227.593 76.2717M217.69 62.4599C221.248 69.1136 223.619 71.4813 228.635 72.8839M219.514 60.1145C222.08 65.1924 224.301 67.1284 229.417 69.2355M220.817 57.7691C223.459 62.3908 225.644 63.6251 229.938 65.0659M222.12 55.4237C224.597 59.1961 226.458 60.0524 229.938 61.1569M223.163 53.5995C225.16 55.9471 226.705 56.4657 229.678 56.9873M224.205 50.9935C225.982 52.6054 227.007 52.9816 228.896 52.5571M225.247 48.127C226.105 49.5504 226.713 49.9049 228.114 49.43" stroke="#373737"/>
<path d="M98.3355 75.4899C98.7763 90.7875 93.7932 94.4681 78.7905 95.2955M94.4265 73.6657C94.3908 87.1845 89.32 89.8514 76.9663 91.3865M90.5175 71.5809C89.6568 82.6764 85.9552 85.7585 74.8815 86.9563M87.3903 69.4961C85.3185 79.2616 81.7612 81.7972 73.3179 83.3079M84.7843 67.1507C82.0446 75.6535 79.1138 78.2121 71.7543 79.3989M82.4389 64.8053C79.1835 72.2081 76.6474 74.7884 70.7119 76.2717M80.6147 62.4599C77.0564 69.1136 74.6853 71.4813 69.6695 72.8839M78.7905 60.1145C76.2247 65.1924 74.004 67.1284 68.8877 69.2355M77.4875 57.7691C74.8453 62.3908 72.6605 63.6251 68.3665 65.0659M76.1845 55.4237C73.7079 59.1961 71.8468 60.0524 68.3665 61.1569M75.1421 53.5995C73.1446 55.9471 71.5996 56.4657 68.6271 56.9873M74.0997 50.9935C72.323 52.6054 71.2981 52.9816 69.4089 52.5571M73.0573 48.127C72.1998 49.5504 71.5919 49.9049 70.1907 49.43" stroke="#373737"/>
<path d="M58.9849 162.271H239.32V286.007C239.32 288.768 237.081 291.007 234.32 291.007H63.9849C61.2234 291.007 58.9849 288.768 58.9849 286.007V162.271Z" fill="#595BE4"/>
<path d="M183.03 150.855C185.209 150.292 186.284 150.206 187.982 150.334C189.75 150.649 190.099 151.067 190.327 152.158C190.548 153.768 190.477 154.757 190.066 156.589" stroke="#373737"/>
<path d="M113.313 150.855C111.134 150.292 110.059 150.206 108.361 150.334C106.593 150.649 106.244 151.067 106.016 152.158C105.795 153.768 105.866 154.757 106.277 156.589" stroke="#373737"/>
<path d="M131.692 188.899C137.354 192.615 140.631 194.318 147.068 195.154C154.326 195.046 157.839 193.835 163.225 189.942C168.776 185.542 171.574 182.6 175.994 177.172C179.763 172.022 181.597 168.935 184.333 163.1C185.533 160.359 186.158 157.886 186.418 156.064C186.679 154.242 186.098 152.857 184.073 153.718C184.073 153.718 182.026 154.818 180.424 155.803L180.305 155.877C178.773 156.82 177.792 157.423 175.994 158.409C171.552 160.489 168.911 161.313 164.007 162.318C151.507 163.957 144.671 163.875 132.735 162.579C126.811 161.517 123.675 160.758 119.183 158.409C117.13 157.497 116.107 156.814 114.493 155.803L111.626 153.718C109.792 152.821 109.538 153.966 109.541 156.064C110.094 159.141 110.58 160.636 111.626 163.1C113.896 168.449 116.024 171.577 119.965 177.172C123.895 182.104 126.445 184.706 131.692 188.899Z" fill="#373737"/>
<path d="M180.424 155.803C182.026 154.818 184.073 153.718 184.073 153.718C186.098 152.857 186.679 154.242 186.418 156.064C186.158 157.886 185.533 160.359 184.333 163.1C181.597 168.935 179.763 172.022 175.994 177.172C171.574 182.6 168.776 185.542 163.225 189.942C157.839 193.835 154.326 195.046 147.068 195.154C140.631 194.318 137.354 192.615 131.692 188.899C126.445 184.706 123.895 182.104 119.965 177.172C116.024 171.577 113.896 168.449 111.626 163.1C110.58 160.636 110.094 159.141 109.541 156.064C109.538 153.966 109.792 152.821 111.626 153.718L114.493 155.803C116.107 156.814 117.13 157.497 119.183 158.409C123.675 160.758 126.811 161.517 132.735 162.579C144.671 163.875 151.507 163.957 164.007 162.318C168.911 161.313 171.552 160.489 175.994 158.409C177.792 157.423 178.773 156.82 180.305 155.877M180.424 155.803L180.305 155.877M180.424 155.803C180.384 155.828 180.344 155.852 180.305 155.877" stroke="#373737"/>
<path d="M144.983 164.667C143.205 169.077 142.233 171.708 140.291 175.091C138.757 176.573 135.916 168.421 132.996 163.623C137.518 164.328 140.128 164.584 144.983 164.667Z" fill="#EFEFEF" stroke="#EFEFEF"/>
<path d="M151.633 164.568C153.528 168.929 154.57 171.534 156.6 174.863C158.174 176.304 160.797 168.08 163.588 163.206C159.086 164.031 156.484 164.356 151.633 164.568Z" fill="#EFEFEF" stroke="#EFEFEF"/>
<path d="M132.995 188.865C138.1 192.121 141.081 193.72 147.589 194.338C154.212 194.138 157.427 193.027 162.443 189.647C158.072 185.03 154.838 183.681 147.589 183.653C140.067 183.49 136.981 184.773 132.995 188.865Z" fill="#595BE4" stroke="#595BE4"/>
<ellipse cx="121.036" cy="120.722" rx="14.0724" ry="16.1572" transform="rotate(-10.1795 121.036 120.722)" fill="#EFEFEF"/>
<ellipse cx="124.141" cy="126.969" rx="4.43019" ry="6.25439" transform="rotate(-2.83454 124.141 126.969)" fill="#373737"/>
<ellipse cx="14.0724" cy="16.1572" rx="14.0724" ry="16.1572" transform="matrix(-0.984259 -0.176733 -0.176733 0.984259 194.031 107.307)" fill="#EFEFEF"/>
<ellipse cx="4.43019" cy="6.25439" rx="4.43019" ry="6.25439" transform="matrix(-0.998776 -0.0494519 -0.0494519 0.998776 178.954 120.941)" fill="#373737"/>
<path d="M226.396 45.5211C233.035 62.3106 230.236 73.8356 218.835 96.4641L194.497 78.1128C212.589 70.9207 219.795 63.9636 226.396 45.5211Z" fill="#595BE4" stroke="#595BE4"/>
<path d="M71.7282 44.9996C65.0895 61.7891 67.8887 73.3141 79.2899 95.9427L103.628 77.5913C85.536 70.3992 78.3299 63.4421 71.7282 44.9996Z" fill="#595BE4" stroke="#595BE4"/>
<ellipse cx="149.152" cy="156.536" rx="90.1674" ry="97.9854" fill="#595BE4"/>
<path d="M199.969 75.4899C199.528 90.7875 204.512 94.4681 219.514 95.2955M203.878 73.6657C203.914 87.1845 208.985 89.8514 221.338 91.3865M207.787 71.5809C208.648 82.6764 212.349 85.7585 223.423 86.9563M210.914 69.4961C212.986 79.2616 216.544 81.7972 224.987 83.3079M213.52 67.1507C216.26 75.6535 219.191 78.2121 226.55 79.3989M215.866 64.8053C219.121 72.2081 221.657 74.7884 227.593 76.2717M217.69 62.4599C221.248 69.1136 223.619 71.4813 228.635 72.8839M219.514 60.1145C222.08 65.1924 224.301 67.1284 229.417 69.2355M220.817 57.7691C223.459 62.3908 225.644 63.6251 229.938 65.0659M222.12 55.4237C224.597 59.1961 226.458 60.0524 229.938 61.1569M223.163 53.5995C225.16 55.9471 226.705 56.4657 229.678 56.9873M224.205 50.9935C225.982 52.6054 227.007 52.9816 228.896 52.5571M225.247 48.127C226.105 49.5504 226.713 49.9049 228.114 49.43" stroke="#373737"/>
<path d="M98.3355 75.4899C98.7763 90.7875 93.7932 94.4681 78.7905 95.2955M94.4265 73.6657C94.3908 87.1845 89.32 89.8514 76.9663 91.3865M90.5175 71.5809C89.6568 82.6764 85.9552 85.7585 74.8815 86.9563M87.3903 69.4961C85.3185 79.2616 81.7612 81.7972 73.3179 83.3079M84.7843 67.1507C82.0446 75.6535 79.1138 78.2121 71.7543 79.3989M82.4389 64.8053C79.1835 72.2081 76.6474 74.7884 70.7119 76.2717M80.6147 62.4599C77.0564 69.1136 74.6853 71.4813 69.6695 72.8839M78.7905 60.1145C76.2247 65.1924 74.004 67.1284 68.8877 69.2355M77.4875 57.7691C74.8453 62.3908 72.6605 63.6251 68.3665 65.0659M76.1845 55.4237C73.7079 59.1961 71.8468 60.0524 68.3665 61.1569M75.1421 53.5995C73.1446 55.9471 71.5996 56.4657 68.6271 56.9873M74.0997 50.9935C72.323 52.6054 71.2981 52.9816 69.4089 52.5571M73.0573 48.127C72.1998 49.5504 71.5919 49.9049 70.1907 49.43" stroke="#373737"/>
<path d="M58.9849 162.271H239.32V286.007C239.32 288.768 237.081 291.007 234.32 291.007H63.9849C61.2234 291.007 58.9849 288.768 58.9849 286.007V162.271Z" fill="#595BE4"/>
<path d="M183.03 150.855C185.209 150.292 186.284 150.206 187.982 150.334C189.75 150.649 190.099 151.067 190.327 152.158C190.548 153.768 190.477 154.757 190.066 156.589" stroke="#373737"/>
<path d="M113.313 150.855C111.134 150.292 110.059 150.206 108.361 150.334C106.593 150.649 106.244 151.067 106.016 152.158C105.795 153.768 105.866 154.757 106.277 156.589" stroke="#373737"/>
<path d="M131.692 188.899C137.354 192.615 140.631 194.318 147.068 195.154C154.326 195.046 157.839 193.835 163.225 189.942C168.776 185.542 171.574 182.6 175.994 177.172C179.763 172.022 181.597 168.935 184.333 163.1C185.533 160.359 186.158 157.886 186.418 156.064C186.679 154.242 186.098 152.857 184.073 153.718C184.073 153.718 182.026 154.818 180.424 155.803L180.305 155.877C178.773 156.82 177.792 157.423 175.994 158.409C171.552 160.489 168.911 161.313 164.007 162.318C151.507 163.957 144.671 163.875 132.735 162.579C126.811 161.517 123.675 160.758 119.183 158.409C117.13 157.497 116.107 156.814 114.493 155.803L111.626 153.718C109.792 152.821 109.538 153.966 109.541 156.064C110.094 159.141 110.58 160.636 111.626 163.1C113.896 168.449 116.024 171.577 119.965 177.172C123.895 182.104 126.445 184.706 131.692 188.899Z" fill="#373737"/>
<path d="M180.424 155.803C182.026 154.818 184.073 153.718 184.073 153.718C186.098 152.857 186.679 154.242 186.418 156.064C186.158 157.886 185.533 160.359 184.333 163.1C181.597 168.935 179.763 172.022 175.994 177.172C171.574 182.6 168.776 185.542 163.225 189.942C157.839 193.835 154.326 195.046 147.068 195.154C140.631 194.318 137.354 192.615 131.692 188.899C126.445 184.706 123.895 182.104 119.965 177.172C116.024 171.577 113.896 168.449 111.626 163.1C110.58 160.636 110.094 159.141 109.541 156.064C109.538 153.966 109.792 152.821 111.626 153.718L114.493 155.803C116.107 156.814 117.13 157.497 119.183 158.409C123.675 160.758 126.811 161.517 132.735 162.579C144.671 163.875 151.507 163.957 164.007 162.318C168.911 161.313 171.552 160.489 175.994 158.409C177.792 157.423 178.773 156.82 180.305 155.877M180.424 155.803L180.305 155.877M180.424 155.803C180.384 155.828 180.344 155.852 180.305 155.877" stroke="#373737"/>
<path d="M144.983 164.667C143.205 169.077 142.233 171.708 140.291 175.091C138.757 176.573 135.916 168.421 132.996 163.623C137.518 164.328 140.128 164.584 144.983 164.667Z" fill="#EFEFEF" stroke="#EFEFEF"/>
<path d="M151.633 164.568C153.528 168.929 154.57 171.534 156.6 174.863C158.174 176.304 160.797 168.08 163.588 163.206C159.086 164.031 156.484 164.356 151.633 164.568Z" fill="#EFEFEF" stroke="#EFEFEF"/>
<path d="M132.995 188.865C138.1 192.121 141.081 193.72 147.589 194.338C154.212 194.138 157.427 193.027 162.443 189.647C158.072 185.03 154.838 183.681 147.589 183.653C140.067 183.49 136.981 184.773 132.995 188.865Z" fill="#595BE4" stroke="#595BE4"/>
<ellipse cx="14.0724" cy="16.1572" rx="14.0724" ry="16.1572" transform="matrix(-0.984259 -0.176733 -0.176733 0.984259 137.742 107.307)" fill="#EFEFEF"/>
<ellipse cx="124.141" cy="126.969" rx="4.43019" ry="6.25439" transform="rotate(-2.83454 124.141 126.969)" fill="#373737"/>
<ellipse cx="14.0724" cy="16.1572" rx="14.0724" ry="16.1572" transform="matrix(-0.984259 -0.176733 -0.176733 0.984259 194.031 107.307)" fill="#EFEFEF"/>
<ellipse cx="4.43019" cy="6.25439" rx="4.43019" ry="6.25439" transform="matrix(-0.998776 -0.0494519 -0.0494519 0.998776 178.954 120.941)" fill="#373737"/>
<path d="M175.121 87.2339C174.031 86.9358 173.396 86.8445 172.246 86.7463C171.123 86.5911 170.501 86.5724 169.292 86.887C168.48 87.3524 168.062 87.669 167.438 88.4421C167.006 89.1627 166.847 89.5767 166.754 90.3352C166.702 91.3191 166.936 91.7886 167.689 92.5586C168.844 93.2292 169.427 93.3987 170.391 93.4076C171.25 93.4331 171.695 93.409 172.449 93.2824C173.341 93.0197 173.733 92.8793 174.319 92.6229C175.443 92.0943 176.241 91.7721 176.723 91.775L176.725 91.7751C177.78 91.8345 178.269 91.862 179.056 92.0033C180.379 92.2092 180.94 92.3678 181.845 92.6717L184.099 93.5285L181.539 90.527C180.515 89.593 179.838 89.1027 178.366 88.3423C177.138 87.8549 176.435 87.6024 175.121 87.2339Z" fill="#373737"/>
<path d="M176.723 91.775C176.241 91.7721 175.443 92.0943 174.319 92.6229C173.733 92.8793 173.341 93.0197 172.449 93.2824C171.695 93.409 171.25 93.4331 170.391 93.4076C169.427 93.3987 168.844 93.2292 167.689 92.5586C166.936 91.7886 166.702 91.3191 166.754 90.3352C166.847 89.5767 167.006 89.1627 167.438 88.4421C168.062 87.669 168.48 87.3524 169.292 86.887C170.501 86.5724 171.123 86.5911 172.246 86.7463C173.396 86.8445 174.031 86.9358 175.121 87.2339C176.435 87.6024 177.138 87.8549 178.366 88.3423C179.838 89.1027 180.515 89.593 181.539 90.527L184.099 93.5285L181.845 92.6717C180.94 92.3678 180.379 92.2092 179.056 92.0033C178.269 91.862 177.78 91.8345 176.725 91.7751M176.723 91.775L176.725 91.7751M176.723 91.775C176.724 91.775 176.724 91.7751 176.725 91.7751" stroke="#373737"/>
<path d="M123.64 87.2339C124.73 86.9358 125.365 86.8445 126.515 86.7463C127.638 86.5911 128.26 86.5724 129.469 86.887C130.281 87.3524 130.699 87.669 131.323 88.4421C131.755 89.1627 131.914 89.5767 132.007 90.3352C132.059 91.3191 131.825 91.7886 131.072 92.5586C129.917 93.2292 129.334 93.3987 128.37 93.4076C127.511 93.4331 127.066 93.409 126.312 93.2824C125.42 93.0197 125.028 92.8793 124.442 92.6229C123.318 92.0943 122.52 91.7721 122.038 91.775L122.036 91.7751C120.981 91.8345 120.492 91.862 119.705 92.0033C118.382 92.2092 117.821 92.3678 116.916 92.6717L114.662 93.5285L117.222 90.527C118.246 89.593 118.923 89.1027 120.395 88.3423C121.623 87.8549 122.326 87.6024 123.64 87.2339Z" fill="#373737"/>
<path d="M122.038 91.775C122.52 91.7721 123.318 92.0943 124.442 92.6229C125.028 92.8793 125.42 93.0197 126.312 93.2824C127.066 93.409 127.511 93.4331 128.37 93.4076C129.334 93.3987 129.917 93.2292 131.072 92.5586C131.825 91.7886 132.059 91.3191 132.007 90.3352C131.914 89.5767 131.755 89.1627 131.323 88.4421C130.699 87.669 130.281 87.3524 129.469 86.887C128.26 86.5724 127.638 86.5911 126.515 86.7463C125.365 86.8445 124.73 86.9358 123.64 87.2339C122.326 87.6024 121.623 87.8549 120.395 88.3423C118.923 89.1027 118.246 89.593 117.222 90.527L114.662 93.5285L116.916 92.6717C117.821 92.3678 118.382 92.2092 119.705 92.0033C120.492 91.862 120.981 91.8345 122.036 91.7751M122.038 91.775L122.036 91.7751M122.038 91.775C122.037 91.775 122.036 91.7751 122.036 91.7751" stroke="#373737"/>
<path d="M104.329 291.018V259.746C105.908 245.577 107.666 238.244 113.45 228.214C120.615 220.097 125.124 217.549 133.516 214.402C144.473 211.354 151.235 211.872 163.746 214.402C171.433 217.965 175.09 221.078 180.685 228.214C186.747 239.199 189.042 246.059 190.848 259.746L191.891 290.236L104.329 291.018Z" fill="#696AF3"/>
<path d="M8.79651 251.37C3.40505 252.506 1.71449 252.715 1.00046 251.955C0.193986 251.042 0.428526 250.532 0.824871 249.616C3.10817 246.73 5.03795 245.84 9.02983 244.035C8.53073 246.821 8.50847 248.421 8.79651 251.37Z" fill="#373737"/>
<path d="M12.711 260.961C7.74535 264.088 6.13394 264.922 5.13987 264.427C3.99661 263.813 4.04259 263.217 4.09996 262.156C5.31388 258.429 6.91248 256.826 10.2328 253.548C10.7642 256.515 11.3332 258.121 12.711 260.961Z" fill="#373737"/>
<path d="M14.7676 264.869C10.6215 270.616 9.49439 272.495 10.0155 273.731C10.6692 275.155 11.3904 275.145 12.6739 275.156C17.2577 273.976 19.3104 272.171 23.5133 268.418C19.977 267.553 18.0849 266.745 14.7676 264.869Z" fill="#373737"/>
<path d="M25.1544 271.413C25.1184 277.676 25.271 279.606 26.2798 280.228C27.481 280.918 27.9948 280.54 28.9244 279.89C31.6181 276.689 32.1696 274.338 33.2694 269.481C30.2803 270.672 28.5043 271.061 25.1544 271.413Z" fill="#373737" stroke="black"/>
<path d="M43.485 264.9C47.7376 270.7 49.1992 272.376 50.5552 272.259C52.135 272.073 52.3506 271.374 52.763 270.138C53.0569 265.343 51.956 262.797 49.6468 257.565C47.7051 260.709 46.3337 262.283 43.485 264.9Z" fill="#373737"/>
<path d="M226.396 45.5211C233.035 62.3106 230.236 73.8356 218.835 96.4641L194.497 78.1128C212.589 70.9207 219.795 63.9636 226.396 45.5211Z" fill="#595BE4" stroke="#595BE4"/>
<path d="M71.7282 44.9996C65.0895 61.7891 67.8887 73.3141 79.2899 95.9427L103.628 77.5913C85.536 70.3992 78.3299 63.4421 71.7282 44.9996Z" fill="#595BE4" stroke="#595BE4"/>
<ellipse cx="149.152" cy="156.536" rx="90.1674" ry="97.9854" fill="#595BE4"/>
<path d="M199.969 75.4899C199.528 90.7875 204.512 94.4681 219.514 95.2955M203.878 73.6657C203.914 87.1845 208.985 89.8514 221.338 91.3865M207.787 71.5809C208.648 82.6764 212.349 85.7585 223.423 86.9563M210.914 69.4961C212.986 79.2616 216.544 81.7972 224.987 83.3079M213.52 67.1507C216.26 75.6535 219.191 78.2121 226.55 79.3989M215.866 64.8053C219.121 72.2081 221.657 74.7884 227.593 76.2717M217.69 62.4599C221.248 69.1136 223.619 71.4813 228.635 72.8839M219.514 60.1145C222.08 65.1924 224.301 67.1284 229.417 69.2355M220.817 57.7691C223.459 62.3908 225.644 63.6251 229.938 65.0659M222.12 55.4237C224.597 59.1961 226.458 60.0524 229.938 61.1569M223.163 53.5995C225.16 55.9471 226.705 56.4657 229.678 56.9873M224.205 50.9935C225.982 52.6054 227.007 52.9816 228.896 52.5571M225.247 48.127C226.105 49.5504 226.713 49.9049 228.114 49.43" stroke="#373737"/>
<path d="M98.3355 75.4899C98.7763 90.7875 93.7932 94.4681 78.7905 95.2955M94.4265 73.6657C94.3908 87.1845 89.32 89.8514 76.9663 91.3865M90.5175 71.5809C89.6568 82.6764 85.9552 85.7585 74.8815 86.9563M87.3903 69.4961C85.3185 79.2616 81.7612 81.7972 73.3179 83.3079M84.7843 67.1507C82.0446 75.6535 79.1138 78.2121 71.7543 79.3989M82.4389 64.8053C79.1835 72.2081 76.6474 74.7884 70.7119 76.2717M80.6147 62.4599C77.0564 69.1136 74.6853 71.4813 69.6695 72.8839M78.7905 60.1145C76.2247 65.1924 74.004 67.1284 68.8877 69.2355M77.4875 57.7691C74.8453 62.3908 72.6605 63.6251 68.3665 65.0659M76.1845 55.4237C73.7079 59.1961 71.8468 60.0524 68.3665 61.1569M75.1421 53.5995C73.1446 55.9471 71.5996 56.4657 68.6271 56.9873M74.0997 50.9935C72.323 52.6054 71.2981 52.9816 69.4089 52.5571M73.0573 48.127C72.1998 49.5504 71.5919 49.9049 70.1907 49.43" stroke="#373737"/>
<path d="M183.03 150.855C185.209 150.292 186.284 150.206 187.982 150.334C189.75 150.649 190.099 151.067 190.327 152.158C190.548 153.768 190.477 154.757 190.066 156.589" stroke="#373737"/>
<path d="M113.313 150.855C111.134 150.292 110.059 150.206 108.361 150.334C106.593 150.649 106.244 151.067 106.016 152.158C105.795 153.768 105.866 154.757 106.277 156.589" stroke="#373737"/>
<path d="M131.692 188.899C137.354 192.615 140.631 194.318 147.068 195.154C154.326 195.046 157.839 193.835 163.225 189.942C168.776 185.542 171.574 182.6 175.994 177.172C179.763 172.022 181.597 168.935 184.333 163.1C185.533 160.359 186.158 157.886 186.418 156.064C186.679 154.242 186.098 152.857 184.073 153.718C184.073 153.718 182.026 154.818 180.424 155.803L180.305 155.877C178.773 156.82 177.792 157.423 175.994 158.409C171.552 160.489 168.911 161.313 164.007 162.318C151.507 163.957 144.671 163.875 132.735 162.579C126.811 161.517 123.675 160.758 119.183 158.409C117.13 157.497 116.107 156.814 114.493 155.803L111.626 153.718C109.792 152.821 109.538 153.966 109.541 156.064C110.094 159.141 110.58 160.636 111.626 163.1C113.896 168.449 116.024 171.577 119.965 177.172C123.895 182.104 126.445 184.706 131.692 188.899Z" fill="#373737"/>
<path d="M180.424 155.803C182.026 154.818 184.073 153.718 184.073 153.718C186.098 152.857 186.679 154.242 186.418 156.064C186.158 157.886 185.533 160.359 184.333 163.1C181.597 168.935 179.763 172.022 175.994 177.172C171.574 182.6 168.776 185.542 163.225 189.942C157.839 193.835 154.326 195.046 147.068 195.154C140.631 194.318 137.354 192.615 131.692 188.899C126.445 184.706 123.895 182.104 119.965 177.172C116.024 171.577 113.896 168.449 111.626 163.1C110.58 160.636 110.094 159.141 109.541 156.064C109.538 153.966 109.792 152.821 111.626 153.718L114.493 155.803C116.107 156.814 117.13 157.497 119.183 158.409C123.675 160.758 126.811 161.517 132.735 162.579C144.671 163.875 151.507 163.957 164.007 162.318C168.911 161.313 171.552 160.489 175.994 158.409C177.792 157.423 178.773 156.82 180.305 155.877M180.424 155.803L180.305 155.877M180.424 155.803C180.384 155.828 180.344 155.852 180.305 155.877" stroke="#373737"/>
<path d="M144.983 164.667C143.205 169.077 142.233 171.708 140.291 175.091C138.757 176.573 135.916 168.421 132.996 163.623C137.518 164.328 140.128 164.584 144.983 164.667Z" fill="#EFEFEF" stroke="#EFEFEF"/>
<path d="M151.633 164.568C153.528 168.929 154.57 171.534 156.6 174.863C158.174 176.304 160.797 168.08 163.588 163.206C159.086 164.031 156.484 164.356 151.633 164.568Z" fill="#EFEFEF" stroke="#EFEFEF"/>
<path d="M132.995 188.865C138.1 192.121 141.081 193.72 147.589 194.338C154.212 194.138 157.427 193.027 162.443 189.647C158.072 185.03 154.838 183.681 147.589 183.653C140.067 183.49 136.981 184.773 132.995 188.865Z" fill="#595BE4" stroke="#595BE4"/>
<ellipse cx="121.036" cy="120.722" rx="14.0724" ry="16.1572" transform="rotate(-10.1795 121.036 120.722)" fill="#EFEFEF"/>
<ellipse cx="124.141" cy="126.969" rx="4.43019" ry="6.25439" transform="rotate(-2.83454 124.141 126.969)" fill="#373737"/>
<ellipse cx="14.0724" cy="16.1572" rx="14.0724" ry="16.1572" transform="matrix(-0.984259 -0.176733 -0.176733 0.984259 194.031 107.307)" fill="#EFEFEF"/>
<ellipse cx="4.43019" cy="6.25439" rx="4.43019" ry="6.25439" transform="matrix(-0.998776 -0.0494519 -0.0494519 0.998776 178.954 120.941)" fill="#373737"/>
<path d="M226.396 45.5211C233.035 62.3106 230.236 73.8356 218.835 96.4641L194.497 78.1128C212.589 70.9207 219.795 63.9636 226.396 45.5211Z" fill="#595BE4" stroke="#595BE4"/>
<path d="M71.7282 44.9996C65.0895 61.7891 67.8887 73.3141 79.2899 95.9427L103.628 77.5913C85.536 70.3992 78.3299 63.4421 71.7282 44.9996Z" fill="#595BE4" stroke="#595BE4"/>
<ellipse cx="149.439" cy="157.986" rx="90.1674" ry="97.9854" fill="#595BE4"/>
<path d="M199.969 75.4899C199.528 90.7875 204.512 94.4681 219.514 95.2955M203.878 73.6657C203.914 87.1845 208.985 89.8514 221.338 91.3865M207.787 71.5809C208.648 82.6764 212.349 85.7585 223.423 86.9563M210.914 69.4961C212.986 79.2616 216.544 81.7972 224.987 83.3079M213.52 67.1507C216.26 75.6535 219.191 78.2121 226.55 79.3989M215.866 64.8053C219.121 72.2081 221.657 74.7884 227.593 76.2717M217.69 62.4599C221.248 69.1136 223.619 71.4813 228.635 72.8839M219.514 60.1145C222.08 65.1924 224.301 67.1284 229.417 69.2355M220.817 57.7691C223.459 62.3908 225.644 63.6251 229.938 65.0659M222.12 55.4237C224.597 59.1961 226.458 60.0524 229.938 61.1569M223.163 53.5995C225.16 55.9471 226.705 56.4657 229.678 56.9873M224.205 50.9935C225.982 52.6054 227.007 52.9816 228.896 52.5571M225.247 48.127C226.105 49.5504 226.713 49.9049 228.114 49.43" stroke="#373737"/>
<path d="M98.3355 75.4899C98.7763 90.7875 93.7932 94.4681 78.7905 95.2955M94.4265 73.6657C94.3908 87.1845 89.32 89.8514 76.9663 91.3865M90.5175 71.5809C89.6568 82.6764 85.9552 85.7585 74.8815 86.9563M87.3903 69.4961C85.3185 79.2616 81.7612 81.7972 73.3179 83.3079M84.7843 67.1507C82.0446 75.6535 79.1138 78.2121 71.7543 79.3989M82.4389 64.8053C79.1835 72.2081 76.6474 74.7884 70.7119 76.2717M80.6147 62.4599C77.0564 69.1136 74.6853 71.4813 69.6695 72.8839M78.7905 60.1145C76.2247 65.1924 74.004 67.1284 68.8877 69.2355M77.4875 57.7691C74.8453 62.3908 72.6605 63.6251 68.3665 65.0659M76.1845 55.4237C73.7079 59.1961 71.8468 60.0524 68.3665 61.1569M75.1421 53.5995C73.1446 55.9471 71.5996 56.4657 68.6271 56.9873M74.0997 50.9935C72.323 52.6054 71.2981 52.9816 69.4089 52.5571M73.0573 48.127C72.1998 49.5504 71.5919 49.9049 70.1907 49.43" stroke="#373737"/>
<path d="M112.672 183.71C110.63 184.071 109.624 184.117 108.042 184.01C106.396 183.773 106.077 183.483 105.881 182.732C105.701 181.626 105.782 180.949 106.194 179.697" stroke="#373737"/>
<path d="M186.044 184.515C188.314 184.927 189.439 184.998 191.218 184.93C193.075 184.734 193.448 184.452 193.705 183.706C193.965 182.605 193.909 181.926 193.511 180.666" stroke="#373737"/>
<path d="M167.474 158.22C161.612 155.606 158.212 154.401 151.488 153.754C143.888 153.744 140.189 154.534 134.482 157.14C128.593 160.093 125.611 162.078 120.888 165.748C116.852 169.235 114.878 171.33 111.91 175.3C110.605 177.165 109.908 178.853 109.603 180.1C109.298 181.346 109.882 182.302 112.017 181.735C112.017 181.735 114.179 181.005 115.873 180.348L116 180.299C117.62 179.67 118.658 179.267 120.557 178.612C125.245 177.237 128.024 176.703 133.176 176.071C146.29 175.092 153.445 175.227 165.918 176.253C172.101 177.05 175.371 177.607 180.031 179.269C182.165 179.918 183.223 180.398 184.896 181.11L187.86 182.572C189.764 183.208 190.05 182.427 190.084 180.988C189.559 178.872 189.077 177.841 188.025 176.14C185.744 172.446 183.571 170.277 179.544 166.395C175.517 162.969 172.893 161.155 167.474 158.22Z" fill="#373737"/>
<path d="M115.873 180.348C114.179 181.005 112.017 181.735 112.017 181.735C109.882 182.302 109.298 181.346 109.603 180.1C109.908 178.853 110.605 177.165 111.91 175.3C114.878 171.33 116.852 169.235 120.888 165.748C125.611 162.078 128.593 160.093 134.482 157.14C140.189 154.534 143.888 153.744 151.488 153.754C158.212 154.401 161.612 155.606 167.474 158.22C172.893 161.155 175.517 162.969 179.544 166.395C183.571 170.277 185.744 172.446 188.025 176.14C189.077 177.841 189.559 178.872 190.084 180.988C190.05 182.427 189.764 183.208 187.86 182.572L184.896 181.11C183.223 180.398 182.165 179.918 180.031 179.269C175.371 177.607 172.101 177.05 165.918 176.253C153.445 175.227 146.29 175.092 133.176 176.071C128.024 176.703 125.245 177.237 120.557 178.612C118.658 179.267 117.62 179.67 116 180.299M115.873 180.348L116 180.299M115.873 180.348C115.916 180.331 115.958 180.315 116 180.299" stroke="#373737"/>
<ellipse cx="14.0724" cy="16.1572" rx="14.0724" ry="16.1572" transform="matrix(-0.984259 -0.176733 -0.176733 0.984259 137.742 107.307)" fill="#EFEFEF"/>
<ellipse cx="124.141" cy="126.969" rx="4.43019" ry="6.25439" transform="rotate(-2.83454 124.141 126.969)" fill="#373737"/>
<ellipse cx="14.0724" cy="16.1572" rx="14.0724" ry="16.1572" transform="matrix(-0.984259 -0.176733 -0.176733 0.984259 194.031 107.307)" fill="#EFEFEF"/>
<ellipse cx="4.43019" cy="6.25439" rx="4.43019" ry="6.25439" transform="matrix(-0.998776 -0.0494519 -0.0494519 0.998776 178.954 120.941)" fill="#373737"/>
<path d="M176.079 87.2692C175.079 86.7423 174.479 86.516 173.377 86.1714C172.314 85.7771 171.71 85.6242 170.463 85.6701C169.569 85.949 169.093 86.1677 168.316 86.7875C167.738 87.3976 167.493 87.7674 167.239 88.4879C166.975 89.4373 167.102 89.9462 167.671 90.8608C168.654 91.7655 169.186 92.0568 170.125 92.274C170.959 92.4847 171.399 92.5574 172.162 92.5968C173.089 92.5331 173.502 92.4807 174.13 92.3572C175.342 92.0841 176.191 91.9421 176.661 92.0491L176.663 92.0498C177.68 92.3358 178.151 92.4683 178.889 92.7765C180.137 93.2637 180.65 93.5397 181.467 94.0321L183.483 95.356L181.633 91.8719C180.835 90.7388 180.28 90.1136 179.007 89.0528C177.914 88.3115 177.281 87.9128 176.079 87.2692Z" fill="#373737"/>
<path d="M176.661 92.0491C176.191 91.9421 175.342 92.0841 174.13 92.3572C173.502 92.4807 173.089 92.5331 172.162 92.5968C171.399 92.5574 170.959 92.4847 170.125 92.274C169.186 92.0568 168.654 91.7655 167.671 90.8608C167.102 89.9462 166.975 89.4373 167.239 88.4879C167.493 87.7674 167.738 87.3976 168.316 86.7875C169.093 86.1677 169.569 85.949 170.463 85.6701C171.71 85.6242 172.314 85.7771 173.377 86.1714C174.479 86.516 175.079 86.7423 176.079 87.2692C177.281 87.9128 177.914 88.3115 179.007 89.0528C180.28 90.1136 180.835 90.7388 181.633 91.8719L183.483 95.356L181.467 94.0321C180.65 93.5397 180.137 93.2637 178.889 92.7765C178.151 92.4683 177.68 92.3358 176.663 92.0498M176.661 92.0491L176.663 92.0498M176.661 92.0491C176.661 92.0493 176.662 92.0496 176.663 92.0498" stroke="#373737"/>
<path d="M122.616 87.2796C123.608 86.7376 124.204 86.5021 125.301 86.1408C126.357 85.7305 126.959 85.5684 128.207 85.5954C129.105 85.8606 129.585 86.072 130.371 86.6799C130.958 87.2812 131.208 87.6473 131.473 88.3638C131.752 89.3091 131.632 89.8199 131.078 90.743C130.108 91.6625 129.581 91.9619 128.645 92.1933C127.815 92.4167 127.376 92.496 126.614 92.547C125.685 92.4975 125.272 92.4514 124.642 92.3374C123.426 92.0828 122.575 91.9536 122.107 92.0678L122.105 92.0685C121.092 92.37 120.623 92.5096 119.89 92.829C118.65 93.335 118.141 93.6189 117.331 94.1236L115.335 95.478L117.133 91.9662C117.913 90.821 118.459 90.1875 119.716 89.1075C120.797 88.3497 121.424 87.9414 122.616 87.2796Z" fill="#373737"/>
<path d="M122.107 92.0678C122.575 91.9536 123.426 92.0828 124.642 92.3374C125.272 92.4514 125.685 92.4975 126.614 92.547C127.376 92.496 127.815 92.4167 128.645 92.1933C129.581 91.9619 130.108 91.6625 131.078 90.743C131.632 89.8199 131.752 89.3091 131.473 88.3638C131.208 87.6473 130.958 87.2812 130.371 86.6799C129.585 86.072 129.105 85.8606 128.207 85.5954C126.959 85.5684 126.357 85.7305 125.301 86.1408C124.204 86.5021 123.608 86.7376 122.616 87.2796C121.424 87.9414 120.797 88.3497 119.716 89.1075C118.459 90.1875 117.913 90.821 117.133 91.9662L115.335 95.478L117.331 94.1236C118.141 93.6189 118.65 93.335 119.89 92.829C120.623 92.5096 121.092 92.37 122.105 92.0685M122.107 92.0678L122.105 92.0685M122.107 92.0678C122.106 92.068 122.105 92.0683 122.105 92.0685" stroke="#373737"/>
<path d="M96.1005 194.41C88.8529 197.921 85.1573 200.246 79.1332 204.837C71.917 210.656 68.5591 214.3 63.7114 221.374C58.4954 229.73 56.4701 234.673 53.6995 243.745C51.9334 250.428 51.0357 253.644 49.5777 258.557C47.4639 263.959 45.7678 266.4 42.0262 269.17C38.7103 271.29 36.404 271.959 32.0646 272.89C31.2017 272.856 30.4121 272.803 29.675 272.728C26.0982 272.365 23.7565 271.476 20.2647 269.606C15.9153 266.499 14.1089 264.527 11.6479 260.717C8.98598 256.645 8.20581 254.312 7.56541 250.113C7.50866 244.608 8.33246 242.031 10.9187 238.062C14.0606 234.08 16.0053 231.869 20.7298 228.079C26.9541 222.497 30.2665 219.332 35.8437 213.62C40.8634 208.206 44.4015 205.481 52.0448 201.086C59.0157 197.76 63.0983 196.153 71.1865 194.511C80.7979 193.084 86.2672 193.062 96.1005 194.41Z" fill="#595BE4"/>
<path d="M104.329 291.018V259.746C105.908 245.577 107.666 238.244 113.45 228.214C120.615 220.097 125.124 217.549 133.516 214.402C144.473 211.354 151.235 211.872 163.746 214.402C171.433 217.965 175.09 221.078 180.685 228.214C186.747 239.199 189.042 246.059 190.848 259.746L191.891 290.236L104.329 291.018Z" fill="#696AF3"/>
<path d="M135.556 175.433C137.776 173.411 138.94 172.527 140.861 171.409C142.582 170.562 143.37 170.252 144.703 169.762C147.719 168.855 149.991 168.841 152.935 169.397C154.673 169.866 155.589 170.322 157.142 171.409C159.008 172.724 159.943 173.653 161.533 175.433C151.298 174.749 145.613 174.765 135.556 175.433Z" fill="#595BE4"/>
<path d="M138.966 211.889C133.456 211.818 131.757 211.94 131.204 212.824C130.59 213.876 130.918 214.331 131.484 215.153C134.283 217.542 136.349 218.042 140.615 219.04C139.586 216.403 139.254 214.838 138.966 211.889Z" fill="#373737" stroke="#373737"/>
<path d="M140.994 201.53C135.516 199.423 133.774 198.917 132.895 199.595C131.892 200.419 132.052 200.995 132.314 202.025C134.227 205.446 136.105 206.709 139.997 209.283C139.944 206.268 140.192 204.583 140.994 201.53Z" fill="#373737" stroke="#373737"/>
<path d="M143.39 197.798C138.21 192.962 136.741 191.337 137.013 190.024C137.378 188.5 138.088 188.371 139.345 188.111C144.07 188.381 146.434 189.755 151.283 192.623C147.982 194.157 146.282 195.315 143.39 197.798Z" fill="#373737" stroke="#373737"/>
<path d="M151.733 188.885C150.485 182.748 150.261 180.824 151.131 180.019C152.175 179.11 152.753 179.38 153.79 179.838C157.053 182.457 158.049 184.658 160.068 189.21C156.905 188.62 155.088 188.582 151.733 188.885Z" fill="#373737" stroke="#373737"/>
<path d="M171.559 192.208C174.608 185.694 175.717 183.767 177.07 183.619C178.656 183.495 179.003 184.14 179.647 185.272C180.864 189.92 180.277 192.631 179.024 198.211C176.51 195.502 174.86 194.223 171.559 192.208Z" fill="#373737" stroke="#373737"/>
<path d="M236.825 251.178C229.035 249.137 224.959 247.572 218.16 244.234C209.954 239.922 205.954 236.997 199.829 230.995C193.094 223.807 190.15 219.349 185.675 210.986C182.649 204.771 181.146 201.789 178.764 197.251C175.644 192.361 173.508 190.294 169.301 188.302C165.637 186.863 163.245 186.653 158.808 186.581C157.968 186.781 157.203 186.985 156.495 187.202C153.056 188.25 150.93 189.576 147.867 192.086C144.201 195.977 142.811 198.261 141.134 202.476C139.311 206.986 138.997 209.426 139.181 213.669C140.191 219.081 141.498 221.449 144.804 224.843C148.658 228.142 150.993 229.934 156.362 232.738C163.549 237.009 167.412 239.473 173.989 243.998C179.962 248.338 183.961 250.326 192.31 253.158C199.793 255.071 204.11 255.858 212.363 255.903C222.069 255.442 227.439 254.405 236.825 251.178Z" fill="#595BE4" stroke="#373737"/>
<path d="M151.105 155.955C152.399 159.873 153.291 162.162 155.112 165.965C155.72 166.843 156.054 167.278 156.518 166.897C158.727 163.588 159.631 161.607 161.133 158.03C157.481 156.649 155.271 156.125 151.105 155.955Z" fill="#EFEFEF"/>
<path d="M145.653 155.95C144.512 159.915 143.708 162.236 142.035 166.107C141.462 167.007 141.144 167.455 140.666 167.092C138.331 163.871 137.351 161.926 135.713 158.409C139.309 156.889 141.497 156.281 145.653 155.95Z" fill="#EFEFEF"/>
<rect x="43" width="264" height="35" rx="17.5" fill="#373737"/>
<path d="M236 57.1404C253.258 56.0446 262.003 50.1986 276.683 34.6309L250.616 24C252.051 38.9667 249.099 46.3156 236 57.1404Z" fill="#373737"/>
<path d="M61.2 21.92C61.6133 22.08 62.04 22.1667 62.48 22.18C62.92 22.18 63.36 22.0667 63.8 21.84C64.2533 21.6133 64.6933 21.2333 65.12 20.7L66.02 19.58L66.18 19.42L73.8 9H74.88L66.04 21C65.5067 21.7333 64.9333 22.2667 64.32 22.6C63.7067 22.9333 63.1 23.1 62.5 23.1C61.9 23.1 61.3333 22.98 60.8 22.74L61.2 21.92ZM66 20.4L62.24 9H63.34L66.72 19.5L66 20.4ZM73.8344 23L75.9144 12.56H85.0544L82.9544 23H81.9544L83.9144 13.16L84.1344 13.46H76.4544L76.7744 13.16L74.8344 23H73.8344ZM91.9328 23.08C90.9728 23.08 90.1395 22.9067 89.4328 22.56C88.7261 22.2 88.1795 21.6933 87.7928 21.04C87.4195 20.3867 87.2328 19.62 87.2328 18.74C87.2328 17.5267 87.4861 16.4533 87.9928 15.52C88.5128 14.5733 89.2261 13.8333 90.1328 13.3C91.0395 12.7533 92.0728 12.48 93.2328 12.48C94.1661 12.48 94.9661 12.6467 95.6328 12.98C96.3128 13.3 96.8328 13.7867 97.1928 14.44L96.3728 14.94C96.0528 14.4067 95.6261 14.0133 95.0928 13.76C94.5595 13.5067 93.9195 13.38 93.1728 13.38C92.2128 13.38 91.3595 13.6133 90.6128 14.08C89.8795 14.5333 89.2995 15.16 88.8728 15.96C88.4461 16.76 88.2328 17.6667 88.2328 18.68C88.2328 19.7867 88.5595 20.6467 89.2128 21.26C89.8661 21.8733 90.7995 22.18 92.0128 22.18C92.7061 22.18 93.3528 22.0533 93.9528 21.8C94.5661 21.5333 95.0728 21.1533 95.4728 20.66L96.1728 21.22C95.7195 21.8067 95.1128 22.2667 94.3528 22.6C93.6061 22.92 92.7995 23.08 91.9328 23.08ZM98.9902 23.08C98.7768 23.08 98.5835 23 98.4102 22.84C98.2502 22.68 98.1702 22.4867 98.1702 22.26C98.1702 22.0067 98.2568 21.8 98.4302 21.64C98.6168 21.4667 98.8235 21.38 99.0502 21.38C99.2768 21.38 99.4702 21.46 99.6302 21.62C99.7902 21.7667 99.8702 21.96 99.8702 22.2C99.8702 22.3733 99.8302 22.5267 99.7502 22.66C99.6702 22.7933 99.5635 22.9 99.4302 22.98C99.2968 23.0467 99.1502 23.08 98.9902 23.08ZM102.994 23.08C102.781 23.08 102.587 23 102.414 22.84C102.254 22.68 102.174 22.4867 102.174 22.26C102.174 22.0067 102.261 21.8 102.434 21.64C102.621 21.4667 102.827 21.38 103.054 21.38C103.281 21.38 103.474 21.46 103.634 21.62C103.794 21.7667 103.874 21.96 103.874 22.2C103.874 22.3733 103.834 22.5267 103.754 22.66C103.674 22.7933 103.567 22.9 103.434 22.98C103.301 23.0467 103.154 23.08 102.994 23.08ZM106.998 23.08C106.785 23.08 106.591 23 106.418 22.84C106.258 22.68 106.178 22.4867 106.178 22.26C106.178 22.0067 106.265 21.8 106.438 21.64C106.625 21.4667 106.831 21.38 107.058 21.38C107.285 21.38 107.478 21.46 107.638 21.62C107.798 21.7667 107.878 21.96 107.878 22.2C107.878 22.3733 107.838 22.5267 107.758 22.66C107.678 22.7933 107.571 22.9 107.438 22.98C107.305 23.0467 107.158 23.08 106.998 23.08ZM118.079 23L120.019 13.16L120.259 13.46H115.919L116.099 12.56H125.239L125.059 13.46H120.699L121.019 13.16L119.079 23H118.079ZM129.411 23.08C128.478 23.08 127.665 22.9067 126.971 22.56C126.278 22.2 125.738 21.6933 125.351 21.04C124.978 20.3867 124.791 19.62 124.791 18.74C124.791 17.54 125.045 16.4733 125.551 15.54C126.071 14.5933 126.778 13.8467 127.671 13.3C128.578 12.7533 129.611 12.48 130.771 12.48C131.718 12.48 132.531 12.66 133.211 13.02C133.905 13.3667 134.438 13.8667 134.811 14.52C135.198 15.16 135.391 15.9267 135.391 16.82C135.391 18.02 135.131 19.0933 134.611 20.04C134.105 20.9733 133.398 21.7133 132.491 22.26C131.598 22.8067 130.571 23.08 129.411 23.08ZM129.491 22.18C130.438 22.18 131.278 21.9533 132.011 21.5C132.745 21.0467 133.325 20.42 133.751 19.62C134.178 18.8067 134.391 17.8933 134.391 16.88C134.391 15.76 134.065 14.9 133.411 14.3C132.771 13.6867 131.865 13.38 130.691 13.38C129.758 13.38 128.918 13.6133 128.171 14.08C127.438 14.5333 126.858 15.16 126.431 15.96C126.005 16.76 125.791 17.6667 125.791 18.68C125.791 19.7867 126.111 20.6467 126.751 21.26C127.405 21.8733 128.318 22.18 129.491 22.18ZM137.584 23L139.684 12.56H144.044C145.111 12.56 145.918 12.7533 146.464 13.14C147.024 13.5267 147.304 14.0933 147.304 14.84C147.304 15.7333 146.931 16.4533 146.184 17C145.451 17.5467 144.491 17.82 143.304 17.82L143.564 17.52C144.658 17.52 145.451 17.7 145.944 18.06C146.438 18.4067 146.684 18.9667 146.684 19.74C146.684 20.7533 146.284 21.5533 145.484 22.14C144.684 22.7133 143.571 23 142.144 23H137.584ZM138.724 22.18H142.224C143.318 22.18 144.171 21.9667 144.784 21.54C145.398 21.1 145.704 20.4933 145.704 19.72C145.704 19.1333 145.511 18.72 145.124 18.48C144.751 18.2267 144.131 18.1 143.264 18.1H139.544L138.724 22.18ZM139.704 17.32H143.064C144.024 17.32 144.798 17.1067 145.384 16.68C145.984 16.2533 146.284 15.6867 146.284 14.98C146.284 14.4333 146.084 14.0333 145.684 13.78C145.284 13.5133 144.684 13.38 143.884 13.38H140.484L139.704 17.32ZM154.116 23.08C153.222 23.08 152.436 22.9067 151.756 22.56C151.076 22.2133 150.549 21.7133 150.176 21.06C149.802 20.4067 149.616 19.6333 149.616 18.74C149.616 17.8333 149.756 17 150.036 16.24C150.329 15.48 150.742 14.82 151.276 14.26C151.809 13.7 152.436 13.2667 153.156 12.96C153.876 12.64 154.662 12.48 155.516 12.48C156.436 12.48 157.216 12.6467 157.856 12.98C158.496 13.3 158.982 13.7733 159.316 14.4C159.662 15.0133 159.836 15.76 159.836 16.64C159.849 17.88 159.616 18.9867 159.136 19.96C158.669 20.9333 158.002 21.7 157.136 22.26C156.282 22.8067 155.276 23.08 154.116 23.08ZM154.316 22.18C155.262 22.18 156.102 21.9533 156.836 21.5C157.569 21.0467 158.149 20.42 158.576 19.62C159.002 18.8067 159.216 17.8933 159.216 16.88C159.216 15.76 158.889 14.9 158.236 14.3C157.596 13.6867 156.689 13.38 155.516 13.38C154.582 13.38 153.742 13.6133 152.996 14.08C152.262 14.5333 151.682 15.16 151.256 15.96C150.829 16.76 150.616 17.6667 150.616 18.68C150.616 19.7867 150.936 20.6467 151.576 21.26C152.229 21.8733 153.142 22.18 154.316 22.18ZM158.116 23L158.756 19.74L159.336 17.92L159.476 16L160.156 12.56H161.156L159.076 23H158.116ZM169.045 23.08C168.138 23.08 167.358 22.92 166.705 22.6C166.065 22.2667 165.578 21.7933 165.245 21.18C164.912 20.5533 164.738 19.8 164.725 18.92C164.725 17.6667 164.958 16.56 165.425 15.6C165.905 14.6267 166.572 13.8667 167.425 13.32C168.292 12.76 169.298 12.48 170.445 12.48C171.352 12.48 172.138 12.6533 172.805 13C173.485 13.3467 174.012 13.8467 174.385 14.5C174.772 15.1533 174.965 15.9267 174.965 16.82C174.965 17.7267 174.818 18.56 174.525 19.32C174.232 20.08 173.818 20.74 173.285 21.3C172.765 21.86 172.145 22.3 171.425 22.62C170.705 22.9267 169.912 23.08 169.045 23.08ZM162.625 26.88L165.485 12.56H166.465L165.805 15.82L165.245 17.64L165.105 19.56L163.625 26.88H162.625ZM169.065 22.18C170.012 22.18 170.852 21.9533 171.585 21.5C172.318 21.0467 172.892 20.42 173.305 19.62C173.732 18.8067 173.945 17.8933 173.945 16.88C173.945 15.76 173.618 14.9 172.965 14.3C172.325 13.6867 171.418 13.38 170.245 13.38C169.312 13.38 168.472 13.6067 167.725 14.06C166.992 14.5133 166.412 15.14 165.985 15.94C165.558 16.74 165.345 17.6533 165.345 18.68C165.345 19.7867 165.672 20.6467 166.325 21.26C166.978 21.8733 167.892 22.18 169.065 22.18ZM182.311 23L184.391 12.56H185.391L184.431 17.32H191.531L192.491 12.56H193.491L191.391 23H190.391L191.371 18.2H184.271L183.311 23H182.311ZM200.45 23.08C199.477 23.08 198.63 22.9067 197.91 22.56C197.19 22.2 196.637 21.6933 196.25 21.04C195.877 20.3867 195.69 19.6067 195.69 18.7C195.69 17.5133 195.937 16.4533 196.43 15.52C196.937 14.5867 197.617 13.8467 198.47 13.3C199.337 12.7533 200.31 12.48 201.39 12.48C202.31 12.48 203.097 12.6533 203.75 13C204.403 13.3467 204.91 13.8467 205.27 14.5C205.643 15.14 205.83 15.92 205.83 16.84C205.83 17.04 205.817 17.24 205.79 17.44C205.763 17.64 205.737 17.8267 205.71 18H196.45L196.59 17.22H205.23L204.83 17.56C204.977 16.64 204.917 15.8733 204.65 15.26C204.383 14.6333 203.963 14.16 203.39 13.84C202.83 13.5067 202.157 13.34 201.37 13.34C200.463 13.34 199.65 13.5733 198.93 14.04C198.223 14.4933 197.67 15.12 197.27 15.92C196.87 16.7067 196.67 17.62 196.67 18.66C196.67 19.7933 196.997 20.6667 197.65 21.28C198.303 21.88 199.263 22.18 200.53 22.18C201.277 22.18 201.957 22.06 202.57 21.82C203.197 21.5667 203.71 21.22 204.11 20.78L204.57 21.48C204.117 21.9733 203.523 22.3667 202.79 22.66C202.07 22.94 201.29 23.08 200.45 23.08ZM213.288 23L215.368 12.56H216.368L215.408 17.32H222.508L223.468 12.56H224.468L222.368 23H221.368L222.348 18.2H215.248L214.288 23H213.288ZM231.166 23.08C230.273 23.08 229.486 22.9067 228.806 22.56C228.126 22.2133 227.6 21.7133 227.226 21.06C226.853 20.4067 226.666 19.6333 226.666 18.74C226.666 17.8333 226.806 17 227.086 16.24C227.38 15.48 227.793 14.82 228.326 14.26C228.86 13.7 229.486 13.2667 230.206 12.96C230.926 12.64 231.713 12.48 232.566 12.48C233.486 12.48 234.266 12.6467 234.906 12.98C235.546 13.3 236.033 13.7733 236.366 14.4C236.713 15.0133 236.886 15.76 236.886 16.64C236.9 17.88 236.666 18.9867 236.186 19.96C235.72 20.9333 235.053 21.7 234.186 22.26C233.333 22.8067 232.326 23.08 231.166 23.08ZM231.366 22.18C232.313 22.18 233.153 21.9533 233.886 21.5C234.62 21.0467 235.2 20.42 235.626 19.62C236.053 18.8067 236.266 17.8933 236.266 16.88C236.266 15.76 235.94 14.9 235.286 14.3C234.646 13.6867 233.74 13.38 232.566 13.38C231.633 13.38 230.793 13.6133 230.046 14.08C229.313 14.5333 228.733 15.16 228.306 15.96C227.88 16.76 227.666 17.6667 227.666 18.68C227.666 19.7867 227.986 20.6467 228.626 21.26C229.28 21.8733 230.193 22.18 231.366 22.18ZM235.166 23L235.806 19.74L236.386 17.92L236.526 16L237.206 12.56H238.206L236.126 23H235.166ZM240.436 23L242.536 12.56H243.536L241.736 21.52L250.896 12.56H251.876L249.776 23H248.756L250.576 14.02L241.396 23H240.436ZM247.576 10.94C246.709 10.94 246.049 10.72 245.596 10.28C245.156 9.82667 244.996 9.23333 245.116 8.5H245.856C245.763 9.03333 245.876 9.46667 246.196 9.8C246.529 10.1333 247.003 10.3 247.616 10.3C248.216 10.3 248.736 10.14 249.176 9.82C249.629 9.48667 249.923 9.04667 250.056 8.5H250.776C250.629 9.26 250.269 9.86 249.696 10.3C249.123 10.7267 248.416 10.94 247.576 10.94ZM261.309 22.52L263.129 13.46H257.689L257.029 16.1C256.843 16.8333 256.643 17.5667 256.429 18.3C256.229 19.02 255.996 19.68 255.729 20.28C255.476 20.88 255.183 21.3667 254.849 21.74C254.529 22.1 254.156 22.3067 253.729 22.36L252.689 22.12C253.116 22.1467 253.496 21.9933 253.829 21.66C254.176 21.3133 254.483 20.8467 254.749 20.26C255.029 19.66 255.276 18.9867 255.489 18.24C255.716 17.4933 255.929 16.7333 256.129 15.96L256.969 12.56H264.309L262.309 22.52H261.309ZM251.589 25.6L252.289 22.12H264.069L263.389 25.6H262.429L262.929 23H253.049L252.549 25.6H251.589ZM271.563 23.08C270.59 23.08 269.743 22.9067 269.023 22.56C268.303 22.2 267.75 21.6933 267.363 21.04C266.99 20.3867 266.803 19.6067 266.803 18.7C266.803 17.5133 267.05 16.4533 267.543 15.52C268.05 14.5867 268.73 13.8467 269.583 13.3C270.45 12.7533 271.423 12.48 272.503 12.48C273.423 12.48 274.21 12.6533 274.863 13C275.516 13.3467 276.023 13.8467 276.383 14.5C276.756 15.14 276.943 15.92 276.943 16.84C276.943 17.04 276.93 17.24 276.903 17.44C276.876 17.64 276.85 17.8267 276.823 18H267.563L267.703 17.22H276.343L275.943 17.56C276.09 16.64 276.03 15.8733 275.763 15.26C275.496 14.6333 275.076 14.16 274.503 13.84C273.943 13.5067 273.27 13.34 272.483 13.34C271.576 13.34 270.763 13.5733 270.043 14.04C269.336 14.4933 268.783 15.12 268.383 15.92C267.983 16.7067 267.783 17.62 267.783 18.66C267.783 19.7933 268.11 20.6667 268.763 21.28C269.416 21.88 270.376 22.18 271.643 22.18C272.39 22.18 273.07 22.06 273.683 21.82C274.31 21.5667 274.823 21.22 275.223 20.78L275.683 21.48C275.23 21.9733 274.636 22.3667 273.903 22.66C273.183 22.94 272.403 23.08 271.563 23.08ZM279.264 23L281.344 12.56H282.344L281.384 17.32H288.484L289.444 12.56H290.444L288.344 23H287.344L288.324 18.2H281.224L280.264 23H279.264Z" fill="#EFEFEF"/>
</svg>
